<svg width="1288" height="1156" viewBox="0 0 1288 1156" fill="none" xmlns="http://www.w3.org/2000/svg">
<g filter="url(#filter0_i_73_106)">
<path d="M276.907 1152.21L151.669 1102.94C163.756 1052.36 208.984 1010.82 276.907 994.93C250.926 975.933 196.806 956.417 159.044 946.424C141.322 949.49 122.312 951.424 118.403 941.871C116.58 937.416 134.3 939.876 159.044 946.424C170.2 944.494 180.845 942.115 186.893 941.871L81.2234 921.027C91.8586 898.125 98.0282 885.508 139.929 896.393L175.152 837.649L151.669 788.381L231.9 837.649C203.062 800.334 193.3 780.387 200.59 748.587C229.618 703.336 247.854 680.411 296.475 659.524C325.516 557.398 361.267 519.003 468.677 492.769L566.519 576.147L443.238 392.337C446.815 349.564 453.737 336.912 468.677 320.329C613.397 247.348 684.878 234.644 781.771 301.38C842.335 327.069 853.592 350.354 848.304 401.812L721.109 602.676L813.081 509.824V576.147C857.41 543.507 882.259 544.49 926.577 562.882V695.528L967.671 576.147L1000.94 712.583L1047.9 739.112L1012.68 837.649L1108.56 739.112C1131.53 796.826 1121.76 831.737 1083.12 896.393L1173.14 822.49C1177.97 856.393 1173.17 875.467 1147.7 909.657C1195.28 901.708 1214.05 911.902 1229.89 962.716L1173.14 941.871L1061.6 953.241L967.671 994.93C1043.15 993.352 1077.68 1001.3 1122.26 1034.72L1108.56 1135.16L276.907 1152.21Z" fill="black"/>
<path d="M276.907 1152.21L151.669 1102.94C163.756 1052.36 208.984 1010.82 276.907 994.93C233.902 963.486 113.798 930.618 118.403 941.871C124.773 957.438 171.238 942.503 186.893 941.871L81.2234 921.027C91.8586 898.125 98.0282 885.508 139.929 896.393L175.152 837.649L151.669 788.381L231.9 837.649C203.062 800.334 193.3 780.387 200.59 748.587C229.618 703.336 247.854 680.411 296.475 659.524C325.516 557.398 361.267 519.003 468.677 492.769L566.519 576.147L443.238 392.337C446.815 349.564 453.737 336.912 468.677 320.329C613.397 247.348 684.878 234.644 781.771 301.38C842.335 327.069 853.592 350.354 848.304 401.812L721.109 602.676L813.08 509.824V576.147C857.41 543.507 882.259 544.49 926.577 562.882V695.528L967.671 576.147L1000.94 712.583L1047.9 739.112L1012.68 837.649L1108.56 739.112C1131.53 796.826 1121.76 831.737 1083.12 896.393L1173.14 822.49C1177.97 856.393 1173.17 875.467 1147.7 909.657C1195.28 901.708 1214.05 911.902 1229.89 962.716L1173.14 941.871L1061.6 953.241L967.671 994.93C1043.15 993.352 1077.68 1001.3 1122.26 1034.72L1108.56 1135.16L276.907 1152.21Z" stroke="black"/>
<path d="M525.31 111.843L643.838 1.59082L754.594 62.1216C772.051 78.4336 781.385 100.371 797.342 159.403C829.548 218.222 842.864 249.489 851.749 299.921C889.491 348.243 897.503 366.994 896.44 390.717L863.407 455.572L995.537 520.426L1071.32 650.135L1110.18 673.915C1129.82 736.265 1143.87 766.081 1182.07 797.139L1197.62 859.831C1255.71 913.233 1269.34 946.445 1287 1006.83C1224.66 977.834 1190.42 968.666 1129.61 954.951L1197.62 1021.97C1147.82 990.726 1116.85 982.059 1059.66 972.246L1129.61 1034.94C1070.65 998.632 1035.22 986.979 964.448 993.864L1059.66 954.951L1172.36 939.818L1232.59 972.246C1213.5 916.138 1194.61 902.789 1149.04 905.229C1174.75 872.062 1181.04 852.346 1172.36 814.433C1140.38 867.94 1119.56 880.476 1081.03 894.42C1119.59 852.372 1121.94 814.915 1110.18 736.608L1016.91 833.89L1049.94 736.608L1007.2 717.152L964.448 578.795C941.119 622.008 935.383 646.117 929.472 689.048V563.663C886.219 545.841 861.969 546.837 818.716 563.663V500.97L723.505 604.737L851.749 403.688C852.084 338.599 832.068 320.561 783.741 299.921C716.254 253.654 672.499 249.435 587.489 267.494C477.837 307.515 468.938 316.986 459.245 332.349C433.775 385.123 437.501 402.472 459.245 423.145L571.944 578.795L496.164 520.426L470.904 493.404C349.953 521.978 319.918 564.062 297.969 660.944C255.505 679.234 234.185 698.436 200.815 749.579C199.372 792.151 206.498 810.76 233.847 833.89L150.294 786.33L173.611 833.89L138.636 894.42C100.74 896.493 88.7202 902.565 80.3433 920.362L191.099 939.818H95.888C179.441 948.125 223.842 955.058 274.652 993.864C215.301 1003.6 188.792 1027.84 150.294 1095.47C146.054 1046.13 153.963 1023.38 191.099 993.864H119.205L138.636 972.246C84.2499 946.417 53.9888 947.467 0.676758 993.864C78.6592 831.11 135.645 768.79 233.847 650.135L317.4 520.426L445.644 466.381C419.727 431.515 409.225 411.747 406.782 375.585L459.245 289.112L525.31 111.843Z" fill="url(#paint0_linear_73_106)"/>
<path d="M445.644 466.381C419.727 431.515 409.225 411.747 406.782 375.585L459.245 289.112L525.31 111.843L643.838 1.59082L754.594 62.1216C772.051 78.4336 781.385 100.371 797.342 159.403C829.548 218.222 842.864 249.489 851.749 299.921C889.491 348.243 897.503 366.994 896.44 390.718L863.407 455.572L995.537 520.426L1071.32 650.135L1110.18 673.915C1129.82 736.265 1143.87 766.081 1182.07 797.139L1197.62 859.831C1255.71 913.233 1269.34 946.445 1287 1006.83C1224.66 977.834 1190.42 968.666 1129.61 954.951L1197.62 1021.97C1147.82 990.726 1116.85 982.059 1059.66 972.246L1129.61 1034.94C1070.65 998.632 1035.22 986.979 964.448 993.864L1059.66 954.951L1172.36 939.818L1232.59 972.246C1213.5 916.138 1194.61 902.789 1149.04 905.229C1174.75 872.062 1181.04 852.346 1172.36 814.433C1140.38 867.94 1119.56 880.476 1081.03 894.42C1119.59 852.372 1121.94 814.915 1110.18 736.608L1016.91 833.89L1049.94 736.608L1007.2 717.152L964.448 578.795C941.119 622.008 935.383 646.117 929.472 689.048V563.663C886.219 545.842 861.969 546.837 818.716 563.663V500.97L723.505 604.737L851.749 403.688C852.084 338.599 832.067 320.561 783.741 299.921C716.254 253.654 672.499 249.435 587.489 267.494C477.837 307.515 468.938 316.986 459.245 332.349C433.775 385.123 437.501 402.472 459.245 423.145L571.944 578.795L496.164 520.426L470.904 493.404M445.644 466.381L317.4 520.426L233.847 650.135C135.645 768.79 78.6592 831.11 0.676758 993.864C53.9888 947.467 84.2499 946.417 138.636 972.246L119.205 993.864H191.099C153.963 1023.38 146.054 1046.13 150.294 1095.47C188.792 1027.84 215.301 1003.6 274.652 993.864C223.842 955.058 179.441 948.125 95.888 939.818H191.099L80.3433 920.362C88.7202 902.565 100.74 896.493 138.636 894.42L173.611 833.89L150.294 786.33L233.847 833.89C206.498 810.76 199.372 792.151 200.815 749.579C234.185 698.436 255.505 679.234 297.969 660.944C319.918 564.062 349.953 521.978 470.904 493.404M445.644 466.381L470.904 493.404" stroke="#B5CE36"/>
<path d="M282.424 1156L293.811 748.49C293.962 743.078 298.393 738.77 303.807 738.77H935.017C940.54 738.77 945.017 743.247 945.017 748.77V1140.87L918.489 788.803C918.105 783.708 913.941 779.721 908.834 779.559L313.573 760.697C308.14 760.525 303.564 764.725 303.271 770.153L282.424 1156Z" fill="url(#paint1_linear_73_106)"/>
<path d="M404.953 970.392C398.453 970.392 392.733 969.525 387.793 967.792C382.853 965.972 378.997 963.372 376.223 959.992C373.45 956.525 372.063 952.322 372.063 947.382C372.063 942.615 373.45 938.498 376.223 935.032C379.083 931.478 383.59 928.705 389.743 926.712C395.897 924.718 403.957 923.722 413.923 923.722H441.483C447.03 923.722 451.623 923.938 455.263 924.372C458.903 924.805 462.023 925.542 464.623 926.582C467.223 927.535 469.65 928.835 471.903 930.482C474.503 932.302 476.54 934.728 478.013 937.762C479.573 940.708 480.353 944.088 480.353 947.902C480.353 954.922 478.1 960.425 473.593 964.412C469.173 968.398 462.803 970.392 454.483 970.392C452.403 970.392 450.02 970.262 447.333 970.002C444.733 969.828 442.307 969.438 440.053 968.832L443.173 955.442C444.387 955.788 445.6 956.048 446.813 956.222C448.027 956.308 449.327 956.352 450.713 956.352C454.353 956.352 457.127 955.615 459.033 954.142C460.94 952.582 461.893 950.198 461.893 946.992C461.893 944.738 461.287 942.962 460.073 941.662C458.947 940.275 457.343 939.235 455.263 938.542C453.27 937.848 450.973 937.415 448.373 937.242C445.773 936.982 443.087 936.852 440.313 936.852H411.583C408.55 936.852 405.647 937.025 402.873 937.372C400.187 937.632 397.89 938.238 395.983 939.192C394.337 940.058 393.123 941.142 392.343 942.442C391.563 943.742 391.173 945.258 391.173 946.992C391.173 950.285 392.517 952.712 395.203 954.272C397.977 955.832 401.66 956.612 406.253 956.612C409.633 956.612 412.493 956.092 414.833 955.052C417.26 953.925 419.123 952.018 420.423 949.332C421.723 946.558 422.373 942.745 422.373 937.892V909.682H402.743V929.572L385.323 931.652V895.772H465.663V909.682H441.223V937.632C441.223 943.698 440.617 948.508 439.403 952.062C438.277 955.528 436.63 958.475 434.463 960.902C431.257 964.368 427.14 966.838 422.113 968.312C417.173 969.698 411.453 970.392 404.953 970.392ZM521.438 970.392C515.458 970.392 510.215 969.178 505.708 966.752C501.288 964.325 497.822 960.685 495.308 955.832C492.795 950.892 491.538 944.782 491.538 937.502C491.538 928.142 493.575 920.255 497.648 913.842C501.722 907.428 507.268 902.575 514.288 899.282C521.308 895.902 529.195 894.212 537.948 894.212C545.922 894.212 552.682 895.252 558.228 897.332C563.775 899.325 568.282 902.098 571.748 905.652C575.215 909.118 577.728 913.148 579.288 917.742C580.848 922.248 581.628 926.972 581.628 931.912C581.628 936.158 581.195 940.232 580.328 944.132C579.462 947.945 578.335 951.542 576.948 954.922H604.378V895.772H623.748V968.832H557.058L556.408 958.302C558.055 955.355 559.442 951.845 560.568 947.772C561.695 943.698 562.258 939.148 562.258 934.122C562.258 928.662 561.262 924.025 559.268 920.212C557.362 916.398 554.502 913.495 550.688 911.502C546.875 909.422 542.152 908.382 536.518 908.382C530.625 908.382 525.598 909.768 521.438 912.542C517.278 915.315 514.115 919.042 511.948 923.722C509.782 928.315 508.698 933.428 508.698 939.062C508.698 943.395 509.175 946.905 510.128 949.592C511.082 952.192 512.425 954.098 514.158 955.312C515.978 956.438 518.145 957.002 520.658 957.002C522.652 957.002 524.298 956.612 525.598 955.832C526.985 955.052 528.025 953.925 528.718 952.452C529.498 950.978 529.888 949.202 529.888 947.122C529.888 943.828 528.978 941.315 527.158 939.582C525.425 937.762 522.998 936.852 519.878 936.852C516.238 936.852 512.988 937.935 510.128 940.102C507.268 942.182 504.668 944.478 502.328 946.992L499.468 934.512C502.675 931.478 506.315 928.922 510.388 926.842C514.462 924.762 519.228 923.722 524.688 923.722C531.622 923.722 537.255 925.672 541.588 929.572C545.922 933.472 548.088 939.018 548.088 946.212C548.088 951.238 547.048 955.572 544.968 959.212C542.975 962.765 539.985 965.538 535.998 967.532C532.098 969.438 527.245 970.392 521.438 970.392ZM672.317 970.392C665.817 970.392 660.097 969.525 655.157 967.792C650.217 965.972 646.36 963.372 643.587 959.992C640.813 956.525 639.427 952.322 639.427 947.382C639.427 942.615 640.813 938.498 643.587 935.032C646.447 931.478 650.953 928.705 657.107 926.712C663.26 924.718 671.32 923.722 681.287 923.722H733.157V936.852H678.947C675.913 936.852 673.01 937.025 670.237 937.372C667.55 937.632 665.253 938.238 663.347 939.192C661.7 940.058 660.487 941.142 659.707 942.442C658.927 943.742 658.537 945.258 658.537 946.992C658.537 950.285 659.88 952.712 662.567 954.272C665.34 955.745 669.023 956.482 673.617 956.482C676.997 956.482 679.857 955.962 682.197 954.922C684.623 953.882 686.487 952.018 687.787 949.332C689.087 946.558 689.737 942.745 689.737 937.892V909.682H670.107V929.572L652.687 931.652V895.772H733.157V909.682H708.327V937.632C708.327 943.698 707.763 948.508 706.637 952.062C705.51 955.528 703.863 958.475 701.697 960.902C698.49 964.368 694.373 966.838 689.347 968.312C684.407 969.698 678.73 970.392 672.317 970.392ZM820.077 894.212C828.137 894.212 834.68 895.945 839.707 899.412C844.734 902.792 848.417 907.472 850.757 913.452C853.184 919.432 854.397 926.192 854.397 933.732C854.397 940.318 853.617 945.822 852.057 950.242C850.584 954.662 848.2 958.258 844.907 961.032C842.567 963.025 839.924 964.585 836.977 965.712C834.03 966.838 830.477 967.662 826.317 968.182C822.244 968.615 817.174 968.832 811.107 968.832H749.357V895.772H768.727V954.922H792.647V922.682C792.647 917.308 793.21 912.932 794.337 909.552C795.55 906.172 797.284 903.355 799.537 901.102C801.877 898.848 804.737 897.158 808.117 896.032C811.584 894.818 815.57 894.212 820.077 894.212ZM821.377 908.122C820.25 908.122 819.124 908.295 817.997 908.642C816.957 908.988 816.004 909.595 815.137 910.462C814.01 911.588 813.187 913.148 812.667 915.142C812.234 917.048 812.017 920.212 812.017 924.632V954.922H816.957C821.55 954.922 825.147 954.272 827.747 952.972C830.434 951.585 832.297 949.332 833.337 946.212C834.464 943.092 835.027 938.932 835.027 933.732C835.027 928.965 834.594 924.675 833.727 920.862C832.86 916.962 831.43 913.885 829.437 911.632C827.444 909.292 824.757 908.122 821.377 908.122ZM799.927 882.772C796.807 882.772 794.25 881.775 792.257 879.782C790.264 877.702 789.267 875.102 789.267 871.982C789.267 868.862 790.264 866.305 792.257 864.312C794.25 862.232 796.807 861.192 799.927 861.192C802.96 861.192 805.474 862.232 807.467 864.312C809.46 866.305 810.457 868.862 810.457 871.982C810.457 875.102 809.46 877.702 807.467 879.782C805.474 881.775 802.96 882.772 799.927 882.772Z" fill="url(#paint2_linear_73_106)"/>
<path d="M592.747 351.094C538.889 344.477 507.034 343.872 455.498 350.002C450.044 350.651 446.175 355.622 446.833 361.074L447.413 365.875C447.867 369.64 450.509 372.642 453.849 374.438C458.265 376.813 459.869 379.578 460.083 384.607C463.693 410.718 468.338 422.278 478.474 438.708C479.175 439.845 480.119 440.834 481.218 441.595C515.825 465.542 539.404 471.701 597.016 445.63C598.193 445.098 599.283 444.32 600.163 443.375C617.239 425.05 625.644 412.579 634.056 388.113C634.83 385.861 636.334 383.887 638.446 382.787C646.265 378.717 650.499 379.484 655.533 382.621C657.476 383.831 658.788 385.821 659.424 388.019C665.896 410.398 673.036 423.323 690.186 443.039C691.199 444.203 692.501 445.122 693.933 445.697C756.4 470.793 791.84 468.357 816.381 435.115C816.986 434.296 817.452 433.369 817.767 432.402L833.535 384.037C834 382.611 834.019 381.085 834.221 379.599C834.569 377.036 836.283 375.09 839.453 372.872C842.353 370.843 844.286 367.659 844.286 364.12V359.942C844.286 354.946 840.59 350.708 835.635 350.072C788.604 344.032 758.558 344.055 706.403 348.416C705.839 348.463 705.268 348.559 704.721 348.703C693.346 351.686 685.34 354.549 670.378 360.834C669.145 361.351 667.818 361.622 666.48 361.622H625.611C624.501 361.622 623.398 361.437 622.349 361.075L594.793 351.567C594.133 351.339 593.44 351.179 592.747 351.094Z" fill="url(#paint3_linear_73_106)"/>
<path d="M711.899 355.787L689.006 365.07C687.5 365.681 686.145 366.639 685.161 367.933C679.778 375.005 678.534 381.068 677.923 392.269C678.257 409.339 682.591 418.743 696.501 434.508C697.082 435.167 697.762 435.751 698.499 436.228C717.601 448.572 730.398 452.845 757.024 453.563C781.47 452.912 791.747 446.909 806.147 431.745C806.876 430.977 807.477 430.084 807.919 429.122C816.677 410.054 819.584 399.05 817.291 380.229C815.484 367.892 807.274 362.499 782.86 355.443C781.971 355.186 781.038 355.055 780.111 355.055H715.657C714.369 355.055 713.093 355.304 711.899 355.787Z" fill="#161313"/>
<path d="M495.044 359.799L480.844 369.782C478.796 371.221 477.345 373.377 476.876 375.836C474.309 389.291 474.682 399.172 477.355 416.088C477.553 417.345 477.998 418.555 478.659 419.642C485.799 431.373 490.759 437.934 501.414 445.5C502.306 446.134 503.32 446.604 504.374 446.897C534.438 455.238 550.615 455.824 576.222 446.449C592.199 440.734 598.461 435.171 606.356 422.369C614.707 408.534 617.061 400.019 613.889 382.418C612.401 367.265 604.695 361.428 576.222 356.696C546.188 354.863 528.986 354.763 499.649 358.05C497.993 358.236 496.407 358.84 495.044 359.799Z" fill="#161313"/>
<path d="M548.082 418.444C543.029 422.732 541.636 426.767 541.847 432.148C542.036 436.986 546.454 440.439 551.296 440.439H566.663C571.197 440.439 575.469 437.417 575.782 432.894C575.997 429.798 575.489 427.416 574.353 424.511C570.662 416.311 566.111 413.944 551.964 416.643C550.543 416.914 549.184 417.508 548.082 418.444Z" fill="#B6D41C"/>
<path d="M725.874 418.444C720.822 422.732 719.428 426.767 719.639 432.148C719.829 436.986 724.247 440.439 729.089 440.439H744.455C748.989 440.439 753.261 437.417 753.575 432.894C753.789 429.798 753.281 427.416 752.145 424.511C748.454 416.311 743.904 413.944 729.757 416.643C728.336 416.914 726.977 417.508 725.874 418.444Z" fill="#42B40D"/>
<path d="M644.956 457.09C645.687 455.593 647.819 455.593 648.55 457.09L658.81 478.096C659.458 479.424 658.491 480.973 657.012 480.973H636.493C635.015 480.973 634.047 479.424 634.696 478.096L644.956 457.09Z" fill="#B6D41C"/>
<path d="M701.836 501.911C662.291 526.398 636.802 526.072 590.729 501.629C589.272 500.856 587.489 501.897 587.489 503.547C587.489 504.161 587.76 504.758 588.216 505.169C635.193 547.608 660.952 549.54 704.446 505.124C704.824 504.739 705.045 504.209 705.045 503.67C705.045 502.035 703.226 501.05 701.836 501.911Z" fill="#42B40D"/>
</g>
<defs>
<filter id="filter0_i_73_106" x="0.22583" y="0.979004" width="1291.56" height="1159.02" filterUnits="userSpaceOnUse" color-interpolation-filters="sRGB">
<feFlood flood-opacity="0" result="BackgroundImageFix"/>
<feBlend mode="normal" in="SourceGraphic" in2="BackgroundImageFix" result="shape"/>
<feColorMatrix in="SourceAlpha" type="matrix" values="0 0 0 0 0 0 0 0 0 0 0 0 0 0 0 0 0 0 127 0" result="hardAlpha"/>
<feOffset dx="26" dy="4"/>
<feGaussianBlur stdDeviation="2"/>
<feComposite in2="hardAlpha" operator="arithmetic" k2="-1" k3="1"/>
<feColorMatrix type="matrix" values="0 0 0 0 0 0 0 0 0 0 0 0 0 0 0 0 0 0 0.57 0"/>
<feBlend mode="normal" in2="shape" result="effect1_innerShadow_73_106"/>
</filter>
<linearGradient id="paint0_linear_73_106" x1="552.513" y1="78.3353" x2="1265.79" y2="881.702" gradientUnits="userSpaceOnUse">
<stop offset="0.00785658" stop-color="#B5CE36"/>
<stop offset="1" stop-color="#0E850C"/>
</linearGradient>
<linearGradient id="paint1_linear_73_106" x1="282.424" y1="875.411" x2="949.725" y2="992.53" gradientUnits="userSpaceOnUse">
<stop stop-color="#B5CE36"/>
<stop offset="0.266839" stop-color="#88BB2B"/>
<stop offset="1" stop-color="#0E850C"/>
</linearGradient>
<linearGradient id="paint2_linear_73_106" x1="328.087" y1="954.951" x2="899.354" y2="954.951" gradientUnits="userSpaceOnUse">
<stop stop-color="#B5CE36"/>
<stop offset="1" stop-color="#0E850C"/>
</linearGradient>
<linearGradient id="paint3_linear_73_106" x1="445.644" y1="388.716" x2="843.329" y2="428.688" gradientUnits="userSpaceOnUse">
<stop stop-color="#B5CE36"/>
<stop offset="1" stop-color="#42B40D"/>
</linearGradient>
</defs>
</svg>
