<svg xmlns="http://www.w3.org/2000/svg" xmlns:xlink="http://www.w3.org/1999/xlink" viewBox="0 0 972.24 912.89"><defs><style>.cls-1{fill:url(#linear-gradient);}.cls-2{isolation:isolate;}.cls-3{fill:url(#linear-gradient-2);}.cls-4{clip-path:url(#clip-path);}.cls-5{fill:url(#linear-gradient-4);}.cls-162,.cls-6{mix-blend-mode:overlay;}.cls-10,.cls-24,.cls-25,.cls-26,.cls-27,.cls-28,.cls-45,.cls-46,.cls-47,.cls-61,.cls-62,.cls-63,.cls-64,.cls-65,.cls-7,.cls-8,.cls-9{mix-blend-mode:color-dodge;}.cls-7{fill:url(#linear-gradient-5);}.cls-8{fill:url(#linear-gradient-6);}.cls-9{fill:url(#linear-gradient-7);}.cls-11{fill:url(#linear-gradient-8);}.cls-12{fill:url(#linear-gradient-9);}.cls-13{fill:url(#linear-gradient-10);}.cls-14{fill:url(#linear-gradient-11);}.cls-15{fill:url(#linear-gradient-12);}.cls-16{fill:url(#linear-gradient-13);}.cls-17{fill:url(#linear-gradient-14);}.cls-18{fill:url(#linear-gradient-15);}.cls-19{fill:url(#linear-gradient-16);}.cls-20{fill:url(#linear-gradient-17);}.cls-21{fill:url(#linear-gradient-18);}.cls-22{fill:url(#linear-gradient-19);}.cls-23{fill:url(#linear-gradient-20);}.cls-24{fill:url(#linear-gradient-21);}.cls-25{fill:url(#linear-gradient-22);}.cls-26{fill:url(#linear-gradient-23);}.cls-27{fill:url(#linear-gradient-24);}.cls-28{fill:url(#linear-gradient-25);}.cls-29{fill:url(#linear-gradient-26);}.cls-30{fill:url(#linear-gradient-27);}.cls-31{fill:url(#linear-gradient-28);}.cls-32{fill:url(#linear-gradient-29);}.cls-33{fill:url(#linear-gradient-30);}.cls-34{fill:url(#linear-gradient-31);}.cls-35{fill:url(#linear-gradient-32);}.cls-36{fill:url(#linear-gradient-33);}.cls-37{fill:url(#linear-gradient-34);}.cls-38{fill:url(#linear-gradient-35);}.cls-39{fill:url(#linear-gradient-36);}.cls-40{fill:url(#linear-gradient-37);}.cls-41{fill:url(#linear-gradient-38);}.cls-42{fill:url(#linear-gradient-39);}.cls-43{fill:url(#linear-gradient-40);}.cls-44{fill:url(#linear-gradient-41);}.cls-45{fill:url(#linear-gradient-42);}.cls-46{fill:url(#linear-gradient-43);}.cls-47{fill:url(#linear-gradient-44);}.cls-48{fill:url(#linear-gradient-45);}.cls-49{fill:url(#linear-gradient-46);}.cls-50{fill:url(#linear-gradient-47);}.cls-51{fill:url(#linear-gradient-48);}.cls-52{fill:url(#linear-gradient-49);}.cls-53{fill:url(#linear-gradient-50);}.cls-54{fill:url(#linear-gradient-51);}.cls-55{fill:url(#linear-gradient-52);}.cls-56{fill:url(#linear-gradient-53);}.cls-57{fill:url(#linear-gradient-54);}.cls-58{fill:url(#linear-gradient-55);}.cls-59{fill:url(#linear-gradient-56);}.cls-60{fill:url(#linear-gradient-57);}.cls-61{fill:url(#linear-gradient-58);}.cls-62{fill:url(#linear-gradient-59);}.cls-63{fill:url(#linear-gradient-60);}.cls-64{fill:url(#linear-gradient-61);}.cls-65{fill:url(#linear-gradient-62);}.cls-66{fill:url(#linear-gradient-63);}.cls-67{fill:url(#linear-gradient-64);}.cls-68{fill:url(#linear-gradient-65);}.cls-69{fill:url(#linear-gradient-66);}.cls-70{fill:url(#linear-gradient-67);}.cls-71{fill:url(#linear-gradient-68);}.cls-72{fill:url(#linear-gradient-69);}.cls-73{fill:url(#linear-gradient-70);}.cls-74{fill:url(#linear-gradient-71);}.cls-75{fill:url(#linear-gradient-72);}.cls-76{fill:url(#linear-gradient-73);}.cls-77{fill:url(#linear-gradient-74);}.cls-78{fill:url(#linear-gradient-75);}.cls-79{fill:url(#linear-gradient-76);}.cls-80{fill:url(#linear-gradient-77);}.cls-81{mix-blend-mode:screen;}.cls-82{fill:url(#linear-gradient-78);}.cls-100,.cls-102,.cls-105,.cls-107,.cls-109,.cls-111,.cls-112,.cls-114,.cls-117,.cls-118,.cls-123,.cls-126,.cls-129,.cls-130,.cls-133,.cls-135,.cls-140,.cls-142,.cls-145,.cls-147,.cls-149,.cls-151,.cls-152,.cls-154,.cls-157,.cls-158,.cls-83,.cls-86,.cls-89,.cls-90,.cls-93,.cls-95{opacity:0.35;}.cls-83{fill:url(#linear-gradient-79);}.cls-104,.cls-110,.cls-115,.cls-120,.cls-124,.cls-127,.cls-137,.cls-138,.cls-139,.cls-144,.cls-150,.cls-155,.cls-160,.cls-84,.cls-87,.cls-97,.cls-98,.cls-99{opacity:0.1;}.cls-84{fill:url(#linear-gradient-80);}.cls-101,.cls-103,.cls-106,.cls-113,.cls-116,.cls-119,.cls-125,.cls-131,.cls-136,.cls-141,.cls-143,.cls-146,.cls-153,.cls-156,.cls-159,.cls-85,.cls-91,.cls-96{opacity:0.19;}.cls-85{fill:url(#linear-gradient-81);}.cls-86{fill:url(#linear-gradient-82);}.cls-87{fill:url(#linear-gradient-83);}.cls-88{fill:url(#linear-gradient-84);}.cls-89{fill:url(#linear-gradient-85);}.cls-90{fill:url(#linear-gradient-86);}.cls-91{fill:url(#linear-gradient-87);}.cls-92{fill:url(#linear-gradient-88);}.cls-93{fill:url(#linear-gradient-89);}.cls-94{fill:url(#linear-gradient-90);}.cls-95{fill:url(#linear-gradient-91);}.cls-96{fill:url(#linear-gradient-92);}.cls-97{fill:url(#linear-gradient-93);}.cls-98{fill:url(#linear-gradient-94);}.cls-99{fill:url(#linear-gradient-95);}.cls-100{fill:url(#linear-gradient-96);}.cls-101{fill:url(#linear-gradient-97);}.cls-102{fill:url(#linear-gradient-98);}.cls-103{fill:url(#linear-gradient-99);}.cls-104{fill:url(#linear-gradient-100);}.cls-105{fill:url(#linear-gradient-101);}.cls-106{fill:url(#linear-gradient-102);}.cls-107{fill:url(#linear-gradient-103);}.cls-108{fill:url(#linear-gradient-104);}.cls-109{fill:url(#linear-gradient-105);}.cls-110{fill:url(#linear-gradient-106);}.cls-111{fill:url(#linear-gradient-107);}.cls-112{fill:url(#linear-gradient-108);}.cls-113{fill:url(#linear-gradient-109);}.cls-114{fill:url(#linear-gradient-110);}.cls-115{fill:url(#linear-gradient-111);}.cls-116{fill:url(#linear-gradient-112);}.cls-117{fill:url(#linear-gradient-113);}.cls-118{fill:url(#linear-gradient-114);}.cls-119{fill:url(#linear-gradient-115);}.cls-120{fill:url(#linear-gradient-116);}.cls-121{fill:url(#linear-gradient-117);}.cls-122{fill:url(#linear-gradient-118);}.cls-123{fill:url(#linear-gradient-119);}.cls-124{fill:url(#linear-gradient-120);}.cls-125{fill:url(#linear-gradient-121);}.cls-126{fill:url(#linear-gradient-122);}.cls-127{fill:url(#linear-gradient-123);}.cls-128{fill:url(#linear-gradient-124);}.cls-129{fill:url(#linear-gradient-125);}.cls-130{fill:url(#linear-gradient-126);}.cls-131{fill:url(#linear-gradient-127);}.cls-132{fill:url(#linear-gradient-128);}.cls-133{fill:url(#linear-gradient-129);}.cls-134{fill:url(#linear-gradient-130);}.cls-135{fill:url(#linear-gradient-131);}.cls-136{fill:url(#linear-gradient-132);}.cls-137{fill:url(#linear-gradient-133);}.cls-138{fill:url(#linear-gradient-134);}.cls-139{fill:url(#linear-gradient-135);}.cls-140{fill:url(#linear-gradient-136);}.cls-141{fill:url(#linear-gradient-137);}.cls-142{fill:url(#linear-gradient-138);}.cls-143{fill:url(#linear-gradient-139);}.cls-144{fill:url(#linear-gradient-140);}.cls-145{fill:url(#linear-gradient-141);}.cls-146{fill:url(#linear-gradient-142);}.cls-147{fill:url(#linear-gradient-143);}.cls-148{fill:url(#linear-gradient-144);}.cls-149{fill:url(#linear-gradient-145);}.cls-150{fill:url(#linear-gradient-146);}.cls-151{fill:url(#linear-gradient-147);}.cls-152{fill:url(#linear-gradient-148);}.cls-153{fill:url(#linear-gradient-149);}.cls-154{fill:url(#linear-gradient-150);}.cls-155{fill:url(#linear-gradient-151);}.cls-156{fill:url(#linear-gradient-152);}.cls-157{fill:url(#linear-gradient-153);}.cls-158{fill:url(#linear-gradient-154);}.cls-159{fill:url(#linear-gradient-155);}.cls-160{fill:url(#linear-gradient-156);}.cls-161{fill:url(#linear-gradient-157);}.cls-162{opacity:0.8;fill:url(#linear-gradient-158);}</style><linearGradient id="linear-gradient" y1="250" x2="750" y2="250" gradientUnits="userSpaceOnUse"><stop offset="0" stop-color="#006837"/><stop offset="1"/></linearGradient><linearGradient id="linear-gradient-2" x1="146.32" y1="456.45" x2="821.9" y2="456.45" xlink:href="#linear-gradient"/><clipPath id="clip-path" transform="translate(109.11 206.45)"><rect class="cls-1" width="750" height="500"/></clipPath><linearGradient id="linear-gradient-4" x1="443.09" y1="216.53" x2="512.99" y2="216.53" xlink:href="#linear-gradient"/><linearGradient id="linear-gradient-5" x1="327.03" y1="129.83" x2="573.98" y2="129.83" xlink:href="#linear-gradient"/><linearGradient id="linear-gradient-6" x1="584.61" y1="125.73" x2="705.21" y2="125.73" xlink:href="#linear-gradient"/><linearGradient id="linear-gradient-7" x1="598.19" y1="272.05" x2="666.28" y2="272.05" xlink:href="#linear-gradient"/><linearGradient id="linear-gradient-8" x1="697.04" y1="591.72" x2="699.66" y2="591.72" xlink:href="#linear-gradient"/><linearGradient id="linear-gradient-9" x1="691.77" y1="591.72" x2="694.39" y2="591.72" xlink:href="#linear-gradient"/><linearGradient id="linear-gradient-10" x1="686.49" y1="591.72" x2="689.12" y2="591.72" xlink:href="#linear-gradient"/><linearGradient id="linear-gradient-11" x1="681.22" y1="591.72" x2="683.85" y2="591.72" xlink:href="#linear-gradient"/><linearGradient id="linear-gradient-12" x1="675.95" y1="591.72" x2="678.57" y2="591.72" xlink:href="#linear-gradient"/><linearGradient id="linear-gradient-13" x1="670.68" y1="591.72" x2="673.3" y2="591.72" xlink:href="#linear-gradient"/><linearGradient id="linear-gradient-14" x1="665.41" y1="591.72" x2="668.03" y2="591.72" xlink:href="#linear-gradient"/><linearGradient id="linear-gradient-15" x1="658.1" y1="581.34" x2="713.07" y2="581.34" xlink:href="#linear-gradient"/><linearGradient id="linear-gradient-16" x1="743.13" y1="347.28" x2="745.77" y2="347.28" xlink:href="#linear-gradient"/><linearGradient id="linear-gradient-17" x1="734.74" y1="347.28" x2="737.39" y2="347.28" xlink:href="#linear-gradient"/><linearGradient id="linear-gradient-18" x1="726.36" y1="347.28" x2="729" y2="347.28" xlink:href="#linear-gradient"/><linearGradient id="linear-gradient-19" x1="717.98" y1="347.28" x2="720.62" y2="347.28" xlink:href="#linear-gradient"/><linearGradient id="linear-gradient-20" x1="687.12" y1="347.33" x2="749.79" y2="347.33" xlink:href="#linear-gradient"/><linearGradient id="linear-gradient-21" x1="414.92" y1="142.65" x2="819.67" y2="142.65" xlink:href="#linear-gradient"/><linearGradient id="linear-gradient-22" x1="624.61" y1="385.5" x2="760.8" y2="385.5" xlink:href="#linear-gradient"/><linearGradient id="linear-gradient-23" x1="381.74" y1="382.09" x2="695.01" y2="382.09" xlink:href="#linear-gradient"/><linearGradient id="linear-gradient-24" x1="624.09" y1="96.11" x2="863.13" y2="96.11" xlink:href="#linear-gradient"/><linearGradient id="linear-gradient-25" x1="657.96" y1="403.89" x2="840.9" y2="403.89" xlink:href="#linear-gradient"/><linearGradient id="linear-gradient-26" x1="546.07" y1="150.82" x2="791.06" y2="150.82" xlink:href="#linear-gradient"/><linearGradient id="linear-gradient-27" x1="645.25" y1="179.68" x2="755.41" y2="179.68" xlink:href="#linear-gradient"/><linearGradient id="linear-gradient-28" x1="675.89" y1="193.18" x2="755.53" y2="193.18" xlink:href="#linear-gradient"/><linearGradient id="linear-gradient-29" x1="668.17" y1="205.1" x2="678.73" y2="205.1" xlink:href="#linear-gradient"/><linearGradient id="linear-gradient-30" x1="635.98" y1="189.76" x2="646.54" y2="189.76" xlink:href="#linear-gradient"/><linearGradient id="linear-gradient-31" x1="754.33" y1="184.43" x2="764.89" y2="184.43" xlink:href="#linear-gradient"/><linearGradient id="linear-gradient-32" x1="754.21" y1="170.17" x2="764.77" y2="170.17" xlink:href="#linear-gradient"/><linearGradient id="linear-gradient-33" x1="581.8" y1="176.87" x2="778.27" y2="176.87" xlink:href="#linear-gradient"/><linearGradient id="linear-gradient-34" x1="632.4" y1="297.66" x2="757.41" y2="297.66" xlink:href="#linear-gradient"/><linearGradient id="linear-gradient-35" x1="403.79" y1="233.75" x2="759.33" y2="233.75" xlink:href="#linear-gradient"/><linearGradient id="linear-gradient-36" x1="386.83" y1="269.58" x2="750.6" y2="269.58" xlink:href="#linear-gradient"/><linearGradient id="linear-gradient-37" x1="410.63" y1="323.23" x2="767.92" y2="323.23" xlink:href="#linear-gradient"/><linearGradient id="linear-gradient-38" x1="438.5" y1="348.96" x2="815.59" y2="348.96" xlink:href="#linear-gradient"/><linearGradient id="linear-gradient-39" x1="646.49" y1="349.93" x2="800.42" y2="349.93" xlink:href="#linear-gradient"/><linearGradient id="linear-gradient-40" x1="764.89" y1="332.92" x2="779.79" y2="332.92" xlink:href="#linear-gradient"/><linearGradient id="linear-gradient-41" x1="241.04" y1="216.53" x2="310.93" y2="216.53" xlink:href="#linear-gradient"/><linearGradient id="linear-gradient-42" x1="180.05" y1="129.83" x2="427" y2="129.83" xlink:href="#linear-gradient"/><linearGradient id="linear-gradient-43" x1="48.82" y1="125.73" x2="169.42" y2="125.73" xlink:href="#linear-gradient"/><linearGradient id="linear-gradient-44" x1="87.74" y1="272.05" x2="155.83" y2="272.05" xlink:href="#linear-gradient"/><linearGradient id="linear-gradient-45" x1="272.58" y1="591.72" x2="275.21" y2="591.72" xlink:href="#linear-gradient"/><linearGradient id="linear-gradient-46" x1="277.85" y1="591.72" x2="280.48" y2="591.72" xlink:href="#linear-gradient"/><linearGradient id="linear-gradient-47" x1="283.13" y1="591.72" x2="285.75" y2="591.72" xlink:href="#linear-gradient"/><linearGradient id="linear-gradient-48" x1="288.4" y1="591.72" x2="291.02" y2="591.72" xlink:href="#linear-gradient"/><linearGradient id="linear-gradient-49" x1="293.67" y1="591.72" x2="296.29" y2="591.72" xlink:href="#linear-gradient"/><linearGradient id="linear-gradient-50" x1="298.94" y1="591.72" x2="301.57" y2="591.72" xlink:href="#linear-gradient"/><linearGradient id="linear-gradient-51" x1="304.22" y1="591.72" x2="306.84" y2="591.72" xlink:href="#linear-gradient"/><linearGradient id="linear-gradient-52" x1="259.18" y1="581.34" x2="314.15" y2="581.34" xlink:href="#linear-gradient"/><linearGradient id="linear-gradient-53" x1="8.25" y1="347.28" x2="10.9" y2="347.28" xlink:href="#linear-gradient"/><linearGradient id="linear-gradient-54" x1="16.64" y1="347.28" x2="19.28" y2="347.28" xlink:href="#linear-gradient"/><linearGradient id="linear-gradient-55" x1="25.02" y1="347.28" x2="27.66" y2="347.28" xlink:href="#linear-gradient"/><linearGradient id="linear-gradient-56" x1="33.4" y1="347.28" x2="36.05" y2="347.28" xlink:href="#linear-gradient"/><linearGradient id="linear-gradient-57" x1="4.24" y1="347.33" x2="66.9" y2="347.33" xlink:href="#linear-gradient"/><linearGradient id="linear-gradient-58" x1="-65.64" y1="142.65" x2="339.1" y2="142.65" xlink:href="#linear-gradient"/><linearGradient id="linear-gradient-59" x1="-6.77" y1="385.5" x2="129.41" y2="385.5" xlink:href="#linear-gradient"/><linearGradient id="linear-gradient-60" x1="59.02" y1="382.09" x2="375" y2="382.09" xlink:href="#linear-gradient"/><linearGradient id="linear-gradient-61" x1="-109.11" y1="96.11" x2="129.93" y2="96.11" xlink:href="#linear-gradient"/><linearGradient id="linear-gradient-62" x1="-86.87" y1="403.89" x2="96.06" y2="403.89" xlink:href="#linear-gradient"/><linearGradient id="linear-gradient-63" x1="-37.03" y1="150.82" x2="207.96" y2="150.82" xlink:href="#linear-gradient"/><linearGradient id="linear-gradient-64" x1="-1.38" y1="179.68" x2="108.78" y2="179.68" xlink:href="#linear-gradient"/><linearGradient id="linear-gradient-65" x1="-1.5" y1="193.18" x2="78.13" y2="193.18" xlink:href="#linear-gradient"/><linearGradient id="linear-gradient-66" x1="75.29" y1="205.1" x2="85.86" y2="205.1" xlink:href="#linear-gradient"/><linearGradient id="linear-gradient-67" x1="107.49" y1="189.76" x2="118.05" y2="189.76" xlink:href="#linear-gradient"/><linearGradient id="linear-gradient-68" x1="-10.87" y1="184.43" x2="-0.3" y2="184.43" xlink:href="#linear-gradient"/><linearGradient id="linear-gradient-69" x1="-10.75" y1="170.17" x2="-0.18" y2="170.17" xlink:href="#linear-gradient"/><linearGradient id="linear-gradient-70" x1="-24.25" y1="176.87" x2="172.22" y2="176.87" xlink:href="#linear-gradient"/><linearGradient id="linear-gradient-71" x1="-3.38" y1="297.66" x2="121.63" y2="297.66" xlink:href="#linear-gradient"/><linearGradient id="linear-gradient-72" x1="-5.31" y1="233.75" x2="350.24" y2="233.75" xlink:href="#linear-gradient"/><linearGradient id="linear-gradient-73" x1="3.42" y1="269.58" x2="367.2" y2="269.58" xlink:href="#linear-gradient"/><linearGradient id="linear-gradient-74" x1="-13.9" y1="323.23" x2="343.4" y2="323.23" xlink:href="#linear-gradient"/><linearGradient id="linear-gradient-75" x1="-61.56" y1="348.96" x2="315.53" y2="348.96" xlink:href="#linear-gradient"/><linearGradient id="linear-gradient-76" x1="-46.4" y1="349.93" x2="107.53" y2="349.93" xlink:href="#linear-gradient"/><linearGradient id="linear-gradient-77" x1="-25.77" y1="332.92" x2="-10.87" y2="332.92" xlink:href="#linear-gradient"/><linearGradient id="linear-gradient-78" x1="777.59" y1="689.34" x2="859.11" y2="689.34" xlink:href="#linear-gradient"/><linearGradient id="linear-gradient-79" x1="682.09" y1="689.34" x2="763.61" y2="689.34" xlink:href="#linear-gradient"/><linearGradient id="linear-gradient-80" x1="586.59" y1="689.34" x2="668.12" y2="689.34" xlink:href="#linear-gradient"/><linearGradient id="linear-gradient-81" x1="491.1" y1="689.34" x2="572.62" y2="689.34" xlink:href="#linear-gradient"/><linearGradient id="linear-gradient-82" x1="395.6" y1="689.34" x2="477.12" y2="689.34" xlink:href="#linear-gradient"/><linearGradient id="linear-gradient-83" x1="300.1" y1="689.34" x2="381.63" y2="689.34" xlink:href="#linear-gradient"/><linearGradient id="linear-gradient-84" x1="204.61" y1="689.34" x2="286.13" y2="689.34" xlink:href="#linear-gradient"/><linearGradient id="linear-gradient-85" x1="109.11" y1="689.34" x2="190.63" y2="689.34" xlink:href="#linear-gradient"/><linearGradient id="linear-gradient-86" x1="777.59" y1="644.02" x2="859.11" y2="644.02" xlink:href="#linear-gradient"/><linearGradient id="linear-gradient-87" x1="682.09" y1="644.02" x2="763.61" y2="644.02" xlink:href="#linear-gradient"/><linearGradient id="linear-gradient-88" x1="586.59" y1="644.02" x2="668.12" y2="644.02" xlink:href="#linear-gradient"/><linearGradient id="linear-gradient-89" x1="491.1" y1="644.02" x2="572.62" y2="644.02" xlink:href="#linear-gradient"/><linearGradient id="linear-gradient-90" x1="395.6" y1="644.02" x2="477.12" y2="644.02" xlink:href="#linear-gradient"/><linearGradient id="linear-gradient-91" x1="300.1" y1="644.02" x2="381.63" y2="644.02" xlink:href="#linear-gradient"/><linearGradient id="linear-gradient-92" x1="204.61" y1="644.02" x2="286.13" y2="644.02" xlink:href="#linear-gradient"/><linearGradient id="linear-gradient-93" x1="109.11" y1="644.02" x2="190.63" y2="644.02" xlink:href="#linear-gradient"/><linearGradient id="linear-gradient-94" x1="777.59" y1="598.71" x2="859.11" y2="598.71" xlink:href="#linear-gradient"/><linearGradient id="linear-gradient-95" x1="682.09" y1="598.71" x2="763.61" y2="598.71" xlink:href="#linear-gradient"/><linearGradient id="linear-gradient-96" x1="586.59" y1="598.71" x2="668.12" y2="598.71" xlink:href="#linear-gradient"/><linearGradient id="linear-gradient-97" x1="491.1" y1="598.71" x2="572.62" y2="598.71" xlink:href="#linear-gradient"/><linearGradient id="linear-gradient-98" x1="395.6" y1="598.71" x2="477.12" y2="598.71" xlink:href="#linear-gradient"/><linearGradient id="linear-gradient-99" x1="300.1" y1="598.71" x2="381.63" y2="598.71" xlink:href="#linear-gradient"/><linearGradient id="linear-gradient-100" x1="204.61" y1="598.71" x2="286.13" y2="598.71" xlink:href="#linear-gradient"/><linearGradient id="linear-gradient-101" x1="109.11" y1="598.71" x2="190.63" y2="598.71" xlink:href="#linear-gradient"/><linearGradient id="linear-gradient-102" x1="777.59" y1="553.39" x2="859.11" y2="553.39" xlink:href="#linear-gradient"/><linearGradient id="linear-gradient-103" x1="682.09" y1="553.39" x2="763.61" y2="553.39" xlink:href="#linear-gradient"/><linearGradient id="linear-gradient-104" x1="586.59" y1="553.39" x2="668.12" y2="553.39" xlink:href="#linear-gradient"/><linearGradient id="linear-gradient-105" x1="491.1" y1="553.02" x2="572.62" y2="553.02" xlink:href="#linear-gradient"/><linearGradient id="linear-gradient-106" x1="395.6" y1="553.39" x2="477.12" y2="553.39" xlink:href="#linear-gradient"/><linearGradient id="linear-gradient-107" x1="300.1" y1="553.39" x2="381.63" y2="553.39" xlink:href="#linear-gradient"/><linearGradient id="linear-gradient-108" x1="204.61" y1="553.39" x2="286.13" y2="553.39" xlink:href="#linear-gradient"/><linearGradient id="linear-gradient-109" x1="109.11" y1="553.39" x2="190.63" y2="553.39" xlink:href="#linear-gradient"/><linearGradient id="linear-gradient-110" x1="777.59" y1="508.07" x2="859.11" y2="508.07" xlink:href="#linear-gradient"/><linearGradient id="linear-gradient-111" x1="682.09" y1="508.07" x2="763.61" y2="508.07" xlink:href="#linear-gradient"/><linearGradient id="linear-gradient-112" x1="586.59" y1="508.07" x2="668.12" y2="508.07" xlink:href="#linear-gradient"/><linearGradient id="linear-gradient-113" x1="491.1" y1="508.07" x2="572.62" y2="508.07" xlink:href="#linear-gradient"/><linearGradient id="linear-gradient-114" x1="395.6" y1="508.07" x2="477.12" y2="508.07" xlink:href="#linear-gradient"/><linearGradient id="linear-gradient-115" x1="300.1" y1="508.07" x2="381.63" y2="508.07" xlink:href="#linear-gradient"/><linearGradient id="linear-gradient-116" x1="204.61" y1="508.07" x2="286.13" y2="508.07" xlink:href="#linear-gradient"/><linearGradient id="linear-gradient-117" x1="109.11" y1="508.07" x2="190.63" y2="508.07" xlink:href="#linear-gradient"/><linearGradient id="linear-gradient-118" x1="777.59" y1="223.55" x2="859.11" y2="223.55" xlink:href="#linear-gradient"/><linearGradient id="linear-gradient-119" x1="682.09" y1="223.55" x2="763.61" y2="223.55" xlink:href="#linear-gradient"/><linearGradient id="linear-gradient-120" x1="586.59" y1="223.55" x2="668.12" y2="223.55" xlink:href="#linear-gradient"/><linearGradient id="linear-gradient-121" x1="491.1" y1="223.55" x2="572.62" y2="223.55" xlink:href="#linear-gradient"/><linearGradient id="linear-gradient-122" x1="395.6" y1="223.55" x2="477.12" y2="223.55" xlink:href="#linear-gradient"/><linearGradient id="linear-gradient-123" x1="300.1" y1="223.55" x2="381.63" y2="223.55" xlink:href="#linear-gradient"/><linearGradient id="linear-gradient-124" x1="204.61" y1="223.55" x2="286.13" y2="223.55" xlink:href="#linear-gradient"/><linearGradient id="linear-gradient-125" x1="109.11" y1="223.55" x2="190.63" y2="223.55" xlink:href="#linear-gradient"/><linearGradient id="linear-gradient-126" x1="777.59" y1="268.87" x2="859.11" y2="268.87" xlink:href="#linear-gradient"/><linearGradient id="linear-gradient-127" x1="682.09" y1="268.87" x2="763.61" y2="268.87" xlink:href="#linear-gradient"/><linearGradient id="linear-gradient-128" x1="586.59" y1="268.87" x2="668.12" y2="268.87" xlink:href="#linear-gradient"/><linearGradient id="linear-gradient-129" x1="491.1" y1="268.87" x2="572.62" y2="268.87" xlink:href="#linear-gradient"/><linearGradient id="linear-gradient-130" x1="395.6" y1="268.87" x2="477.12" y2="268.87" xlink:href="#linear-gradient"/><linearGradient id="linear-gradient-131" x1="300.1" y1="268.87" x2="381.63" y2="268.87" xlink:href="#linear-gradient"/><linearGradient id="linear-gradient-132" x1="204.61" y1="268.87" x2="286.13" y2="268.87" xlink:href="#linear-gradient"/><linearGradient id="linear-gradient-133" x1="109.11" y1="268.87" x2="190.63" y2="268.87" xlink:href="#linear-gradient"/><linearGradient id="linear-gradient-134" x1="777.59" y1="314.18" x2="859.11" y2="314.18" xlink:href="#linear-gradient"/><linearGradient id="linear-gradient-135" x1="682.09" y1="314.18" x2="763.61" y2="314.18" xlink:href="#linear-gradient"/><linearGradient id="linear-gradient-136" x1="586.59" y1="314.18" x2="668.12" y2="314.18" xlink:href="#linear-gradient"/><linearGradient id="linear-gradient-137" x1="491.1" y1="314.18" x2="572.62" y2="314.18" xlink:href="#linear-gradient"/><linearGradient id="linear-gradient-138" x1="395.6" y1="314.18" x2="477.12" y2="314.18" xlink:href="#linear-gradient"/><linearGradient id="linear-gradient-139" x1="300.1" y1="314.18" x2="381.63" y2="314.18" xlink:href="#linear-gradient"/><linearGradient id="linear-gradient-140" x1="204.61" y1="314.18" x2="286.13" y2="314.18" xlink:href="#linear-gradient"/><linearGradient id="linear-gradient-141" x1="109.11" y1="314.18" x2="190.63" y2="314.18" xlink:href="#linear-gradient"/><linearGradient id="linear-gradient-142" x1="777.59" y1="359.5" x2="859.11" y2="359.5" xlink:href="#linear-gradient"/><linearGradient id="linear-gradient-143" x1="682.09" y1="359.5" x2="763.61" y2="359.5" xlink:href="#linear-gradient"/><linearGradient id="linear-gradient-144" x1="586.59" y1="359.5" x2="668.12" y2="359.5" xlink:href="#linear-gradient"/><linearGradient id="linear-gradient-145" x1="491.1" y1="359.5" x2="572.62" y2="359.5" xlink:href="#linear-gradient"/><linearGradient id="linear-gradient-146" x1="395.6" y1="359.5" x2="477.12" y2="359.5" xlink:href="#linear-gradient"/><linearGradient id="linear-gradient-147" x1="300.1" y1="359.5" x2="381.63" y2="359.5" xlink:href="#linear-gradient"/><linearGradient id="linear-gradient-148" x1="204.61" y1="359.5" x2="286.13" y2="359.5" xlink:href="#linear-gradient"/><linearGradient id="linear-gradient-149" x1="109.11" y1="359.5" x2="190.63" y2="359.5" xlink:href="#linear-gradient"/><linearGradient id="linear-gradient-150" x1="777.59" y1="404.82" x2="859.11" y2="404.82" xlink:href="#linear-gradient"/><linearGradient id="linear-gradient-151" x1="682.09" y1="404.82" x2="763.61" y2="404.82" xlink:href="#linear-gradient"/><linearGradient id="linear-gradient-152" x1="586.59" y1="404.82" x2="668.12" y2="404.82" xlink:href="#linear-gradient"/><linearGradient id="linear-gradient-153" x1="491.1" y1="404.82" x2="572.62" y2="404.82" xlink:href="#linear-gradient"/><linearGradient id="linear-gradient-154" x1="395.6" y1="404.82" x2="477.12" y2="404.82" xlink:href="#linear-gradient"/><linearGradient id="linear-gradient-155" x1="300.1" y1="404.82" x2="381.63" y2="404.82" xlink:href="#linear-gradient"/><linearGradient id="linear-gradient-156" x1="204.61" y1="404.82" x2="286.13" y2="404.82" xlink:href="#linear-gradient"/><linearGradient id="linear-gradient-157" x1="109.11" y1="404.82" x2="190.63" y2="404.82" xlink:href="#linear-gradient"/><linearGradient id="linear-gradient-158" x1="101.44" y1="175.23" x2="642.44" y2="175.23" gradientTransform="translate(-141.77 160.77) scale(1.69)" xlink:href="#linear-gradient"/></defs><g class="cls-2"><g id="Layer_2" data-name="Layer 2"><g id="BACKGROUND"><rect class="cls-3" x="146.32" y="215.71" width="675.57" height="481.47"/><rect class="cls-1" x="109.11" y="206.45" width="750" height="500"/><g class="cls-4"><path class="cls-5" d="M443.09,216.46v.14l69.89,0Z" transform="translate(109.11 206.45)"/><g class="cls-6"><path class="cls-7" d="M571.86,127.71a2.11,2.11,0,0,0-2.09,1.84H327l.52.56H569.77a2.11,2.11,0,1,0,2.09-2.4Z" transform="translate(109.11 206.45)"/><path class="cls-8" d="M695.3,108.82a9.91,9.91,0,0,0-9.88,9.51H606.88l-17.48,18.8a3.05,3.05,0,1,0,.59.55l17.24-18.55h78.19a9.9,9.9,0,1,0,9.88-10.31Zm9.1,9.91a9.09,9.09,0,0,1-18.18.4h1.87a7.23,7.23,0,1,0,0-.8h-1.87a9.09,9.09,0,0,1,18.18.4Z" transform="translate(109.11 206.45)"/><path class="cls-9" d="M662.42,257c-7.67-4.76-15.64.49-15.93,7.68H620.57l-17.48,18.8c-1.79-1.26-4.58-.39-4.9,2.58.53,3.12,3.75,3.72,5.38,2a3,3,0,0,0,.11-4l17.24-18.54h25.57a9.91,9.91,0,0,0,9.88,9.5c7.41,0,12.94-8.17,8.07-16A6.29,6.29,0,0,0,662.42,257Zm1.34,13.69a5.63,5.63,0,0,1-1.79,1.78c-7,4.42-14.38-.38-14.67-7h1.86c.3,5.23,6.15,9,11.74,5.41a4.26,4.26,0,0,0,1.29-1.28c3.68-5.73-.37-11.77-5.82-11.77a7.24,7.24,0,0,0-7.21,6.83H647.3a9.1,9.1,0,0,1,9.07-8.7C663.19,256,668.28,263.48,663.76,270.66Zm-9.14-5.2a1.83,1.83,0,1,0,1.75-2.21,1.81,1.81,0,0,0-1.75,1.4H650c.3-4.69,5.62-8,10.64-4.63a3.08,3.08,0,0,1,.79.78c3.51,5.15-.12,10.67-5,10.67a6.42,6.42,0,0,1-6.4-6Z" transform="translate(109.11 206.45)"/><g class="cls-10"><rect class="cls-11" x="697.04" y="586.76" width="2.62" height="9.91"/><rect class="cls-12" x="691.77" y="586.76" width="2.62" height="9.91"/><rect class="cls-13" x="686.49" y="586.76" width="2.62" height="9.91"/><rect class="cls-14" x="681.22" y="586.76" width="2.62" height="9.91"/><rect class="cls-15" x="675.95" y="586.76" width="2.62" height="9.91"/><rect class="cls-16" x="670.68" y="586.76" width="2.62" height="9.91"/><rect class="cls-17" x="665.41" y="586.76" width="2.62" height="9.91"/><polygon class="cls-18" points="713.07 601.64 713.07 567.11 712.48 566.52 712.48 601.05 658.68 601.05 658.68 561.63 707.59 561.63 707 561.04 658.1 561.04 658.1 601.64 713.07 601.64"/></g><g class="cls-10"><path class="cls-19" d="M744.45,346a1.32,1.32,0,1,0,1.32,1.32A1.32,1.32,0,0,0,744.45,346Z" transform="translate(109.11 206.45)"/><path class="cls-20" d="M736.07,346a1.32,1.32,0,1,0,1.32,1.32A1.33,1.33,0,0,0,736.07,346Z" transform="translate(109.11 206.45)"/><path class="cls-21" d="M727.68,346a1.32,1.32,0,1,0,1.32,1.32A1.32,1.32,0,0,0,727.68,346Z" transform="translate(109.11 206.45)"/><path class="cls-22" d="M719.3,346a1.32,1.32,0,1,0,1.32,1.32A1.32,1.32,0,0,0,719.3,346Z" transform="translate(109.11 206.45)"/><path class="cls-23" d="M749.79,352.53H687.12V342.13h62.67Zm-61.86-.81H749v-8.78H687.93Z" transform="translate(109.11 206.45)"/></g><path class="cls-24" d="M417.66,189.19a2.73,2.73,0,0,0,2.7-2.38H439l85.52-85.52,291.09-2.77a2.06,2.06,0,1,0,.57-1.81,2,2,0,0,0-.57,1.11l-291.11,2.71-.2,0-85.6,85.6H420.36a2.73,2.73,0,1,0-2.7,3.11Z" transform="translate(109.11 206.45)"/><path class="cls-25" d="M758.68,383.38a2.12,2.12,0,0,0-2.09,1.84h-132c0,.18,0,.36,0,.54v0h132a2.11,2.11,0,1,0,2.09-2.4Z" transform="translate(109.11 206.45)"/><path class="cls-26" d="M384.48,353.14a2.73,2.73,0,0,1,2.7,2.38H405.8L456,405.85l235,2.77a2.06,2.06,0,1,1,.57,1.81,2,2,0,0,1-.57-1.11l-235-2.71-.2.05L405.5,356.24H387.18a2.73,2.73,0,1,1-2.7-3.1Z" transform="translate(109.11 206.45)"/><path class="cls-27" d="M627.6,106.81a2.05,2.05,0,0,0,.33-2.45l17.16-17.15H858.93a2.11,2.11,0,1,0,0-.56H644.86L627.6,103.9a2.06,2.06,0,1,0,0,2.91Z" transform="translate(109.11 206.45)"/><path class="cls-28" d="M661.47,414.59a2.05,2.05,0,0,0,.34-2.44L679,395H836.69a2.12,2.12,0,1,0,0-.56h-158l-17.26,17.26a2.05,2.05,0,1,0,0,2.9Z" transform="translate(109.11 206.45)"/></g><g class="cls-6"><path class="cls-29" d="M785.77,111.83a5.26,5.26,0,0,0-4.17,8.49L764,138H632.46a.59.59,0,0,0-.42.17l-45.89,45.9H556.59a5.28,5.28,0,1,0,0,1.2h29.83a.62.62,0,0,0,.43-.18l45.89-45.89H764.2a.56.56,0,0,0,.42-.18l17.82-17.82a5.22,5.22,0,0,0,3.33,1.22,5.29,5.29,0,1,0,0-10.57ZM551.35,188.6a4.08,4.08,0,1,1,4-4.52.59.59,0,0,0-.44.57.6.6,0,0,0,.42.56A4.08,4.08,0,0,1,551.35,188.6Zm234.42-67.4a4,4,0,0,1-2.73-1.07.62.62,0,0,0-.14-.25.55.55,0,0,0-.23-.14,4.06,4.06,0,0,1,3.1-6.71,4.09,4.09,0,1,1,0,8.17Z" transform="translate(109.11 206.45)"/><path class="cls-30" d="M684.75,169.57h70.06a.6.6,0,0,1,.6.6.6.6,0,0,1-.6.6H685l-18.86,18.86a.59.59,0,0,1-.42.17H645.85a.6.6,0,1,1,0-1.2h19.62l18.86-18.86A.59.59,0,0,1,684.75,169.57Z" transform="translate(109.11 206.45)"/><path class="cls-31" d="M694,183.83h60.92a.6.6,0,1,1,0,1.2H694.26l-17.34,17.34a.61.61,0,0,1-.85,0,.59.59,0,0,1,0-.85L693.58,184A.63.63,0,0,1,694,183.83Z" transform="translate(109.11 206.45)"/><path class="cls-32" d="M673.45,199.82a5.28,5.28,0,1,1-5.28,5.28A5.29,5.29,0,0,1,673.45,199.82Zm0,9.36a4.08,4.08,0,1,0-4.08-4.08A4.08,4.08,0,0,0,673.45,209.18Z" transform="translate(109.11 206.45)"/><path class="cls-33" d="M641.26,184.48a5.28,5.28,0,1,1-5.28,5.28A5.29,5.29,0,0,1,641.26,184.48Zm0,9.36a4.08,4.08,0,1,0-4.08-4.08A4.08,4.08,0,0,0,641.26,193.84Z" transform="translate(109.11 206.45)"/><path class="cls-34" d="M759.61,179.15a5.28,5.28,0,1,1-5.28,5.28A5.28,5.28,0,0,1,759.61,179.15Zm0,9.36a4.08,4.08,0,1,0-4.08-4.08A4.08,4.08,0,0,0,759.61,188.51Z" transform="translate(109.11 206.45)"/><path class="cls-35" d="M759.49,164.88a5.29,5.29,0,1,1-5.28,5.29A5.29,5.29,0,0,1,759.49,164.88Zm0,9.37a4.09,4.09,0,1,0-4.08-4.08A4.08,4.08,0,0,0,759.49,174.25Z" transform="translate(109.11 206.45)"/><path class="cls-36" d="M773,147.18a5.27,5.27,0,0,0-5.21,4.57H655a.64.64,0,0,0-.43.18l-49.29,49.26H592.36a5.28,5.28,0,1,0-.12,1.2h13.25a.56.56,0,0,0,.42-.18L655.21,153H767.75a5.27,5.27,0,1,0,5.24-5.77Zm-185.9,58.17a4.08,4.08,0,1,1,4.08-4.11.59.59,0,0,0-.37.55.61.61,0,0,0,.23.46A4.06,4.06,0,0,1,587.09,205.35ZM773,156.55a4.09,4.09,0,0,1-4.07-3.89.55.55,0,0,0,.1-.31.5.5,0,0,0-.08-.27,4.07,4.07,0,1,1,4,4.47Z" transform="translate(109.11 206.45)"/><path class="cls-37" d="M752.13,286.73a5.28,5.28,0,0,0-5.07,3.87.58.58,0,0,0-.26-.06H706.32a.63.63,0,0,0-.43.17L692.64,304H642.9a4.76,4.76,0,0,0,.06-.66,5.32,5.32,0,1,0-.35,1.86h50.28a.6.6,0,0,0,.42-.18l13.26-13.25H746.8l.07,0c0,.1,0,.19,0,.29a5.29,5.29,0,1,0,5.29-5.28ZM637.68,307.39a4.08,4.08,0,1,1,4.08-4.08,4.76,4.76,0,0,1-.06.66h-.21c-.33,0-.42,1.09-.17,1.16A4.08,4.08,0,0,1,637.68,307.39Zm114.45-11.3a4.08,4.08,0,1,1,4.08-4.08A4.09,4.09,0,0,1,752.13,296.09Z" transform="translate(109.11 206.45)"/><path class="cls-38" d="M754.05,203.37a5.29,5.29,0,0,0-5.28,5.28A5.2,5.2,0,0,0,750,212l-19.42,19.42H690L673.6,215a.63.63,0,0,0-.43-.17H540.6a.63.63,0,0,0-.43.17l-47.89,47.9h-65l-14.13-14.14a5.21,5.21,0,0,0,1.21-3.33,5.28,5.28,0,1,0-5.28,5.28,5.22,5.22,0,0,0,3.21-1.11L426.6,264a.6.6,0,0,0,.42.18h65.51A.64.64,0,0,0,493,264l47.89-47.89H672.92l16.39,16.38a.56.56,0,0,0,.42.18h41.1a.56.56,0,0,0,.42-.18l19.61-19.6a5.27,5.27,0,1,0,3.19-9.47ZM405,245.46a4.08,4.08,0,0,1,8.16,0,4,4,0,0,1-1,2.68.58.58,0,0,0-.32.16.54.54,0,0,0-.15.3,4.06,4.06,0,0,1-6.66-3.14Zm349.06-32.72a4,4,0,0,1-2.45-.85.6.6,0,0,0-.17-.47.59.59,0,0,0-.42-.18h-.08a4,4,0,0,1-1-2.6,4.08,4.08,0,1,1,4.08,4.09Z" transform="translate(109.11 206.45)"/><path class="cls-39" d="M745.32,242.35A5.26,5.26,0,0,0,740.1,247H681.61l-20.77-20.77a.59.59,0,0,0-.42-.17H578.56a.63.63,0,0,0-.43.17l-47.22,47.23H425.5a.56.56,0,0,0-.42.18l-29.87,29.86a5.22,5.22,0,0,0-3.1-1,5.34,5.34,0,1,0,4,1.85l29.66-29.66H531.16a.59.59,0,0,0,.42-.17l47.23-47.23h81.36l20.76,20.76a.6.6,0,0,0,.43.18H740.1a5.27,5.27,0,1,0,5.22-5.88ZM392.11,311.87a4.09,4.09,0,0,1,0-8.17,4,4,0,0,1,2.29.71.58.58,0,0,0,.12.66.59.59,0,0,0,.7.1,4.06,4.06,0,0,1-3.11,6.7Zm353.21-60.16a4.07,4.07,0,0,1-4-3.48h.21a.6.6,0,1,0,0-1.2h-.21a4.07,4.07,0,1,1,4,4.68Z" transform="translate(109.11 206.45)"/><path class="cls-40" d="M767.66,331.12H740.23L725.15,316a1.8,1.8,0,0,0-1.27-.53H610.69l-18.32-18.31a1.79,1.79,0,0,0-1.27-.53H463.86a1.81,1.81,0,0,0-1.28.53l-42.73,42.73a1.82,1.82,0,0,0-.42.7,5.21,5.21,0,0,0-3.52-1.37,5.28,5.28,0,1,0,5.28,5.28,5.43,5.43,0,0,0-.26-1.57,1.76,1.76,0,0,0,1.46-.49l42.21-42.21H590.35l18.32,18.32a1.8,1.8,0,0,0,1.27.53H723.13l15.08,15.08a1.81,1.81,0,0,0,1.28.53h28.17c1,0-1.15-.81-1.15-1.8S768.66,331.12,767.66,331.12ZM415.91,348.61a4.08,4.08,0,1,1,4.08-4.08A4.08,4.08,0,0,1,415.91,348.61Z" transform="translate(109.11 206.45)"/><path class="cls-41" d="M810.3,372.56a5.27,5.27,0,0,0-5.22,4.68H643L580.78,315a.6.6,0,0,0-.43-.18H467.65a.56.56,0,0,0-.42.18l-20.45,20.45a5.47,5.47,0,1,0,.89.8L467.9,316H580.1l62.27,62.27a.59.59,0,0,0,.42.17H805.08a5.27,5.27,0,1,0,5.22-5.88ZM443.78,343.85a4.08,4.08,0,1,1,0-8.16,4,4,0,0,1,2.35.75.6.6,0,0,0,.16.33.63.63,0,0,0,.42.17,4.07,4.07,0,0,1-2.93,6.91ZM810.3,381.93a4.09,4.09,0,0,1-4-3.49h.22a.6.6,0,1,0,0-1.2h-.22a4.08,4.08,0,1,1,4,4.69Z" transform="translate(109.11 206.45)"/><path class="cls-42" d="M795.14,356.89a5.26,5.26,0,0,0-5,3.81H674.22l-19-19a5.26,5.26,0,1,0-3.42,1.29,5.19,5.19,0,0,0,2.41-.61l19.36,19.36a.6.6,0,0,0,.42.18H789.88c0,.09,0,.18,0,.27a5.28,5.28,0,1,0,5.28-5.28ZM647.7,337.69a4.08,4.08,0,1,1,6.66,3.14s-1.21.4-1,.64a4.18,4.18,0,0,1-1.54.3A4.08,4.08,0,0,1,647.7,337.69Zm147.44,28.56a4.08,4.08,0,0,1-4.08-4.08,4.48,4.48,0,0,1,.06-.64.59.59,0,0,0,0-.23v0a4.08,4.08,0,1,1,4,5Z" transform="translate(109.11 206.45)"/><path class="cls-43" d="M772.34,325.46a7.46,7.46,0,1,1-7.45,7.46A7.46,7.46,0,0,1,772.34,325.46Zm1.2,11.31c2.13,0,2.65-1.73,2.65-3.85a3.85,3.85,0,1,0-7.7,0C768.49,335,771.42,336.77,773.54,336.77Z" transform="translate(109.11 206.45)"/></g><path class="cls-44" d="M310.93,216.46v.14l-69.89,0Z" transform="translate(109.11 206.45)"/><g class="cls-6"><path class="cls-45" d="M182.17,127.71a2.1,2.1,0,0,1,2.08,1.84H427l-.52.56H184.25a2.1,2.1,0,0,1-2.08,1.84,2.12,2.12,0,0,1,0-4.24Z" transform="translate(109.11 206.45)"/><path class="cls-46" d="M48.82,118.73a9.9,9.9,0,0,0,19.79.4h78.18L164,137.68a3.06,3.06,0,1,0,.6-.55l-17.48-18.8H68.61a9.9,9.9,0,0,0-19.79.4Zm9.9-9.1a9.11,9.11,0,0,1,9.08,8.7H65.93a7.23,7.23,0,1,0,0,.8H67.8a9.09,9.09,0,1,1-9.08-9.5Z" transform="translate(109.11 206.45)"/><path class="cls-47" d="M89.58,259c-4.87,7.8.67,16,8.07,16a9.92,9.92,0,0,0,9.89-9.5H133.1L150.34,284a3.06,3.06,0,0,0,.11,4c1.64,1.75,4.86,1.15,5.38-2-.31-3-3.11-3.84-4.89-2.58l-17.48-18.8H107.54c-.29-7.19-8.27-12.44-15.93-7.68A6.32,6.32,0,0,0,89.58,259Zm8.07-3a9.11,9.11,0,0,1,9.08,8.7h-1.87a7.23,7.23,0,0,0-7.21-6.83c-5.44,0-9.5,6-5.82,11.77a4.37,4.37,0,0,0,1.29,1.28c5.59,3.58,11.45-.18,11.74-5.41h1.87c-.29,6.6-7.64,11.4-14.68,7a5.6,5.6,0,0,1-1.78-1.78C85.75,263.48,90.84,256,97.65,256Zm6.4,9.51a6.41,6.41,0,0,1-6.4,6c-4.9,0-8.54-5.52-5-10.67a3.08,3.08,0,0,1,.79-.78c5-3.4,10.34-.06,10.63,4.63H99.4a1.8,1.8,0,0,0-1.75-1.4,1.83,1.83,0,1,0,1.75,2.21Z" transform="translate(109.11 206.45)"/><g class="cls-10"><rect class="cls-48" x="272.58" y="586.76" width="2.62" height="9.91"/><rect class="cls-49" x="277.85" y="586.76" width="2.62" height="9.91"/><rect class="cls-50" x="283.13" y="586.76" width="2.62" height="9.91"/><rect class="cls-51" x="288.4" y="586.76" width="2.62" height="9.91"/><rect class="cls-52" x="293.67" y="586.76" width="2.62" height="9.91"/><rect class="cls-53" x="298.94" y="586.76" width="2.62" height="9.91"/><rect class="cls-54" x="304.22" y="586.76" width="2.62" height="9.91"/><polygon class="cls-55" points="259.18 601.64 259.18 567.11 259.76 566.52 259.76 601.05 313.56 601.05 313.56 561.63 264.65 561.63 265.24 561.04 314.15 561.04 314.15 601.64 259.18 601.64"/></g><g class="cls-10"><path class="cls-56" d="M9.58,346a1.32,1.32,0,1,1-1.33,1.32A1.32,1.32,0,0,1,9.58,346Z" transform="translate(109.11 206.45)"/><path class="cls-57" d="M18,346a1.32,1.32,0,1,1-1.32,1.32A1.32,1.32,0,0,1,18,346Z" transform="translate(109.11 206.45)"/><path class="cls-58" d="M26.34,346A1.32,1.32,0,1,1,25,347.28,1.32,1.32,0,0,1,26.34,346Z" transform="translate(109.11 206.45)"/><path class="cls-59" d="M34.73,346a1.32,1.32,0,1,1-1.33,1.32A1.32,1.32,0,0,1,34.73,346Z" transform="translate(109.11 206.45)"/><path class="cls-60" d="M4.24,342.13H66.9v10.39H4.24Zm61.85.81h-61v8.78h61Z" transform="translate(109.11 206.45)"/></g><path class="cls-61" d="M336.37,189.19a2.73,2.73,0,0,1-2.7-2.38H315.05l-85.53-85.52L-61.56,98.52a2.06,2.06,0,0,1-.57,1.1,2.06,2.06,0,0,1-2.91,0,2,2,0,0,1,0-2.91,2.06,2.06,0,0,1,2.91,0,2.05,2.05,0,0,1,.57,1.11l291.1,2.71.2,0,85.61,85.6h18.32a2.73,2.73,0,1,1,2.7,3.11Z" transform="translate(109.11 206.45)"/><path class="cls-62" d="M-4.66,383.38a2.11,2.11,0,0,1,2.09,1.84h132c0,.18,0,.36,0,.54v0h-132a2.1,2.1,0,0,1-2.09,1.84,2.12,2.12,0,0,1-2.11-2.12A2.12,2.12,0,0,1-4.66,383.38Z" transform="translate(109.11 206.45)"/><path class="cls-63" d="M372.26,353.14a2.74,2.74,0,0,0-2.7,2.38H350.94l-52.87,50.33-235,2.77a2.08,2.08,0,1,0,0,.7l235-2.71.2.05,53-50.42h18.31a2.73,2.73,0,1,0,2.7-3.1Z" transform="translate(109.11 206.45)"/><path class="cls-64" d="M126.43,106.81a2.07,2.07,0,0,1-.34-2.45L108.94,87.21H-104.9A2.11,2.11,0,0,1-107,89a2.12,2.12,0,0,1-2.12-2.12A2.11,2.11,0,0,1-107,84.81a2.11,2.11,0,0,1,2.09,1.83H109.17l17.26,17.26a2.05,2.05,0,1,1,0,2.91Z" transform="translate(109.11 206.45)"/><path class="cls-65" d="M92.56,414.59a2,2,0,0,1-.34-2.44L75.06,395H-82.67a2.1,2.1,0,0,1-2.08,1.84,2.12,2.12,0,0,1-2.12-2.12,2.12,2.12,0,0,1,2.12-2.12,2.1,2.1,0,0,1,2.08,1.84h158l17.26,17.26a2.05,2.05,0,1,1,0,2.9Z" transform="translate(109.11 206.45)"/></g><g class="cls-6"><path class="cls-66" d="M-37,117.12a5.29,5.29,0,0,0,5.28,5.28,5.22,5.22,0,0,0,3.33-1.22L-10.6,139a.6.6,0,0,0,.43.18H121.31l45.9,45.89a.6.6,0,0,0,.42.18h29.83a5.32,5.32,0,1,0,0-1.2H167.88L122,138.15a.63.63,0,0,0-.43-.17H-9.92l-17.66-17.66a5.19,5.19,0,0,0,1.11-3.2,5.29,5.29,0,0,0-5.28-5.29A5.29,5.29,0,0,0-37,117.12Zm235.69,68.09a.59.59,0,0,0,.41-.56.58.58,0,0,0-.44-.57,4.06,4.06,0,1,1,0,1.13ZM-35.83,117.12A4.09,4.09,0,0,1-31.75,113a4.09,4.09,0,0,1,4.08,4.09,4,4,0,0,1-1,2.62.52.52,0,0,0-.22.14.52.52,0,0,0-.14.25,4.06,4.06,0,0,1-2.74,1.07A4.08,4.08,0,0,1-35.83,117.12Z" transform="translate(109.11 206.45)"/><path class="cls-67" d="M69.27,169.57h-70a.59.59,0,0,0-.6.6.6.6,0,0,0,.6.6H69l18.86,18.86a.63.63,0,0,0,.43.17h19.86a.6.6,0,1,0,0-1.2H88.56L69.7,169.74A.63.63,0,0,0,69.27,169.57Z" transform="translate(109.11 206.45)"/><path class="cls-68" d="M60,183.83H-.9a.6.6,0,0,0-.6.6.6.6,0,0,0,.6.6H59.77l17.34,17.34a.6.6,0,0,0,.85-.85L60.44,184A.59.59,0,0,0,60,183.83Z" transform="translate(109.11 206.45)"/><path class="cls-69" d="M85.86,205.1a5.29,5.29,0,1,1-5.28-5.28A5.29,5.29,0,0,1,85.86,205.1Zm-1.2,0a4.08,4.08,0,1,0-4.08,4.08A4.08,4.08,0,0,0,84.66,205.1Z" transform="translate(109.11 206.45)"/><path class="cls-70" d="M118.05,189.76a5.28,5.28,0,1,1-5.28-5.28A5.29,5.29,0,0,1,118.05,189.76Zm-1.2,0a4.08,4.08,0,1,0-4.08,4.08A4.08,4.08,0,0,0,116.85,189.76Z" transform="translate(109.11 206.45)"/><path class="cls-71" d="M-.3,184.43a5.29,5.29,0,0,1-5.28,5.28,5.29,5.29,0,0,1-5.29-5.28,5.28,5.28,0,0,1,5.29-5.28A5.28,5.28,0,0,1-.3,184.43Zm-1.2,0a4.08,4.08,0,0,0-4.08-4.08,4.09,4.09,0,0,0-4.09,4.08,4.09,4.09,0,0,0,4.09,4.08A4.08,4.08,0,0,0-1.5,184.43Z" transform="translate(109.11 206.45)"/><path class="cls-72" d="M-.18,170.17a5.29,5.29,0,0,1-5.29,5.28,5.29,5.29,0,0,1-5.28-5.28,5.29,5.29,0,0,1,5.28-5.29A5.29,5.29,0,0,1-.18,170.17Zm-1.2,0a4.09,4.09,0,0,0-4.09-4.09,4.09,4.09,0,0,0-4.08,4.09,4.08,4.08,0,0,0,4.08,4.08A4.09,4.09,0,0,0-1.38,170.17Z" transform="translate(109.11 206.45)"/><path class="cls-73" d="M-24.25,152.47A5.29,5.29,0,0,0-19,157.75a5.27,5.27,0,0,0,5.23-4.8H98.82l49.29,49.26a.58.58,0,0,0,.43.18h13.24a5.28,5.28,0,1,0-.12-1.2H148.78L99.49,151.93a.6.6,0,0,0-.42-.18H-13.75A5.27,5.27,0,0,0-19,147.18,5.29,5.29,0,0,0-24.25,152.47ZM163,202.25a.58.58,0,0,0,.23-.46.6.6,0,0,0-.36-.55,4.13,4.13,0,1,1,.13,1ZM-23,152.47A4.1,4.1,0,0,1-19,148.38a4.07,4.07,0,0,1,4,3.7.6.6,0,0,0-.07.27.63.63,0,0,0,.09.31A4.08,4.08,0,0,1-19,156.55,4.09,4.09,0,0,1-23,152.47Z" transform="translate(109.11 206.45)"/><path class="cls-74" d="M-3.38,292a5.28,5.28,0,1,0,10.56,0,2.85,2.85,0,0,0,0-.29l.08,0H47.46L60.71,305a.64.64,0,0,0,.43.18h50.28a5.23,5.23,0,1,0-.36-1.86,4.76,4.76,0,0,0,.07.66H61.39L48.13,290.71a.59.59,0,0,0-.42-.17H7.23a.55.55,0,0,0-.26.06,5.29,5.29,0,0,0-5.07-3.87A5.28,5.28,0,0,0-3.38,292Zm116.09,13.12c.25-.07.16-1.16-.17-1.16h-.21a3.6,3.6,0,0,1-.07-.66,4.14,4.14,0,1,1,.45,1.82ZM-2.18,292a4.08,4.08,0,1,1,4.08,4.08A4.08,4.08,0,0,1-2.18,292Z" transform="translate(109.11 206.45)"/><path class="cls-75" d="M-5.31,208.65A5.29,5.29,0,0,0,0,213.94a5.25,5.25,0,0,0,3.2-1.1l19.6,19.6a.6.6,0,0,0,.43.18H64.29a.6.6,0,0,0,.43-.18L81.1,216.06H213.18L261.07,264a.6.6,0,0,0,.42.18H327a.64.64,0,0,0,.43-.18l14.32-14.32a5.19,5.19,0,0,0,3.2,1.11,5.28,5.28,0,1,0-5.28-5.28,5.22,5.22,0,0,0,1.22,3.33l-14.14,14.14h-65L213.85,215a.59.59,0,0,0-.42-.17H80.85a.59.59,0,0,0-.42.17L64,231.42H23.45L4,212a5.26,5.26,0,0,0,1.23-3.35A5.29,5.29,0,0,0,0,203.37,5.29,5.29,0,0,0-5.31,208.65ZM345,249.54a4,4,0,0,1-2.57-.94.71.71,0,0,0-.15-.3.6.6,0,0,0-.33-.16,4.07,4.07,0,1,1,3.05,1.4ZM-4.11,208.65A4.08,4.08,0,0,1,0,204.57a4.09,4.09,0,0,1,4.09,4.08,4,4,0,0,1-1,2.6H3a.61.61,0,0,0-.43.18.56.56,0,0,0-.16.47,4,4,0,0,1-2.46.85A4.09,4.09,0,0,1-4.11,208.65Z" transform="translate(109.11 206.45)"/><path class="cls-76" d="M3.42,247.63a5.27,5.27,0,0,0,10.51.6H72.67a.56.56,0,0,0,.42-.18l20.77-20.76h81.36l47.22,47.23a.63.63,0,0,0,.43.17H328.28l29.66,29.66a5.21,5.21,0,0,0-1.31,3.44,5.33,5.33,0,1,0,2.18-4.26L329,273.67a.58.58,0,0,0-.43-.18H223.12l-47.23-47.23a.59.59,0,0,0-.42-.17H93.61a.63.63,0,0,0-.43.17L72.42,247H13.93a5.27,5.27,0,0,0-10.51.6Zm354.41,60.16a4.05,4.05,0,0,1,1-2.62.58.58,0,0,0,.69-.1.6.6,0,0,0,.13-.66,4,4,0,0,1,2.29-.71,4.09,4.09,0,1,1-4.09,4.09ZM4.62,247.63a4.08,4.08,0,0,1,8.11-.6h-.22a.6.6,0,0,0,0,1.2h.22a4.08,4.08,0,0,1-8.11-.6Z" transform="translate(109.11 206.45)"/><path class="cls-77" d="M-12.48,332.92c0,1-2.15,1.8-1.16,1.8H14.54a1.79,1.79,0,0,0,1.27-.53L30.9,319.11H144.08a1.77,1.77,0,0,0,1.27-.53l18.32-18.32H289.42l42.21,42.21a1.77,1.77,0,0,0,1.47.49,5.12,5.12,0,0,0-.27,1.57,5.29,5.29,0,1,0,5.29-5.28,5.24,5.24,0,0,0-3.53,1.37,1.79,1.79,0,0,0-.41-.7l-42.74-42.73a1.8,1.8,0,0,0-1.27-.53H162.93a1.81,1.81,0,0,0-1.28.53L143.34,315.5H30.15a1.77,1.77,0,0,0-1.27.53L13.79,331.12H-13.64C-14.63,331.12-12.48,331.92-12.48,332.92ZM334,344.53a4.09,4.09,0,1,1,4.09,4.08A4.09,4.09,0,0,1,334,344.53Z" transform="translate(109.11 206.45)"/><path class="cls-78" d="M-61.56,377.84a5.29,5.29,0,0,0,5.28,5.29,5.27,5.27,0,0,0,5.22-4.69H111.23a.63.63,0,0,0,.43-.17L173.92,316h112.2l20.23,20.23a5.2,5.2,0,1,0,.9-.8L286.8,315a.6.6,0,0,0-.43-.18H173.67a.56.56,0,0,0-.42.18L111,377.24h-162a5.26,5.26,0,0,0-5.22-4.68A5.29,5.29,0,0,0-61.56,377.84Zm367.72-38.07a4.07,4.07,0,0,1,1.15-2.83.65.65,0,0,0,.43-.17.59.59,0,0,0,.15-.33,4.08,4.08,0,1,1-1.73,3.33ZM-60.36,377.84a4.08,4.08,0,0,1,4.08-4.08,4.07,4.07,0,0,1,4,3.48h-.21a.6.6,0,0,0-.6.6.6.6,0,0,0,.6.6h.21a4.07,4.07,0,0,1-4,3.49A4.09,4.09,0,0,1-60.36,377.84Z" transform="translate(109.11 206.45)"/><path class="cls-79" d="M-46.4,362.17a5.29,5.29,0,0,0,5.29,5.28,5.29,5.29,0,0,0,5.28-5.28,2.48,2.48,0,0,0,0-.27H80.05a.64.64,0,0,0,.43-.18l19.35-19.36a5.2,5.2,0,0,0,2.42.61,5.34,5.34,0,1,0-3.43-1.29l-19,19H-36.07a5.26,5.26,0,0,0-5-3.81A5.29,5.29,0,0,0-46.4,362.17Zm148.65-20.4a4.1,4.1,0,0,1-1.54-.3c.17-.24-1-.64-1-.64a4.06,4.06,0,1,1,2.58.94ZM-45.2,362.17a4.09,4.09,0,0,1,4.09-4.08,4.07,4.07,0,0,1,4,3.18v0a.59.59,0,0,0,0,.23,3.39,3.39,0,0,1,.07.64,4.08,4.08,0,0,1-4.08,4.08A4.09,4.09,0,0,1-45.2,362.17Z" transform="translate(109.11 206.45)"/><path class="cls-80" d="M-10.87,332.92a7.46,7.46,0,0,1-7.45,7.45,7.46,7.46,0,0,1-7.45-7.45,7.46,7.46,0,0,1,7.45-7.46A7.46,7.46,0,0,1-10.87,332.92Zm-3.6,0a3.85,3.85,0,0,0-3.85-3.86,3.86,3.86,0,0,0-3.85,3.86c0,2.12.53,3.85,2.65,3.85S-14.47,335-14.47,332.92Z" transform="translate(109.11 206.45)"/></g><g class="cls-81"><rect class="cls-82" x="777.59" y="672.24" width="81.52" height="34.21"/><rect class="cls-83" x="682.09" y="672.24" width="81.52" height="34.21"/><rect class="cls-84" x="586.59" y="672.24" width="81.52" height="34.21"/><rect class="cls-85" x="491.1" y="672.24" width="81.52" height="34.21"/><rect class="cls-86" x="395.6" y="672.24" width="81.52" height="34.21"/><rect class="cls-87" x="300.1" y="672.24" width="81.52" height="34.21"/><rect class="cls-88" x="204.61" y="672.24" width="81.52" height="34.21"/><rect class="cls-89" x="109.11" y="672.24" width="81.52" height="34.21"/><rect class="cls-90" x="777.59" y="626.92" width="81.52" height="34.21"/><rect class="cls-91" x="682.09" y="626.92" width="81.52" height="34.21"/><rect class="cls-92" x="586.59" y="626.92" width="81.52" height="34.21"/><rect class="cls-93" x="491.1" y="626.92" width="81.52" height="34.21"/><rect class="cls-94" x="395.6" y="626.92" width="81.52" height="34.21"/><rect class="cls-95" x="300.1" y="626.92" width="81.52" height="34.21"/><rect class="cls-96" x="204.61" y="626.92" width="81.52" height="34.21"/><rect class="cls-97" x="109.11" y="626.92" width="81.52" height="34.21"/><rect class="cls-98" x="777.59" y="581.6" width="81.52" height="34.21"/><rect class="cls-99" x="682.09" y="581.6" width="81.52" height="34.21"/><rect class="cls-100" x="586.59" y="581.6" width="81.52" height="34.21"/><rect class="cls-101" x="491.1" y="581.6" width="81.52" height="34.21"/><rect class="cls-102" x="395.6" y="581.6" width="81.52" height="34.21"/><rect class="cls-103" x="300.1" y="581.6" width="81.52" height="34.21"/><rect class="cls-104" x="204.61" y="581.6" width="81.52" height="34.21"/><rect class="cls-105" x="109.11" y="581.6" width="81.52" height="34.21"/><rect class="cls-106" x="777.59" y="536.28" width="81.52" height="34.21"/><rect class="cls-107" x="682.09" y="536.28" width="81.52" height="34.21"/><rect class="cls-108" x="586.59" y="536.28" width="81.52" height="34.21"/><polygon class="cls-109" points="572.62 536.28 491.1 535.55 491.1 569.76 572.62 570.49 572.62 536.28"/><rect class="cls-110" x="395.6" y="536.28" width="81.52" height="34.21"/><rect class="cls-111" x="300.1" y="536.28" width="81.52" height="34.21"/><rect class="cls-112" x="204.61" y="536.28" width="81.52" height="34.21"/><rect class="cls-113" x="109.11" y="536.28" width="81.52" height="34.21"/><rect class="cls-114" x="777.59" y="490.97" width="81.52" height="34.21"/><rect class="cls-115" x="682.09" y="490.97" width="81.52" height="34.21"/><rect class="cls-116" x="586.59" y="490.97" width="81.52" height="34.21"/><rect class="cls-117" x="491.1" y="490.97" width="81.52" height="34.21"/><rect class="cls-118" x="395.6" y="490.97" width="81.52" height="34.21"/><rect class="cls-119" x="300.1" y="490.97" width="81.52" height="34.21"/><rect class="cls-120" x="204.61" y="490.97" width="81.52" height="34.21"/><rect class="cls-121" x="109.11" y="490.97" width="81.52" height="34.21"/></g><g class="cls-81"><rect class="cls-122" x="777.59" y="206.45" width="81.52" height="34.21"/><rect class="cls-123" x="682.09" y="206.45" width="81.52" height="34.21"/><rect class="cls-124" x="586.59" y="206.45" width="81.52" height="34.21"/><rect class="cls-125" x="491.1" y="206.45" width="81.52" height="34.21"/><rect class="cls-126" x="395.6" y="206.45" width="81.52" height="34.21"/><rect class="cls-127" x="300.1" y="206.45" width="81.52" height="34.21"/><rect class="cls-128" x="204.61" y="206.45" width="81.52" height="34.21"/><rect class="cls-129" x="109.11" y="206.45" width="81.52" height="34.21"/><rect class="cls-130" x="777.59" y="251.76" width="81.52" height="34.21"/><rect class="cls-131" x="682.09" y="251.76" width="81.52" height="34.21"/><rect class="cls-132" x="586.59" y="251.76" width="81.52" height="34.21"/><rect class="cls-133" x="491.1" y="251.76" width="81.52" height="34.21"/><rect class="cls-134" x="395.6" y="251.76" width="81.52" height="34.21"/><rect class="cls-135" x="300.1" y="251.76" width="81.52" height="34.21"/><rect class="cls-136" x="204.61" y="251.76" width="81.52" height="34.21"/><rect class="cls-137" x="109.11" y="251.76" width="81.52" height="34.21"/><rect class="cls-138" x="777.59" y="297.08" width="81.52" height="34.21"/><rect class="cls-139" x="682.09" y="297.08" width="81.52" height="34.21"/><rect class="cls-140" x="586.59" y="297.08" width="81.52" height="34.21"/><rect class="cls-141" x="491.1" y="297.08" width="81.52" height="34.21"/><rect class="cls-142" x="395.6" y="297.08" width="81.52" height="34.21"/><rect class="cls-143" x="300.1" y="297.08" width="81.52" height="34.21"/><rect class="cls-144" x="204.61" y="297.08" width="81.52" height="34.21"/><rect class="cls-145" x="109.11" y="297.08" width="81.52" height="34.21"/><rect class="cls-146" x="777.59" y="342.4" width="81.52" height="34.21"/><rect class="cls-147" x="682.09" y="342.4" width="81.52" height="34.21"/><rect class="cls-148" x="586.59" y="342.4" width="81.52" height="34.21"/><rect class="cls-149" x="491.1" y="342.4" width="81.52" height="34.21"/><rect class="cls-150" x="395.6" y="342.4" width="81.52" height="34.21"/><rect class="cls-151" x="300.1" y="342.4" width="81.52" height="34.21"/><rect class="cls-152" x="204.61" y="342.4" width="81.52" height="34.21"/><rect class="cls-153" x="109.11" y="342.4" width="81.52" height="34.21"/><rect class="cls-154" x="777.59" y="387.71" width="81.52" height="34.21"/><rect class="cls-155" x="682.09" y="387.71" width="81.52" height="34.21"/><rect class="cls-156" x="586.59" y="387.71" width="81.52" height="34.21"/><rect class="cls-157" x="491.1" y="387.71" width="81.52" height="34.21"/><rect class="cls-158" x="395.6" y="387.71" width="81.52" height="34.21"/><rect class="cls-159" x="300.1" y="387.71" width="81.52" height="34.21"/><rect class="cls-160" x="204.61" y="387.71" width="81.52" height="34.21"/><rect class="cls-161" x="109.11" y="387.71" width="81.52" height="34.21"/></g><circle class="cls-162" cx="485.83" cy="456.45" r="456.45"/></g></g></g></g></svg>