<svg xmlns="http://www.w3.org/2000/svg" version="1.1" xmlns:xlink="http://www.w3.org/1999/xlink" xmlns:svgjs="http://svgjs.dev/svgjs" width="1440" height="560" preserveAspectRatio="none" viewBox="0 0 1440 560">
    <g mask="url(&quot;#SvgjsMask1227&quot;)" fill="none">
        <path d="M22.06 117.33L56.7 137.33L56.7 177.33L22.06 197.33L-12.58 177.33L-12.58 137.33zM22.06 237.33L56.7 257.33L56.7 297.33L22.06 317.33L-12.58 297.33L-12.58 257.33zM22.06 477.33L56.7 497.33L56.7 537.33L22.06 557.33L-12.58 537.33L-12.58 497.33zM56.7 537.33L91.34 557.33L91.34 597.33L56.7 617.33L22.06 597.33L22.06 557.33zM125.99 57.33L160.63 77.33L160.63 117.33L125.99 137.33L91.34 117.33L91.34 77.33zM125.99 417.33L160.63 437.33L160.63 477.33L125.99 497.33L91.34 477.33L91.34 437.33zM160.63 -2.67L195.27 17.33L195.27 57.33L160.63 77.33L125.99 57.33L125.99 17.33zM160.63 357.33L195.27 377.33L195.27 417.33L160.63 437.33L125.99 417.33L125.99 377.33zM195.27 417.33L229.91 437.33L229.91 477.33L195.27 497.33L160.63 477.33L160.63 437.33zM333.84 57.33L368.48 77.33L368.48 117.33L333.84 137.33L299.2 117.33L299.2 77.33zM299.2 237.33L333.84 257.33L333.84 297.33L299.2 317.33L264.55 297.33L264.55 257.33zM299.2 357.33L333.84 377.33L333.84 417.33L299.2 437.33L264.55 417.33L264.55 377.33zM368.48 237.33L403.12 257.33L403.12 297.33L368.48 317.33L333.84 297.33L333.84 257.33zM403.12 537.33L437.76 557.33L437.76 597.33L403.12 617.33L368.48 597.33L368.48 557.33zM472.41 297.33L507.05 317.33L507.05 357.33L472.41 377.33L437.76 357.33L437.76 317.33zM576.33 -2.67L610.97 17.33L610.97 57.33L576.33 77.33L541.69 57.33L541.69 17.33zM610.97 177.33L645.62 197.33L645.62 237.33L610.97 257.33L576.33 237.33L576.33 197.33zM645.62 237.33L680.26 257.33L680.26 297.33L645.62 317.33L610.97 297.33L610.97 257.33zM645.62 357.33L680.26 377.33L680.26 417.33L645.62 437.33L610.97 417.33L610.97 377.33zM749.54 297.33L784.18 317.33L784.18 357.33L749.54 377.33L714.9 357.33L714.9 317.33zM749.54 537.33L784.18 557.33L784.18 597.33L749.54 617.33L714.9 597.33L714.9 557.33zM818.83 57.33L853.47 77.33L853.47 117.33L818.83 137.33L784.18 117.33L784.18 77.33zM784.18 477.33L818.83 497.33L818.83 537.33L784.18 557.33L749.54 537.33L749.54 497.33zM853.47 -2.67L888.11 17.33L888.11 57.33L853.47 77.33L818.83 57.33L818.83 17.33zM957.39 57.33L992.04 77.33L992.04 117.33L957.39 137.33L922.75 117.33L922.75 77.33zM922.75 237.33L957.39 257.33L957.39 297.33L922.75 317.33L888.11 297.33L888.11 257.33zM992.04 237.33L1026.68 257.33L1026.68 297.33L992.04 317.33L957.39 297.33L957.39 257.33zM1026.68 417.33L1061.32 437.33L1061.32 477.33L1026.68 497.33L992.04 477.33L992.04 437.33zM1061.32 -2.67L1095.96 17.33L1095.96 57.33L1061.32 77.33L1026.68 57.33L1026.68 17.33zM1095.96 57.33L1130.6 77.33L1130.6 117.33L1095.96 137.33L1061.32 117.33L1061.32 77.33zM1061.32 357.33L1095.96 377.33L1095.96 417.33L1061.32 437.33L1026.68 417.33L1026.68 377.33zM1165.25 177.33L1199.89 197.33L1199.89 237.33L1165.25 257.33L1130.6 237.33L1130.6 197.33zM1199.89 -2.67L1234.53 17.33L1234.53 57.33L1199.89 77.33L1165.25 57.33L1165.25 17.33zM1199.89 117.33L1234.53 137.33L1234.53 177.33L1199.89 197.33L1165.25 177.33L1165.25 137.33zM1303.81 57.33L1338.46 77.33L1338.46 117.33L1303.81 137.33L1269.17 117.33L1269.17 77.33zM1303.81 177.33L1338.46 197.33L1338.46 237.33L1303.81 257.33L1269.17 237.33L1269.17 197.33zM1303.81 537.33L1338.46 557.33L1338.46 597.33L1303.81 617.33L1269.17 597.33L1269.17 557.33zM1338.46 477.33L1373.1 497.33L1373.1 537.33L1338.46 557.33L1303.81 537.33L1303.81 497.33zM1407.74 477.33L1442.38 497.33L1442.38 537.33L1407.74 557.33L1373.1 537.33L1373.1 497.33z" stroke="rgba(0, 0, 0, 0)" stroke-width="2"></path>
        <path d="M18.06 117.33 a4 4 0 1 0 8 0 a4 4 0 1 0 -8 0zM52.7 137.33 a4 4 0 1 0 8 0 a4 4 0 1 0 -8 0zM52.7 177.33 a4 4 0 1 0 8 0 a4 4 0 1 0 -8 0zM18.06 197.33 a4 4 0 1 0 8 0 a4 4 0 1 0 -8 0zM-16.58 177.33 a4 4 0 1 0 8 0 a4 4 0 1 0 -8 0zM-16.58 137.33 a4 4 0 1 0 8 0 a4 4 0 1 0 -8 0zM18.06 237.33 a4 4 0 1 0 8 0 a4 4 0 1 0 -8 0zM52.7 257.33 a4 4 0 1 0 8 0 a4 4 0 1 0 -8 0zM52.7 297.33 a4 4 0 1 0 8 0 a4 4 0 1 0 -8 0zM18.06 317.33 a4 4 0 1 0 8 0 a4 4 0 1 0 -8 0zM-16.58 297.33 a4 4 0 1 0 8 0 a4 4 0 1 0 -8 0zM-16.58 257.33 a4 4 0 1 0 8 0 a4 4 0 1 0 -8 0zM18.06 477.33 a4 4 0 1 0 8 0 a4 4 0 1 0 -8 0zM52.7 497.33 a4 4 0 1 0 8 0 a4 4 0 1 0 -8 0zM52.7 537.33 a4 4 0 1 0 8 0 a4 4 0 1 0 -8 0zM18.06 557.33 a4 4 0 1 0 8 0 a4 4 0 1 0 -8 0zM-16.58 537.33 a4 4 0 1 0 8 0 a4 4 0 1 0 -8 0zM-16.58 497.33 a4 4 0 1 0 8 0 a4 4 0 1 0 -8 0zM87.34 557.33 a4 4 0 1 0 8 0 a4 4 0 1 0 -8 0zM87.34 597.33 a4 4 0 1 0 8 0 a4 4 0 1 0 -8 0zM52.7 617.33 a4 4 0 1 0 8 0 a4 4 0 1 0 -8 0zM18.06 597.33 a4 4 0 1 0 8 0 a4 4 0 1 0 -8 0zM121.99 57.33 a4 4 0 1 0 8 0 a4 4 0 1 0 -8 0zM156.63 77.33 a4 4 0 1 0 8 0 a4 4 0 1 0 -8 0zM156.63 117.33 a4 4 0 1 0 8 0 a4 4 0 1 0 -8 0zM121.99 137.33 a4 4 0 1 0 8 0 a4 4 0 1 0 -8 0zM87.34 117.33 a4 4 0 1 0 8 0 a4 4 0 1 0 -8 0zM87.34 77.33 a4 4 0 1 0 8 0 a4 4 0 1 0 -8 0zM121.99 417.33 a4 4 0 1 0 8 0 a4 4 0 1 0 -8 0zM156.63 437.33 a4 4 0 1 0 8 0 a4 4 0 1 0 -8 0zM156.63 477.33 a4 4 0 1 0 8 0 a4 4 0 1 0 -8 0zM121.99 497.33 a4 4 0 1 0 8 0 a4 4 0 1 0 -8 0zM87.34 477.33 a4 4 0 1 0 8 0 a4 4 0 1 0 -8 0zM87.34 437.33 a4 4 0 1 0 8 0 a4 4 0 1 0 -8 0zM156.63 -2.67 a4 4 0 1 0 8 0 a4 4 0 1 0 -8 0zM191.27 17.33 a4 4 0 1 0 8 0 a4 4 0 1 0 -8 0zM191.27 57.33 a4 4 0 1 0 8 0 a4 4 0 1 0 -8 0zM121.99 17.33 a4 4 0 1 0 8 0 a4 4 0 1 0 -8 0zM156.63 357.33 a4 4 0 1 0 8 0 a4 4 0 1 0 -8 0zM191.27 377.33 a4 4 0 1 0 8 0 a4 4 0 1 0 -8 0zM191.27 417.33 a4 4 0 1 0 8 0 a4 4 0 1 0 -8 0zM121.99 377.33 a4 4 0 1 0 8 0 a4 4 0 1 0 -8 0zM225.91 437.33 a4 4 0 1 0 8 0 a4 4 0 1 0 -8 0zM225.91 477.33 a4 4 0 1 0 8 0 a4 4 0 1 0 -8 0zM191.27 497.33 a4 4 0 1 0 8 0 a4 4 0 1 0 -8 0zM329.84 57.33 a4 4 0 1 0 8 0 a4 4 0 1 0 -8 0zM364.48 77.33 a4 4 0 1 0 8 0 a4 4 0 1 0 -8 0zM364.48 117.33 a4 4 0 1 0 8 0 a4 4 0 1 0 -8 0zM329.84 137.33 a4 4 0 1 0 8 0 a4 4 0 1 0 -8 0zM295.2 117.33 a4 4 0 1 0 8 0 a4 4 0 1 0 -8 0zM295.2 77.33 a4 4 0 1 0 8 0 a4 4 0 1 0 -8 0zM295.2 237.33 a4 4 0 1 0 8 0 a4 4 0 1 0 -8 0zM329.84 257.33 a4 4 0 1 0 8 0 a4 4 0 1 0 -8 0zM329.84 297.33 a4 4 0 1 0 8 0 a4 4 0 1 0 -8 0zM295.2 317.33 a4 4 0 1 0 8 0 a4 4 0 1 0 -8 0zM260.55 297.33 a4 4 0 1 0 8 0 a4 4 0 1 0 -8 0zM260.55 257.33 a4 4 0 1 0 8 0 a4 4 0 1 0 -8 0zM295.2 357.33 a4 4 0 1 0 8 0 a4 4 0 1 0 -8 0zM329.84 377.33 a4 4 0 1 0 8 0 a4 4 0 1 0 -8 0zM329.84 417.33 a4 4 0 1 0 8 0 a4 4 0 1 0 -8 0zM295.2 437.33 a4 4 0 1 0 8 0 a4 4 0 1 0 -8 0zM260.55 417.33 a4 4 0 1 0 8 0 a4 4 0 1 0 -8 0zM260.55 377.33 a4 4 0 1 0 8 0 a4 4 0 1 0 -8 0zM364.48 237.33 a4 4 0 1 0 8 0 a4 4 0 1 0 -8 0zM399.12 257.33 a4 4 0 1 0 8 0 a4 4 0 1 0 -8 0zM399.12 297.33 a4 4 0 1 0 8 0 a4 4 0 1 0 -8 0zM364.48 317.33 a4 4 0 1 0 8 0 a4 4 0 1 0 -8 0zM399.12 537.33 a4 4 0 1 0 8 0 a4 4 0 1 0 -8 0zM433.76 557.33 a4 4 0 1 0 8 0 a4 4 0 1 0 -8 0zM433.76 597.33 a4 4 0 1 0 8 0 a4 4 0 1 0 -8 0zM399.12 617.33 a4 4 0 1 0 8 0 a4 4 0 1 0 -8 0zM364.48 597.33 a4 4 0 1 0 8 0 a4 4 0 1 0 -8 0zM364.48 557.33 a4 4 0 1 0 8 0 a4 4 0 1 0 -8 0zM468.41 297.33 a4 4 0 1 0 8 0 a4 4 0 1 0 -8 0zM503.05 317.33 a4 4 0 1 0 8 0 a4 4 0 1 0 -8 0zM503.05 357.33 a4 4 0 1 0 8 0 a4 4 0 1 0 -8 0zM468.41 377.33 a4 4 0 1 0 8 0 a4 4 0 1 0 -8 0zM433.76 357.33 a4 4 0 1 0 8 0 a4 4 0 1 0 -8 0zM433.76 317.33 a4 4 0 1 0 8 0 a4 4 0 1 0 -8 0zM572.33 -2.67 a4 4 0 1 0 8 0 a4 4 0 1 0 -8 0zM606.97 17.33 a4 4 0 1 0 8 0 a4 4 0 1 0 -8 0zM606.97 57.33 a4 4 0 1 0 8 0 a4 4 0 1 0 -8 0zM572.33 77.33 a4 4 0 1 0 8 0 a4 4 0 1 0 -8 0zM537.69 57.33 a4 4 0 1 0 8 0 a4 4 0 1 0 -8 0zM537.69 17.33 a4 4 0 1 0 8 0 a4 4 0 1 0 -8 0zM606.97 177.33 a4 4 0 1 0 8 0 a4 4 0 1 0 -8 0zM641.62 197.33 a4 4 0 1 0 8 0 a4 4 0 1 0 -8 0zM641.62 237.33 a4 4 0 1 0 8 0 a4 4 0 1 0 -8 0zM606.97 257.33 a4 4 0 1 0 8 0 a4 4 0 1 0 -8 0zM572.33 237.33 a4 4 0 1 0 8 0 a4 4 0 1 0 -8 0zM572.33 197.33 a4 4 0 1 0 8 0 a4 4 0 1 0 -8 0zM676.26 257.33 a4 4 0 1 0 8 0 a4 4 0 1 0 -8 0zM676.26 297.33 a4 4 0 1 0 8 0 a4 4 0 1 0 -8 0zM641.62 317.33 a4 4 0 1 0 8 0 a4 4 0 1 0 -8 0zM606.97 297.33 a4 4 0 1 0 8 0 a4 4 0 1 0 -8 0zM641.62 357.33 a4 4 0 1 0 8 0 a4 4 0 1 0 -8 0zM676.26 377.33 a4 4 0 1 0 8 0 a4 4 0 1 0 -8 0zM676.26 417.33 a4 4 0 1 0 8 0 a4 4 0 1 0 -8 0zM641.62 437.33 a4 4 0 1 0 8 0 a4 4 0 1 0 -8 0zM606.97 417.33 a4 4 0 1 0 8 0 a4 4 0 1 0 -8 0zM606.97 377.33 a4 4 0 1 0 8 0 a4 4 0 1 0 -8 0zM745.54 297.33 a4 4 0 1 0 8 0 a4 4 0 1 0 -8 0zM780.18 317.33 a4 4 0 1 0 8 0 a4 4 0 1 0 -8 0zM780.18 357.33 a4 4 0 1 0 8 0 a4 4 0 1 0 -8 0zM745.54 377.33 a4 4 0 1 0 8 0 a4 4 0 1 0 -8 0zM710.9 357.33 a4 4 0 1 0 8 0 a4 4 0 1 0 -8 0zM710.9 317.33 a4 4 0 1 0 8 0 a4 4 0 1 0 -8 0zM745.54 537.33 a4 4 0 1 0 8 0 a4 4 0 1 0 -8 0zM780.18 557.33 a4 4 0 1 0 8 0 a4 4 0 1 0 -8 0zM780.18 597.33 a4 4 0 1 0 8 0 a4 4 0 1 0 -8 0zM745.54 617.33 a4 4 0 1 0 8 0 a4 4 0 1 0 -8 0zM710.9 597.33 a4 4 0 1 0 8 0 a4 4 0 1 0 -8 0zM710.9 557.33 a4 4 0 1 0 8 0 a4 4 0 1 0 -8 0zM814.83 57.33 a4 4 0 1 0 8 0 a4 4 0 1 0 -8 0zM849.47 77.33 a4 4 0 1 0 8 0 a4 4 0 1 0 -8 0zM849.47 117.33 a4 4 0 1 0 8 0 a4 4 0 1 0 -8 0zM814.83 137.33 a4 4 0 1 0 8 0 a4 4 0 1 0 -8 0zM780.18 117.33 a4 4 0 1 0 8 0 a4 4 0 1 0 -8 0zM780.18 77.33 a4 4 0 1 0 8 0 a4 4 0 1 0 -8 0zM780.18 477.33 a4 4 0 1 0 8 0 a4 4 0 1 0 -8 0zM814.83 497.33 a4 4 0 1 0 8 0 a4 4 0 1 0 -8 0zM814.83 537.33 a4 4 0 1 0 8 0 a4 4 0 1 0 -8 0zM745.54 497.33 a4 4 0 1 0 8 0 a4 4 0 1 0 -8 0zM849.47 -2.67 a4 4 0 1 0 8 0 a4 4 0 1 0 -8 0zM884.11 17.33 a4 4 0 1 0 8 0 a4 4 0 1 0 -8 0zM884.11 57.33 a4 4 0 1 0 8 0 a4 4 0 1 0 -8 0zM814.83 17.33 a4 4 0 1 0 8 0 a4 4 0 1 0 -8 0zM953.39 57.33 a4 4 0 1 0 8 0 a4 4 0 1 0 -8 0zM988.04 77.33 a4 4 0 1 0 8 0 a4 4 0 1 0 -8 0zM988.04 117.33 a4 4 0 1 0 8 0 a4 4 0 1 0 -8 0zM953.39 137.33 a4 4 0 1 0 8 0 a4 4 0 1 0 -8 0zM918.75 117.33 a4 4 0 1 0 8 0 a4 4 0 1 0 -8 0zM918.75 77.33 a4 4 0 1 0 8 0 a4 4 0 1 0 -8 0zM918.75 237.33 a4 4 0 1 0 8 0 a4 4 0 1 0 -8 0zM953.39 257.33 a4 4 0 1 0 8 0 a4 4 0 1 0 -8 0zM953.39 297.33 a4 4 0 1 0 8 0 a4 4 0 1 0 -8 0zM918.75 317.33 a4 4 0 1 0 8 0 a4 4 0 1 0 -8 0zM884.11 297.33 a4 4 0 1 0 8 0 a4 4 0 1 0 -8 0zM884.11 257.33 a4 4 0 1 0 8 0 a4 4 0 1 0 -8 0zM988.04 237.33 a4 4 0 1 0 8 0 a4 4 0 1 0 -8 0zM1022.68 257.33 a4 4 0 1 0 8 0 a4 4 0 1 0 -8 0zM1022.68 297.33 a4 4 0 1 0 8 0 a4 4 0 1 0 -8 0zM988.04 317.33 a4 4 0 1 0 8 0 a4 4 0 1 0 -8 0zM1022.68 417.33 a4 4 0 1 0 8 0 a4 4 0 1 0 -8 0zM1057.32 437.33 a4 4 0 1 0 8 0 a4 4 0 1 0 -8 0zM1057.32 477.33 a4 4 0 1 0 8 0 a4 4 0 1 0 -8 0zM1022.68 497.33 a4 4 0 1 0 8 0 a4 4 0 1 0 -8 0zM988.04 477.33 a4 4 0 1 0 8 0 a4 4 0 1 0 -8 0zM988.04 437.33 a4 4 0 1 0 8 0 a4 4 0 1 0 -8 0zM1057.32 -2.67 a4 4 0 1 0 8 0 a4 4 0 1 0 -8 0zM1091.96 17.33 a4 4 0 1 0 8 0 a4 4 0 1 0 -8 0zM1091.96 57.33 a4 4 0 1 0 8 0 a4 4 0 1 0 -8 0zM1057.32 77.33 a4 4 0 1 0 8 0 a4 4 0 1 0 -8 0zM1022.68 57.33 a4 4 0 1 0 8 0 a4 4 0 1 0 -8 0zM1022.68 17.33 a4 4 0 1 0 8 0 a4 4 0 1 0 -8 0zM1126.6 77.33 a4 4 0 1 0 8 0 a4 4 0 1 0 -8 0zM1126.6 117.33 a4 4 0 1 0 8 0 a4 4 0 1 0 -8 0zM1091.96 137.33 a4 4 0 1 0 8 0 a4 4 0 1 0 -8 0zM1057.32 117.33 a4 4 0 1 0 8 0 a4 4 0 1 0 -8 0zM1057.32 357.33 a4 4 0 1 0 8 0 a4 4 0 1 0 -8 0zM1091.96 377.33 a4 4 0 1 0 8 0 a4 4 0 1 0 -8 0zM1091.96 417.33 a4 4 0 1 0 8 0 a4 4 0 1 0 -8 0zM1022.68 377.33 a4 4 0 1 0 8 0 a4 4 0 1 0 -8 0zM1161.25 177.33 a4 4 0 1 0 8 0 a4 4 0 1 0 -8 0zM1195.89 197.33 a4 4 0 1 0 8 0 a4 4 0 1 0 -8 0zM1195.89 237.33 a4 4 0 1 0 8 0 a4 4 0 1 0 -8 0zM1161.25 257.33 a4 4 0 1 0 8 0 a4 4 0 1 0 -8 0zM1126.6 237.33 a4 4 0 1 0 8 0 a4 4 0 1 0 -8 0zM1126.6 197.33 a4 4 0 1 0 8 0 a4 4 0 1 0 -8 0zM1195.89 -2.67 a4 4 0 1 0 8 0 a4 4 0 1 0 -8 0zM1230.53 17.33 a4 4 0 1 0 8 0 a4 4 0 1 0 -8 0zM1230.53 57.33 a4 4 0 1 0 8 0 a4 4 0 1 0 -8 0zM1195.89 77.33 a4 4 0 1 0 8 0 a4 4 0 1 0 -8 0zM1161.25 57.33 a4 4 0 1 0 8 0 a4 4 0 1 0 -8 0zM1161.25 17.33 a4 4 0 1 0 8 0 a4 4 0 1 0 -8 0zM1195.89 117.33 a4 4 0 1 0 8 0 a4 4 0 1 0 -8 0zM1230.53 137.33 a4 4 0 1 0 8 0 a4 4 0 1 0 -8 0zM1230.53 177.33 a4 4 0 1 0 8 0 a4 4 0 1 0 -8 0zM1161.25 137.33 a4 4 0 1 0 8 0 a4 4 0 1 0 -8 0zM1299.81 57.33 a4 4 0 1 0 8 0 a4 4 0 1 0 -8 0zM1334.46 77.33 a4 4 0 1 0 8 0 a4 4 0 1 0 -8 0zM1334.46 117.33 a4 4 0 1 0 8 0 a4 4 0 1 0 -8 0zM1299.81 137.33 a4 4 0 1 0 8 0 a4 4 0 1 0 -8 0zM1265.17 117.33 a4 4 0 1 0 8 0 a4 4 0 1 0 -8 0zM1265.17 77.33 a4 4 0 1 0 8 0 a4 4 0 1 0 -8 0zM1299.81 177.33 a4 4 0 1 0 8 0 a4 4 0 1 0 -8 0zM1334.46 197.33 a4 4 0 1 0 8 0 a4 4 0 1 0 -8 0zM1334.46 237.33 a4 4 0 1 0 8 0 a4 4 0 1 0 -8 0zM1299.81 257.33 a4 4 0 1 0 8 0 a4 4 0 1 0 -8 0zM1265.17 237.33 a4 4 0 1 0 8 0 a4 4 0 1 0 -8 0zM1265.17 197.33 a4 4 0 1 0 8 0 a4 4 0 1 0 -8 0zM1299.81 537.33 a4 4 0 1 0 8 0 a4 4 0 1 0 -8 0zM1334.46 557.33 a4 4 0 1 0 8 0 a4 4 0 1 0 -8 0zM1334.46 597.33 a4 4 0 1 0 8 0 a4 4 0 1 0 -8 0zM1299.81 617.33 a4 4 0 1 0 8 0 a4 4 0 1 0 -8 0zM1265.17 597.33 a4 4 0 1 0 8 0 a4 4 0 1 0 -8 0zM1265.17 557.33 a4 4 0 1 0 8 0 a4 4 0 1 0 -8 0zM1334.46 477.33 a4 4 0 1 0 8 0 a4 4 0 1 0 -8 0zM1369.1 497.33 a4 4 0 1 0 8 0 a4 4 0 1 0 -8 0zM1369.1 537.33 a4 4 0 1 0 8 0 a4 4 0 1 0 -8 0zM1299.81 497.33 a4 4 0 1 0 8 0 a4 4 0 1 0 -8 0zM1403.74 477.33 a4 4 0 1 0 8 0 a4 4 0 1 0 -8 0zM1438.38 497.33 a4 4 0 1 0 8 0 a4 4 0 1 0 -8 0zM1438.38 537.33 a4 4 0 1 0 8 0 a4 4 0 1 0 -8 0zM1403.74 557.33 a4 4 0 1 0 8 0 a4 4 0 1 0 -8 0z" fill="rgba(0, 0, 0, 0)"></path>
        <path d="M126.89 69.88L193.57 108.38L193.57 185.38L126.89 223.88L60.2 185.38L60.2 108.38zM126.89 531.88L193.57 570.38L193.57 647.38L126.89 685.88L60.2 647.38L60.2 570.38zM193.57 -45.62L260.26 -7.12L260.26 69.88L193.57 108.38L126.89 69.88L126.89 -7.12zM326.94 -45.62L393.63 -7.12L393.63 69.88L326.94 108.38L260.26 69.88L260.26 -7.12zM393.63 69.88L460.32 108.38L460.32 185.38L393.63 223.88L326.94 185.38L326.94 108.38zM326.94 185.38L393.63 223.88L393.63 300.88L326.94 339.38L260.26 300.88L260.26 223.88zM393.63 300.88L460.32 339.38L460.32 416.38L393.63 454.88L326.94 416.38L326.94 339.38zM326.94 416.38L393.63 454.88L393.63 531.88L326.94 570.38L260.26 531.88L260.26 454.88zM593.69 185.38L660.37 223.88L660.37 300.88L593.69 339.38L527 300.88L527 223.88zM793.74 300.88L860.43 339.38L860.43 416.38L793.74 454.88L727.06 416.38L727.06 339.38zM793.74 531.88L860.43 570.38L860.43 647.38L793.74 685.88L727.06 647.38L727.06 570.38zM927.12 300.88L993.8 339.38L993.8 416.38L927.12 454.88L860.43 416.38L860.43 339.38zM927.12 531.88L993.8 570.38L993.8 647.38L927.12 685.88L860.43 647.38L860.43 570.38zM993.8 416.38L1060.49 454.88L1060.49 531.88L993.8 570.38L927.12 531.88L927.12 454.88zM1060.49 531.88L1127.17 570.38L1127.17 647.38L1060.49 685.88L993.8 647.38L993.8 570.38zM1127.17 -45.62L1193.86 -7.12L1193.86 69.88L1127.17 108.38L1060.49 69.88L1060.49 -7.12zM1193.86 69.88L1260.55 108.38L1260.55 185.38L1193.86 223.88L1127.17 185.38L1127.17 108.38zM1193.86 300.88L1260.55 339.38L1260.55 416.38L1193.86 454.88L1127.17 416.38L1127.17 339.38zM1127.17 416.38L1193.86 454.88L1193.86 531.88L1127.17 570.38L1060.49 531.88L1060.49 454.88zM1260.55 416.38L1327.23 454.88L1327.23 531.88L1260.55 570.38L1193.86 531.88L1193.86 454.88zM1393.92 185.38L1460.6 223.88L1460.6 300.88L1393.92 339.38L1327.23 300.88L1327.23 223.88zM1460.6 300.88L1527.29 339.38L1527.29 416.38L1460.6 454.88L1393.92 416.38L1393.92 339.38z" stroke="rgba(145, 255, 2, 0.93)" stroke-width="2"></path>
    </g>
    <defs>
        <mask id="SvgjsMask1227">
            <rect width="1440" height="560" fill="#ffffff"></rect>
        </mask>
    </defs>
</svg>