<svg xmlns="http://www.w3.org/2000/svg" xmlns:xlink="http://www.w3.org/1999/xlink" viewBox="0 0 1597.79 1185.69"><defs><style>.cls-1{fill:url(#linear-gradient);}.cls-2{isolation:isolate;}.cls-3{clip-path:url(#clip-path);}.cls-4{fill:url(#linear-gradient-3);}.cls-161,.cls-5{mix-blend-mode:overlay;}.cls-23,.cls-24,.cls-25,.cls-26,.cls-27,.cls-44,.cls-45,.cls-46,.cls-6,.cls-60,.cls-61,.cls-62,.cls-63,.cls-64,.cls-7,.cls-8,.cls-9{mix-blend-mode:color-dodge;}.cls-6{fill:url(#linear-gradient-4);}.cls-7{fill:url(#linear-gradient-5);}.cls-8{fill:url(#linear-gradient-6);}.cls-10{fill:url(#linear-gradient-7);}.cls-11{fill:url(#linear-gradient-8);}.cls-12{fill:url(#linear-gradient-9);}.cls-13{fill:url(#linear-gradient-10);}.cls-14{fill:url(#linear-gradient-11);}.cls-15{fill:url(#linear-gradient-12);}.cls-16{fill:url(#linear-gradient-13);}.cls-17{fill:url(#linear-gradient-14);}.cls-18{fill:url(#linear-gradient-15);}.cls-19{fill:url(#linear-gradient-16);}.cls-20{fill:url(#linear-gradient-17);}.cls-21{fill:url(#linear-gradient-18);}.cls-22{fill:url(#linear-gradient-19);}.cls-23{fill:url(#linear-gradient-20);}.cls-24{fill:url(#linear-gradient-21);}.cls-25{fill:url(#linear-gradient-22);}.cls-26{fill:url(#linear-gradient-23);}.cls-27{fill:url(#linear-gradient-24);}.cls-28{fill:url(#linear-gradient-25);}.cls-29{fill:url(#linear-gradient-26);}.cls-30{fill:url(#linear-gradient-27);}.cls-31{fill:url(#linear-gradient-28);}.cls-32{fill:url(#linear-gradient-29);}.cls-33{fill:url(#linear-gradient-30);}.cls-34{fill:url(#linear-gradient-31);}.cls-35{fill:url(#linear-gradient-32);}.cls-36{fill:url(#linear-gradient-33);}.cls-37{fill:url(#linear-gradient-34);}.cls-38{fill:url(#linear-gradient-35);}.cls-39{fill:url(#linear-gradient-36);}.cls-40{fill:url(#linear-gradient-37);}.cls-41{fill:url(#linear-gradient-38);}.cls-42{fill:url(#linear-gradient-39);}.cls-43{fill:url(#linear-gradient-40);}.cls-44{fill:url(#linear-gradient-41);}.cls-45{fill:url(#linear-gradient-42);}.cls-46{fill:url(#linear-gradient-43);}.cls-47{fill:url(#linear-gradient-44);}.cls-48{fill:url(#linear-gradient-45);}.cls-49{fill:url(#linear-gradient-46);}.cls-50{fill:url(#linear-gradient-47);}.cls-51{fill:url(#linear-gradient-48);}.cls-52{fill:url(#linear-gradient-49);}.cls-53{fill:url(#linear-gradient-50);}.cls-54{fill:url(#linear-gradient-51);}.cls-55{fill:url(#linear-gradient-52);}.cls-56{fill:url(#linear-gradient-53);}.cls-57{fill:url(#linear-gradient-54);}.cls-58{fill:url(#linear-gradient-55);}.cls-59{fill:url(#linear-gradient-56);}.cls-60{fill:url(#linear-gradient-57);}.cls-61{fill:url(#linear-gradient-58);}.cls-62{fill:url(#linear-gradient-59);}.cls-63{fill:url(#linear-gradient-60);}.cls-64{fill:url(#linear-gradient-61);}.cls-65{fill:url(#linear-gradient-62);}.cls-66{fill:url(#linear-gradient-63);}.cls-67{fill:url(#linear-gradient-64);}.cls-68{fill:url(#linear-gradient-65);}.cls-69{fill:url(#linear-gradient-66);}.cls-70{fill:url(#linear-gradient-67);}.cls-71{fill:url(#linear-gradient-68);}.cls-72{fill:url(#linear-gradient-69);}.cls-73{fill:url(#linear-gradient-70);}.cls-74{fill:url(#linear-gradient-71);}.cls-75{fill:url(#linear-gradient-72);}.cls-76{fill:url(#linear-gradient-73);}.cls-77{fill:url(#linear-gradient-74);}.cls-78{fill:url(#linear-gradient-75);}.cls-79{fill:url(#linear-gradient-76);}.cls-80{mix-blend-mode:screen;}.cls-81{fill:url(#linear-gradient-77);}.cls-101,.cls-104,.cls-106,.cls-108,.cls-110,.cls-111,.cls-113,.cls-116,.cls-117,.cls-122,.cls-125,.cls-128,.cls-129,.cls-132,.cls-134,.cls-139,.cls-141,.cls-144,.cls-146,.cls-148,.cls-150,.cls-151,.cls-153,.cls-156,.cls-157,.cls-82,.cls-85,.cls-88,.cls-89,.cls-92,.cls-94,.cls-99{opacity:0.35;}.cls-82{fill:url(#linear-gradient-78);}.cls-103,.cls-109,.cls-114,.cls-119,.cls-123,.cls-126,.cls-136,.cls-137,.cls-138,.cls-143,.cls-149,.cls-154,.cls-159,.cls-83,.cls-86,.cls-96,.cls-97,.cls-98{opacity:0.1;}.cls-83{fill:url(#linear-gradient-79);}.cls-100,.cls-102,.cls-105,.cls-112,.cls-115,.cls-118,.cls-124,.cls-130,.cls-135,.cls-140,.cls-142,.cls-145,.cls-152,.cls-155,.cls-158,.cls-84,.cls-90,.cls-95{opacity:0.19;}.cls-84{fill:url(#linear-gradient-80);}.cls-85{fill:url(#linear-gradient-81);}.cls-86{fill:url(#linear-gradient-82);}.cls-87{fill:url(#linear-gradient-83);}.cls-88{fill:url(#linear-gradient-84);}.cls-89{fill:url(#linear-gradient-85);}.cls-90{fill:url(#linear-gradient-86);}.cls-91{fill:url(#linear-gradient-87);}.cls-92{fill:url(#linear-gradient-88);}.cls-93{fill:url(#linear-gradient-89);}.cls-94{fill:url(#linear-gradient-90);}.cls-95{fill:url(#linear-gradient-91);}.cls-96{fill:url(#linear-gradient-92);}.cls-97{fill:url(#linear-gradient-93);}.cls-98{fill:url(#linear-gradient-94);}.cls-99{fill:url(#linear-gradient-95);}.cls-100{fill:url(#linear-gradient-96);}.cls-101{fill:url(#linear-gradient-97);}.cls-102{fill:url(#linear-gradient-98);}.cls-103{fill:url(#linear-gradient-99);}.cls-104{fill:url(#linear-gradient-100);}.cls-105{fill:url(#linear-gradient-101);}.cls-106{fill:url(#linear-gradient-102);}.cls-107{fill:url(#linear-gradient-103);}.cls-108{fill:url(#linear-gradient-104);}.cls-109{fill:url(#linear-gradient-105);}.cls-110{fill:url(#linear-gradient-106);}.cls-111{fill:url(#linear-gradient-107);}.cls-112{fill:url(#linear-gradient-108);}.cls-113{fill:url(#linear-gradient-109);}.cls-114{fill:url(#linear-gradient-110);}.cls-115{fill:url(#linear-gradient-111);}.cls-116{fill:url(#linear-gradient-112);}.cls-117{fill:url(#linear-gradient-113);}.cls-118{fill:url(#linear-gradient-114);}.cls-119{fill:url(#linear-gradient-115);}.cls-120{fill:url(#linear-gradient-116);}.cls-121{fill:url(#linear-gradient-117);}.cls-122{fill:url(#linear-gradient-118);}.cls-123{fill:url(#linear-gradient-119);}.cls-124{fill:url(#linear-gradient-120);}.cls-125{fill:url(#linear-gradient-121);}.cls-126{fill:url(#linear-gradient-122);}.cls-127{fill:url(#linear-gradient-123);}.cls-128{fill:url(#linear-gradient-124);}.cls-129{fill:url(#linear-gradient-125);}.cls-130{fill:url(#linear-gradient-126);}.cls-131{fill:url(#linear-gradient-127);}.cls-132{fill:url(#linear-gradient-128);}.cls-133{fill:url(#linear-gradient-129);}.cls-134{fill:url(#linear-gradient-130);}.cls-135{fill:url(#linear-gradient-131);}.cls-136{fill:url(#linear-gradient-132);}.cls-137{fill:url(#linear-gradient-133);}.cls-138{fill:url(#linear-gradient-134);}.cls-139{fill:url(#linear-gradient-135);}.cls-140{fill:url(#linear-gradient-136);}.cls-141{fill:url(#linear-gradient-137);}.cls-142{fill:url(#linear-gradient-138);}.cls-143{fill:url(#linear-gradient-139);}.cls-144{fill:url(#linear-gradient-140);}.cls-145{fill:url(#linear-gradient-141);}.cls-146{fill:url(#linear-gradient-142);}.cls-147{fill:url(#linear-gradient-143);}.cls-148{fill:url(#linear-gradient-144);}.cls-149{fill:url(#linear-gradient-145);}.cls-150{fill:url(#linear-gradient-146);}.cls-151{fill:url(#linear-gradient-147);}.cls-152{fill:url(#linear-gradient-148);}.cls-153{fill:url(#linear-gradient-149);}.cls-154{fill:url(#linear-gradient-150);}.cls-155{fill:url(#linear-gradient-151);}.cls-156{fill:url(#linear-gradient-152);}.cls-157{fill:url(#linear-gradient-153);}.cls-158{fill:url(#linear-gradient-154);}.cls-159{fill:url(#linear-gradient-155);}.cls-160{fill:url(#linear-gradient-156);}.cls-161{opacity:0.8;fill:url(#linear-gradient-157);}</style><linearGradient id="linear-gradient" y1="324.71" x2="1232.55" y2="324.71" gradientUnits="userSpaceOnUse"><stop offset="0" stop-color="#006837"/><stop offset="1"/></linearGradient><clipPath id="clip-path" transform="translate(179.31 268.14)"><rect class="cls-1" width="1232.55" height="649.41"/></clipPath><linearGradient id="linear-gradient-3" x1="728.18" y1="281.23" x2="843.04" y2="281.23" xlink:href="#linear-gradient"/><linearGradient id="linear-gradient-4" x1="537.44" y1="168.63" x2="943.28" y2="168.63" xlink:href="#linear-gradient"/><linearGradient id="linear-gradient-5" x1="960.75" y1="163.31" x2="1158.94" y2="163.31" xlink:href="#linear-gradient"/><linearGradient id="linear-gradient-6" x1="983.07" y1="353.35" x2="1094.97" y2="353.35" xlink:href="#linear-gradient"/><linearGradient id="linear-gradient-7" x1="1145.52" y1="768.54" x2="1149.83" y2="768.54" xlink:href="#linear-gradient"/><linearGradient id="linear-gradient-8" x1="1136.85" y1="768.54" x2="1141.16" y2="768.54" xlink:href="#linear-gradient"/><linearGradient id="linear-gradient-9" x1="1128.19" y1="768.54" x2="1132.5" y2="768.54" xlink:href="#linear-gradient"/><linearGradient id="linear-gradient-10" x1="1119.52" y1="768.54" x2="1123.83" y2="768.54" xlink:href="#linear-gradient"/><linearGradient id="linear-gradient-11" x1="1110.86" y1="768.54" x2="1115.17" y2="768.54" xlink:href="#linear-gradient"/><linearGradient id="linear-gradient-12" x1="1102.19" y1="768.54" x2="1106.51" y2="768.54" xlink:href="#linear-gradient"/><linearGradient id="linear-gradient-13" x1="1093.53" y1="768.54" x2="1097.84" y2="768.54" xlink:href="#linear-gradient"/><linearGradient id="linear-gradient-14" x1="1081.52" y1="755.06" x2="1171.86" y2="755.06" xlink:href="#linear-gradient"/><linearGradient id="linear-gradient-15" x1="1221.26" y1="451.06" x2="1225.6" y2="451.06" xlink:href="#linear-gradient"/><linearGradient id="linear-gradient-16" x1="1207.48" y1="451.06" x2="1211.83" y2="451.06" xlink:href="#linear-gradient"/><linearGradient id="linear-gradient-17" x1="1193.7" y1="451.06" x2="1198.05" y2="451.06" xlink:href="#linear-gradient"/><linearGradient id="linear-gradient-18" x1="1179.93" y1="451.06" x2="1184.27" y2="451.06" xlink:href="#linear-gradient"/><linearGradient id="linear-gradient-19" x1="1129.22" y1="451.12" x2="1232.2" y2="451.12" xlink:href="#linear-gradient"/><linearGradient id="linear-gradient-20" x1="681.88" y1="185.27" x2="1347.05" y2="185.27" xlink:href="#linear-gradient"/><linearGradient id="linear-gradient-21" x1="1026.49" y1="500.7" x2="1250.3" y2="500.7" xlink:href="#linear-gradient"/><linearGradient id="linear-gradient-22" x1="627.36" y1="496.27" x2="1142.18" y2="496.27" xlink:href="#linear-gradient"/><linearGradient id="linear-gradient-23" x1="1025.64" y1="124.83" x2="1418.48" y2="124.83" xlink:href="#linear-gradient"/><linearGradient id="linear-gradient-24" x1="1081.3" y1="524.59" x2="1381.93" y2="524.59" xlink:href="#linear-gradient"/><linearGradient id="linear-gradient-25" x1="897.41" y1="195.89" x2="1300.02" y2="195.89" xlink:href="#linear-gradient"/><linearGradient id="linear-gradient-26" x1="1060.41" y1="233.38" x2="1241.44" y2="233.38" xlink:href="#linear-gradient"/><linearGradient id="linear-gradient-27" x1="1110.77" y1="250.91" x2="1241.63" y2="250.91" xlink:href="#linear-gradient"/><linearGradient id="linear-gradient-28" x1="1098.06" y1="266.39" x2="1115.43" y2="266.39" xlink:href="#linear-gradient"/><linearGradient id="linear-gradient-29" x1="1045.16" y1="246.46" x2="1062.53" y2="246.46" xlink:href="#linear-gradient"/><linearGradient id="linear-gradient-30" x1="1239.66" y1="239.54" x2="1257.02" y2="239.54" xlink:href="#linear-gradient"/><linearGradient id="linear-gradient-31" x1="1239.47" y1="221.02" x2="1256.83" y2="221.02" xlink:href="#linear-gradient"/><linearGradient id="linear-gradient-32" x1="956.14" y1="229.72" x2="1279.01" y2="229.72" xlink:href="#linear-gradient"/><linearGradient id="linear-gradient-33" x1="1039.29" y1="386.61" x2="1244.73" y2="386.61" xlink:href="#linear-gradient"/><linearGradient id="linear-gradient-34" x1="663.59" y1="303.6" x2="1247.89" y2="303.6" xlink:href="#linear-gradient"/><linearGradient id="linear-gradient-35" x1="635.71" y1="350.14" x2="1233.54" y2="350.14" xlink:href="#linear-gradient"/><linearGradient id="linear-gradient-36" x1="674.82" y1="419.83" x2="1262.01" y2="419.83" xlink:href="#linear-gradient"/><linearGradient id="linear-gradient-37" x1="720.63" y1="453.24" x2="1340.34" y2="453.24" xlink:href="#linear-gradient"/><linearGradient id="linear-gradient-38" x1="1062.45" y1="454.5" x2="1315.42" y2="454.5" xlink:href="#linear-gradient"/><linearGradient id="linear-gradient-39" x1="1257.02" y1="432.4" x2="1281.52" y2="432.4" xlink:href="#linear-gradient"/><linearGradient id="linear-gradient-40" x1="396.12" y1="281.23" x2="510.99" y2="281.23" xlink:href="#linear-gradient"/><linearGradient id="linear-gradient-41" x1="295.89" y1="168.63" x2="701.73" y2="168.63" xlink:href="#linear-gradient"/><linearGradient id="linear-gradient-42" x1="80.22" y1="163.31" x2="278.42" y2="163.31" xlink:href="#linear-gradient"/><linearGradient id="linear-gradient-43" x1="144.2" y1="353.35" x2="256.1" y2="353.35" xlink:href="#linear-gradient"/><linearGradient id="linear-gradient-44" x1="447.96" y1="768.54" x2="452.27" y2="768.54" xlink:href="#linear-gradient"/><linearGradient id="linear-gradient-45" x1="456.63" y1="768.54" x2="460.94" y2="768.54" xlink:href="#linear-gradient"/><linearGradient id="linear-gradient-46" x1="465.29" y1="768.54" x2="469.6" y2="768.54" xlink:href="#linear-gradient"/><linearGradient id="linear-gradient-47" x1="473.96" y1="768.54" x2="478.27" y2="768.54" xlink:href="#linear-gradient"/><linearGradient id="linear-gradient-48" x1="482.62" y1="768.54" x2="486.93" y2="768.54" xlink:href="#linear-gradient"/><linearGradient id="linear-gradient-49" x1="491.28" y1="768.54" x2="495.6" y2="768.54" xlink:href="#linear-gradient"/><linearGradient id="linear-gradient-50" x1="499.95" y1="768.54" x2="504.26" y2="768.54" xlink:href="#linear-gradient"/><linearGradient id="linear-gradient-51" x1="425.93" y1="755.06" x2="516.27" y2="755.06" xlink:href="#linear-gradient"/><linearGradient id="linear-gradient-52" x1="13.56" y1="451.06" x2="17.91" y2="451.06" xlink:href="#linear-gradient"/><linearGradient id="linear-gradient-53" x1="27.34" y1="451.06" x2="31.69" y2="451.06" xlink:href="#linear-gradient"/><linearGradient id="linear-gradient-54" x1="41.12" y1="451.06" x2="45.46" y2="451.06" xlink:href="#linear-gradient"/><linearGradient id="linear-gradient-55" x1="54.9" y1="451.06" x2="59.24" y2="451.06" xlink:href="#linear-gradient"/><linearGradient id="linear-gradient-56" x1="6.97" y1="451.12" x2="109.95" y2="451.12" xlink:href="#linear-gradient"/><linearGradient id="linear-gradient-57" x1="-107.88" y1="185.27" x2="557.28" y2="185.27" xlink:href="#linear-gradient"/><linearGradient id="linear-gradient-58" x1="-11.13" y1="500.7" x2="212.68" y2="500.7" xlink:href="#linear-gradient"/><linearGradient id="linear-gradient-59" x1="96.99" y1="496.27" x2="616.28" y2="496.27" xlink:href="#linear-gradient"/><linearGradient id="linear-gradient-60" x1="-179.31" y1="124.83" x2="213.53" y2="124.83" xlink:href="#linear-gradient"/><linearGradient id="linear-gradient-61" x1="-142.77" y1="524.59" x2="157.87" y2="524.59" xlink:href="#linear-gradient"/><linearGradient id="linear-gradient-62" x1="-60.86" y1="195.89" x2="341.75" y2="195.89" xlink:href="#linear-gradient"/><linearGradient id="linear-gradient-63" x1="-2.27" y1="233.38" x2="178.76" y2="233.38" xlink:href="#linear-gradient"/><linearGradient id="linear-gradient-64" x1="-2.47" y1="250.91" x2="128.4" y2="250.91" xlink:href="#linear-gradient"/><linearGradient id="linear-gradient-65" x1="123.74" y1="266.39" x2="141.1" y2="266.39" xlink:href="#linear-gradient"/><linearGradient id="linear-gradient-66" x1="176.64" y1="246.46" x2="194" y2="246.46" xlink:href="#linear-gradient"/><linearGradient id="linear-gradient-67" x1="-17.86" y1="239.54" x2="-0.49" y2="239.54" xlink:href="#linear-gradient"/><linearGradient id="linear-gradient-68" x1="-17.67" y1="221.02" x2="-0.3" y2="221.02" xlink:href="#linear-gradient"/><linearGradient id="linear-gradient-69" x1="-39.85" y1="229.72" x2="283.03" y2="229.72" xlink:href="#linear-gradient"/><linearGradient id="linear-gradient-70" x1="-5.56" y1="386.61" x2="199.88" y2="386.61" xlink:href="#linear-gradient"/><linearGradient id="linear-gradient-71" x1="-8.73" y1="303.6" x2="575.58" y2="303.6" xlink:href="#linear-gradient"/><linearGradient id="linear-gradient-72" x1="5.62" y1="350.14" x2="603.46" y2="350.14" xlink:href="#linear-gradient"/><linearGradient id="linear-gradient-73" x1="-22.84" y1="419.83" x2="564.34" y2="419.83" xlink:href="#linear-gradient"/><linearGradient id="linear-gradient-74" x1="-101.17" y1="453.24" x2="518.54" y2="453.24" xlink:href="#linear-gradient"/><linearGradient id="linear-gradient-75" x1="-76.25" y1="454.5" x2="176.72" y2="454.5" xlink:href="#linear-gradient"/><linearGradient id="linear-gradient-76" x1="-42.35" y1="432.4" x2="-17.86" y2="432.4" xlink:href="#linear-gradient"/><linearGradient id="linear-gradient-77" x1="1277.89" y1="895.34" x2="1411.86" y2="895.34" xlink:href="#linear-gradient"/><linearGradient id="linear-gradient-78" x1="1120.95" y1="895.34" x2="1254.92" y2="895.34" xlink:href="#linear-gradient"/><linearGradient id="linear-gradient-79" x1="964.01" y1="895.34" x2="1097.98" y2="895.34" xlink:href="#linear-gradient"/><linearGradient id="linear-gradient-80" x1="807.07" y1="895.34" x2="941.04" y2="895.34" xlink:href="#linear-gradient"/><linearGradient id="linear-gradient-81" x1="650.13" y1="895.34" x2="784.1" y2="895.34" xlink:href="#linear-gradient"/><linearGradient id="linear-gradient-82" x1="493.19" y1="895.34" x2="627.16" y2="895.34" xlink:href="#linear-gradient"/><linearGradient id="linear-gradient-83" x1="336.25" y1="895.34" x2="470.22" y2="895.34" xlink:href="#linear-gradient"/><linearGradient id="linear-gradient-84" x1="179.31" y1="895.34" x2="313.28" y2="895.34" xlink:href="#linear-gradient"/><linearGradient id="linear-gradient-85" x1="1277.89" y1="836.48" x2="1411.86" y2="836.48" xlink:href="#linear-gradient"/><linearGradient id="linear-gradient-86" x1="1120.95" y1="836.48" x2="1254.92" y2="836.48" xlink:href="#linear-gradient"/><linearGradient id="linear-gradient-87" x1="964.01" y1="836.48" x2="1097.98" y2="836.48" xlink:href="#linear-gradient"/><linearGradient id="linear-gradient-88" x1="807.07" y1="836.48" x2="941.04" y2="836.48" xlink:href="#linear-gradient"/><linearGradient id="linear-gradient-89" x1="650.13" y1="836.48" x2="784.1" y2="836.48" xlink:href="#linear-gradient"/><linearGradient id="linear-gradient-90" x1="493.19" y1="836.48" x2="627.16" y2="836.48" xlink:href="#linear-gradient"/><linearGradient id="linear-gradient-91" x1="336.25" y1="836.48" x2="470.22" y2="836.48" xlink:href="#linear-gradient"/><linearGradient id="linear-gradient-92" x1="179.31" y1="836.48" x2="313.28" y2="836.48" xlink:href="#linear-gradient"/><linearGradient id="linear-gradient-93" x1="1277.89" y1="777.62" x2="1411.86" y2="777.62" xlink:href="#linear-gradient"/><linearGradient id="linear-gradient-94" x1="1120.95" y1="777.62" x2="1254.92" y2="777.62" xlink:href="#linear-gradient"/><linearGradient id="linear-gradient-95" x1="964.01" y1="777.62" x2="1097.98" y2="777.62" xlink:href="#linear-gradient"/><linearGradient id="linear-gradient-96" x1="807.07" y1="777.62" x2="941.04" y2="777.62" xlink:href="#linear-gradient"/><linearGradient id="linear-gradient-97" x1="650.13" y1="777.62" x2="784.1" y2="777.62" xlink:href="#linear-gradient"/><linearGradient id="linear-gradient-98" x1="493.19" y1="777.62" x2="627.16" y2="777.62" xlink:href="#linear-gradient"/><linearGradient id="linear-gradient-99" x1="336.25" y1="777.62" x2="470.22" y2="777.62" xlink:href="#linear-gradient"/><linearGradient id="linear-gradient-100" x1="179.31" y1="777.62" x2="313.28" y2="777.62" xlink:href="#linear-gradient"/><linearGradient id="linear-gradient-101" x1="1277.89" y1="718.76" x2="1411.86" y2="718.76" xlink:href="#linear-gradient"/><linearGradient id="linear-gradient-102" x1="1120.95" y1="718.76" x2="1254.92" y2="718.76" xlink:href="#linear-gradient"/><linearGradient id="linear-gradient-103" x1="964.01" y1="718.76" x2="1097.98" y2="718.76" xlink:href="#linear-gradient"/><linearGradient id="linear-gradient-104" x1="807.07" y1="718.28" x2="941.04" y2="718.28" xlink:href="#linear-gradient"/><linearGradient id="linear-gradient-105" x1="650.13" y1="718.76" x2="784.1" y2="718.76" xlink:href="#linear-gradient"/><linearGradient id="linear-gradient-106" x1="493.19" y1="718.76" x2="627.16" y2="718.76" xlink:href="#linear-gradient"/><linearGradient id="linear-gradient-107" x1="336.25" y1="718.76" x2="470.22" y2="718.76" xlink:href="#linear-gradient"/><linearGradient id="linear-gradient-108" x1="179.31" y1="718.76" x2="313.28" y2="718.76" xlink:href="#linear-gradient"/><linearGradient id="linear-gradient-109" x1="1277.89" y1="659.9" x2="1411.86" y2="659.9" xlink:href="#linear-gradient"/><linearGradient id="linear-gradient-110" x1="1120.95" y1="659.9" x2="1254.92" y2="659.9" xlink:href="#linear-gradient"/><linearGradient id="linear-gradient-111" x1="964.01" y1="659.9" x2="1097.98" y2="659.9" xlink:href="#linear-gradient"/><linearGradient id="linear-gradient-112" x1="807.07" y1="659.9" x2="941.04" y2="659.9" xlink:href="#linear-gradient"/><linearGradient id="linear-gradient-113" x1="650.13" y1="659.9" x2="784.1" y2="659.9" xlink:href="#linear-gradient"/><linearGradient id="linear-gradient-114" x1="493.19" y1="659.9" x2="627.16" y2="659.9" xlink:href="#linear-gradient"/><linearGradient id="linear-gradient-115" x1="336.25" y1="659.9" x2="470.22" y2="659.9" xlink:href="#linear-gradient"/><linearGradient id="linear-gradient-116" x1="179.31" y1="659.9" x2="313.28" y2="659.9" xlink:href="#linear-gradient"/><linearGradient id="linear-gradient-117" x1="1277.89" y1="290.35" x2="1411.86" y2="290.35" xlink:href="#linear-gradient"/><linearGradient id="linear-gradient-118" x1="1120.95" y1="290.35" x2="1254.92" y2="290.35" xlink:href="#linear-gradient"/><linearGradient id="linear-gradient-119" x1="964.01" y1="290.35" x2="1097.98" y2="290.35" xlink:href="#linear-gradient"/><linearGradient id="linear-gradient-120" x1="807.07" y1="290.35" x2="941.04" y2="290.35" xlink:href="#linear-gradient"/><linearGradient id="linear-gradient-121" x1="650.13" y1="290.35" x2="784.1" y2="290.35" xlink:href="#linear-gradient"/><linearGradient id="linear-gradient-122" x1="493.19" y1="290.35" x2="627.16" y2="290.35" xlink:href="#linear-gradient"/><linearGradient id="linear-gradient-123" x1="336.25" y1="290.35" x2="470.22" y2="290.35" xlink:href="#linear-gradient"/><linearGradient id="linear-gradient-124" x1="179.31" y1="290.35" x2="313.28" y2="290.35" xlink:href="#linear-gradient"/><linearGradient id="linear-gradient-125" x1="1277.89" y1="349.21" x2="1411.86" y2="349.21" xlink:href="#linear-gradient"/><linearGradient id="linear-gradient-126" x1="1120.95" y1="349.21" x2="1254.92" y2="349.21" xlink:href="#linear-gradient"/><linearGradient id="linear-gradient-127" x1="964.01" y1="349.21" x2="1097.98" y2="349.21" xlink:href="#linear-gradient"/><linearGradient id="linear-gradient-128" x1="807.07" y1="349.21" x2="941.04" y2="349.21" xlink:href="#linear-gradient"/><linearGradient id="linear-gradient-129" x1="650.13" y1="349.21" x2="784.1" y2="349.21" xlink:href="#linear-gradient"/><linearGradient id="linear-gradient-130" x1="493.19" y1="349.21" x2="627.16" y2="349.21" xlink:href="#linear-gradient"/><linearGradient id="linear-gradient-131" x1="336.25" y1="349.21" x2="470.22" y2="349.21" xlink:href="#linear-gradient"/><linearGradient id="linear-gradient-132" x1="179.31" y1="349.21" x2="313.28" y2="349.21" xlink:href="#linear-gradient"/><linearGradient id="linear-gradient-133" x1="1277.89" y1="408.07" x2="1411.86" y2="408.07" xlink:href="#linear-gradient"/><linearGradient id="linear-gradient-134" x1="1120.95" y1="408.07" x2="1254.92" y2="408.07" xlink:href="#linear-gradient"/><linearGradient id="linear-gradient-135" x1="964.01" y1="408.07" x2="1097.98" y2="408.07" xlink:href="#linear-gradient"/><linearGradient id="linear-gradient-136" x1="807.07" y1="408.07" x2="941.04" y2="408.07" xlink:href="#linear-gradient"/><linearGradient id="linear-gradient-137" x1="650.13" y1="408.07" x2="784.1" y2="408.07" xlink:href="#linear-gradient"/><linearGradient id="linear-gradient-138" x1="493.19" y1="408.07" x2="627.16" y2="408.07" xlink:href="#linear-gradient"/><linearGradient id="linear-gradient-139" x1="336.25" y1="408.07" x2="470.22" y2="408.07" xlink:href="#linear-gradient"/><linearGradient id="linear-gradient-140" x1="179.31" y1="408.07" x2="313.28" y2="408.07" xlink:href="#linear-gradient"/><linearGradient id="linear-gradient-141" x1="1277.89" y1="466.93" x2="1411.86" y2="466.93" xlink:href="#linear-gradient"/><linearGradient id="linear-gradient-142" x1="1120.95" y1="466.93" x2="1254.92" y2="466.93" xlink:href="#linear-gradient"/><linearGradient id="linear-gradient-143" x1="964.01" y1="466.93" x2="1097.98" y2="466.93" xlink:href="#linear-gradient"/><linearGradient id="linear-gradient-144" x1="807.07" y1="466.93" x2="941.04" y2="466.93" xlink:href="#linear-gradient"/><linearGradient id="linear-gradient-145" x1="650.13" y1="466.93" x2="784.1" y2="466.93" xlink:href="#linear-gradient"/><linearGradient id="linear-gradient-146" x1="493.19" y1="466.93" x2="627.16" y2="466.93" xlink:href="#linear-gradient"/><linearGradient id="linear-gradient-147" x1="336.25" y1="466.93" x2="470.22" y2="466.93" xlink:href="#linear-gradient"/><linearGradient id="linear-gradient-148" x1="179.31" y1="466.93" x2="313.28" y2="466.93" xlink:href="#linear-gradient"/><linearGradient id="linear-gradient-149" x1="1277.89" y1="525.79" x2="1411.86" y2="525.79" xlink:href="#linear-gradient"/><linearGradient id="linear-gradient-150" x1="1120.95" y1="525.79" x2="1254.92" y2="525.79" xlink:href="#linear-gradient"/><linearGradient id="linear-gradient-151" x1="964.01" y1="525.79" x2="1097.98" y2="525.79" xlink:href="#linear-gradient"/><linearGradient id="linear-gradient-152" x1="807.07" y1="525.79" x2="941.04" y2="525.79" xlink:href="#linear-gradient"/><linearGradient id="linear-gradient-153" x1="650.13" y1="525.79" x2="784.1" y2="525.79" xlink:href="#linear-gradient"/><linearGradient id="linear-gradient-154" x1="493.19" y1="525.79" x2="627.16" y2="525.79" xlink:href="#linear-gradient"/><linearGradient id="linear-gradient-155" x1="336.25" y1="525.79" x2="470.22" y2="525.79" xlink:href="#linear-gradient"/><linearGradient id="linear-gradient-156" x1="179.31" y1="525.79" x2="313.28" y2="525.79" xlink:href="#linear-gradient"/><linearGradient id="linear-gradient-157" x1="71.04" y1="219.5" x2="960.13" y2="219.5" gradientTransform="translate(-71.57 222.46) scale(1.69)" xlink:href="#linear-gradient"/></defs><g class="cls-2"><g id="Layer_2" data-name="Layer 2"><g id="BACKGROUND"><rect class="cls-1" x="179.31" y="268.14" width="1232.55" height="649.41"/><g class="cls-3"><path class="cls-4" d="M728.18,281.14c0,.06,0,.12,0,.19L843,281.28Z" transform="translate(179.31 268.14)"/><g class="cls-5"><path class="cls-6" d="M939.8,165.87a3.31,3.31,0,0,0-3.44,2.39H537.44l.85.73H936.36a3.3,3.3,0,0,0,3.44,2.39c1.92,0,3.48-1.24,3.48-2.75S941.72,165.87,939.8,165.87Z" transform="translate(179.31 268.14)"/><path class="cls-7" d="M1142.66,141.34c-8.75,0-15.89,5.49-16.25,12.34H997.35l-28.73,24.43a6,6,0,0,0-6.53.52,3.41,3.41,0,0,0,.25,5.59,6,6,0,0,0,7.07-.21,3.35,3.35,0,0,0,.18-5.19l28.33-24.08h128.49c.36,6.85,7.5,12.34,16.25,12.34,9,0,16.28-5.77,16.28-12.87S1151.64,141.34,1142.66,141.34Zm14.95,12.87c0,6.52-6.7,11.82-14.95,11.82-8,0-14.57-5-14.92-11.29h3.07c.35,4.93,5.52,8.86,11.85,8.86,6.56,0,11.89-4.21,11.89-9.39s-5.33-9.39-11.89-9.39c-6.33,0-11.5,3.93-11.85,8.86h-3.07c.35-6.27,6.9-11.29,14.92-11.29C1150.91,142.39,1157.61,147.69,1157.61,154.21Z" transform="translate(179.31 268.14)"/><path class="cls-8" d="M1088.62,333.76c-12.6-6.18-25.7.63-26.18,10h-42.59l-28.73,24.42c-2.94-1.64-7.53-.5-8,3.35.87,4.05,6.16,4.84,8.84,2.56a3.35,3.35,0,0,0,.18-5.19l28.33-24.09h42c.35,6.85,7.49,12.34,16.25,12.34,12.17,0,21.26-10.6,13.26-20.74A9.71,9.71,0,0,0,1088.62,333.76Zm2.2,17.78a8.58,8.58,0,0,1-2.93,2.31c-11.58,5.74-23.64-.49-24.12-9.07h3.07c.48,6.79,10.1,11.69,19.29,7a6.45,6.45,0,0,0,2.12-1.67c6-7.44-.62-15.29-9.56-15.29-6.33,0-11.5,3.94-11.85,8.87h-3.07c.35-6.27,6.9-11.29,14.92-11.29C1089.89,332.44,1098.25,342.22,1090.82,351.54Zm-15-6.76c.45,1.55,2.84,2.52,5,1.19,1.88-1.92.17-4.06-2.16-4.06a2.89,2.89,0,0,0-2.88,1.82h-7.64c.48-6.09,9.23-10.43,17.48-6a4.52,4.52,0,0,1,1.29,1c5.78,6.69-.2,13.86-8.25,13.86-5.6,0-10.18-3.46-10.52-7.82Z" transform="translate(179.31 268.14)"/><g class="cls-9"><rect class="cls-10" x="1145.52" y="762.1" width="4.31" height="12.87"/><rect class="cls-11" x="1136.85" y="762.1" width="4.31" height="12.87"/><rect class="cls-12" x="1128.19" y="762.1" width="4.31" height="12.87"/><rect class="cls-13" x="1119.52" y="762.1" width="4.31" height="12.87"/><rect class="cls-14" x="1110.86" y="762.1" width="4.31" height="12.87"/><rect class="cls-15" x="1102.19" y="762.1" width="4.31" height="12.87"/><rect class="cls-16" x="1093.53" y="762.1" width="4.31" height="12.87"/><polygon class="cls-17" points="1171.86 781.43 1171.86 736.58 1170.9 735.82 1170.9 780.66 1082.48 780.66 1082.48 729.46 1162.86 729.46 1161.89 728.7 1081.52 728.7 1081.52 781.43 1171.86 781.43"/></g><g class="cls-9"><path class="cls-18" d="M1223.43,449.34a1.77,1.77,0,1,0,2.17,1.72A2,2,0,0,0,1223.43,449.34Z" transform="translate(179.31 268.14)"/><path class="cls-19" d="M1209.65,449.34a1.77,1.77,0,1,0,2.18,1.72A2,2,0,0,0,1209.65,449.34Z" transform="translate(179.31 268.14)"/><path class="cls-20" d="M1195.88,449.34a1.77,1.77,0,1,0,2.17,1.72A2,2,0,0,0,1195.88,449.34Z" transform="translate(179.31 268.14)"/><path class="cls-21" d="M1182.1,449.34a1.77,1.77,0,1,0,2.17,1.72A2,2,0,0,0,1182.1,449.34Z" transform="translate(179.31 268.14)"/><path class="cls-22" d="M1232.2,457.87h-103v-13.5h103Zm-101.65-1.05h100.32v-11.4H1130.55Z" transform="translate(179.31 268.14)"/></g><path class="cls-23" d="M686.38,245.72c2.28,0,4.14-1.35,4.44-3.08h30.6L862,131.56l478.37-3.6a2.54,2.54,0,0,0,.93,1.43,4.07,4.07,0,0,0,4.79,0,2.3,2.3,0,0,0,0-3.78,4.05,4.05,0,0,0-4.79,0,2.48,2.48,0,0,0-.93,1.44l-478.4,3.52-.33-.06L720.92,241.69h-30.1c-.3-1.73-2.16-3.08-4.44-3.08-2.48,0-4.5,1.59-4.5,3.56S683.9,245.72,686.38,245.72Z" transform="translate(179.31 268.14)"/><path class="cls-24" d="M1246.82,498a3.3,3.3,0,0,0-3.44,2.39H1026.49c0,.23,0,.46,0,.69v0h216.87a3.3,3.3,0,0,0,3.44,2.38c1.92,0,3.48-1.23,3.48-2.75S1248.74,498,1246.82,498Z" transform="translate(179.31 268.14)"/><path class="cls-25" d="M631.86,458.67c2.28,0,4.14,1.35,4.43,3.09h30.6l82.42,65.37,386.16,3.6a2.56,2.56,0,0,1,.94-1.43,4.05,4.05,0,0,1,4.78,0,2.3,2.3,0,0,1,0,3.78,4,4,0,0,1-4.78,0,2.5,2.5,0,0,1-.94-1.44l-386.19-3.52-.33.06L666.4,462.7H636.29c-.29,1.74-2.15,3.08-4.43,3.08-2.49,0-4.5-1.59-4.5-3.55S629.37,458.67,631.86,458.67Z" transform="translate(179.31 268.14)"/><path class="cls-26" d="M1031.4,138.72a2.26,2.26,0,0,0,.55-3.17l28.19-22.28h351.42a3.3,3.3,0,0,0,3.44,2.39c1.92,0,3.48-1.23,3.48-2.75s-1.56-2.75-3.48-2.75a3.3,3.3,0,0,0-3.44,2.38h-351.8L1031.4,135a4.05,4.05,0,0,0-4.78,0,2.3,2.3,0,0,0,0,3.77A4.05,4.05,0,0,0,1031.4,138.72Z" transform="translate(179.31 268.14)"/><path class="cls-27" d="M1087.06,538.49a2.26,2.26,0,0,0,.55-3.18l28.2-22.28H1375a3.3,3.3,0,0,0,3.43,2.38c1.93,0,3.48-1.23,3.48-2.75s-1.55-2.75-3.48-2.75a3.29,3.29,0,0,0-3.43,2.39H1115.43l-28.37,22.41a4,4,0,0,0-4.77,0,2.3,2.3,0,0,0,0,3.78A4,4,0,0,0,1087.06,538.49Z" transform="translate(179.31 268.14)"/></g><g class="cls-5"><path class="cls-28" d="M1291.34,145.25c-4.78,0-8.68,3.08-8.68,6.86a6,6,0,0,0,1.83,4.17l-29,22.93H1039.39a1.13,1.13,0,0,0-.7.23l-75.42,59.61H914.7c-.4-3.5-4.09-6.25-8.61-6.25-4.78,0-8.68,3.08-8.68,6.86s3.9,6.86,8.68,6.86c4.38,0,8-2.58,8.57-5.91h49a1.2,1.2,0,0,0,.7-.23l75.42-59.61h216.09a1.08,1.08,0,0,0,.69-.23l29.29-23.14a10.08,10.08,0,0,0,5.47,1.58c4.79,0,8.68-3.08,8.68-6.87S1296.13,145.25,1291.34,145.25ZM906.09,245c-3.7,0-6.7-2.38-6.7-5.3s3-5.3,6.7-5.3c3.46,0,6.27,2.08,6.64,4.73a.74.74,0,0,0,0,1.47C912.15,243.05,909.41,245,906.09,245Zm385.25-87.54a7.68,7.68,0,0,1-4.49-1.4.87.87,0,0,0-.23-.32,1.27,1.27,0,0,0-.37-.18,4.67,4.67,0,0,1-1.62-3.41c0-2.92,3-5.3,6.71-5.3s6.71,2.38,6.71,5.3S1295,157.42,1291.34,157.42Z" transform="translate(179.31 268.14)"/><path class="cls-29" d="M1125.33,220.24h115.13a.8.8,0,1,1,0,1.56H1125.73l-31,24.49a1.13,1.13,0,0,1-.7.23h-32.65a.8.8,0,1,1,0-1.56h32.24l31-24.49A1.09,1.09,0,0,1,1125.33,220.24Z" transform="translate(179.31 268.14)"/><path class="cls-30" d="M1140.53,238.76h100.12a.8.8,0,1,1,0,1.56h-99.71l-28.49,22.52a1.2,1.2,0,0,1-1.4,0,.67.67,0,0,1,0-1.1L1139.84,239A1.08,1.08,0,0,1,1140.53,238.76Z" transform="translate(179.31 268.14)"/><path class="cls-31" d="M1106.75,259.53c4.78,0,8.68,3.08,8.68,6.86s-3.9,6.86-8.68,6.86-8.69-3.08-8.69-6.86S1102,259.53,1106.75,259.53Zm0,12.16c3.7,0,6.71-2.38,6.71-5.3s-3-5.3-6.71-5.3-6.71,2.38-6.71,5.3S1103.05,271.69,1106.75,271.69Z" transform="translate(179.31 268.14)"/><path class="cls-32" d="M1053.84,239.6c4.79,0,8.69,3.08,8.69,6.86s-3.9,6.86-8.69,6.86-8.68-3.07-8.68-6.86S1049.06,239.6,1053.84,239.6Zm0,12.17c3.7,0,6.71-2.38,6.71-5.31s-3-5.3-6.71-5.3-6.7,2.38-6.7,5.3S1050.15,251.77,1053.84,251.77Z" transform="translate(179.31 268.14)"/><path class="cls-33" d="M1248.34,232.68c4.79,0,8.68,3.08,8.68,6.86s-3.89,6.86-8.68,6.86-8.68-3.08-8.68-6.86S1243.56,232.68,1248.34,232.68Zm0,12.16c3.7,0,6.71-2.38,6.71-5.3s-3-5.3-6.71-5.3-6.71,2.38-6.71,5.3S1244.64,244.84,1248.34,244.84Z" transform="translate(179.31 268.14)"/><path class="cls-34" d="M1248.15,214.16c4.79,0,8.68,3.07,8.68,6.86s-3.89,6.86-8.68,6.86-8.68-3.08-8.68-6.86S1243.36,214.16,1248.15,214.16Zm0,12.16c3.7,0,6.71-2.38,6.71-5.3s-3-5.31-6.71-5.31-6.71,2.38-6.71,5.31S1244.45,226.32,1248.15,226.32Z" transform="translate(179.31 268.14)"/><path class="cls-35" d="M1270.33,191.17c-4.38,0-8,2.59-8.56,5.93H1076.36a1.13,1.13,0,0,0-.7.23l-81,64H973.49c-.07-3.73-3.93-6.76-8.67-6.76s-8.68,3.08-8.68,6.86,3.89,6.86,8.68,6.86c4.15,0,7.63-2.32,8.47-5.4h21.77a1.13,1.13,0,0,0,.7-.23l81-64h185c.41,3.48,4.09,6.23,8.6,6.23,4.79,0,8.68-3.08,8.68-6.86S1275.12,191.17,1270.33,191.17ZM964.82,266.72c-3.7,0-6.71-2.38-6.71-5.31s3-5.3,6.71-5.3,6.68,2.36,6.7,5.26a.81.81,0,0,0-.6.72.72.72,0,0,0,.39.6C970.58,265,968,266.72,964.82,266.72Zm305.51-63.39c-3.59,0-6.51-2.25-6.68-5.05a.59.59,0,0,0,0-.76c.32-2.68,3.16-4.79,6.64-4.79,3.7,0,6.71,2.37,6.71,5.3S1274,203.33,1270.33,203.33Z" transform="translate(179.31 268.14)"/><path class="cls-36" d="M1236.05,372.41c-4,0-7.31,2.14-8.33,5a1.18,1.18,0,0,0-.43-.08h-66.53a1.08,1.08,0,0,0-.69.23l-21.78,17.21h-81.75a4.82,4.82,0,0,0,.11-.85c0-3.78-3.89-6.86-8.68-6.86s-8.68,3.08-8.68,6.86,3.89,6.86,8.68,6.86c3.71,0,6.86-1.86,8.1-4.45h82.62a1.09,1.09,0,0,0,.7-.23l21.78-17.21h66.12l.12,0c0,.12,0,.25,0,.37,0,3.79,3.89,6.87,8.68,6.87s8.68-3.08,8.68-6.87S1240.84,372.41,1236.05,372.41ZM1048,399.25c-3.7,0-6.71-2.38-6.71-5.3s3-5.3,6.71-5.3,6.71,2.37,6.71,5.3a4,4,0,0,1-.11.85h-.35c-.54,0-.68,1.42-.28,1.51A7,7,0,0,1,1048,399.25Zm188.08-14.67c-3.7,0-6.71-2.38-6.71-5.31s3-5.3,6.71-5.3,6.71,2.38,6.71,5.3S1239.75,384.58,1236.05,384.58Z" transform="translate(179.31 268.14)"/><path class="cls-37" d="M1239.21,264.15c-4.79,0-8.68,3.07-8.68,6.86a6,6,0,0,0,2,4.34l-31.92,25.22h-66.71L1107,279.29a1.2,1.2,0,0,0-.7-.23H888.42a1.14,1.14,0,0,0-.69.23L809,341.5H702.18L679,323.14a6,6,0,0,0,2-4.33c0-3.78-3.89-6.86-8.68-6.86s-8.68,3.08-8.68,6.86,3.89,6.86,8.68,6.86a10.08,10.08,0,0,0,5.27-1.45l23.54,18.61a1.14,1.14,0,0,0,.69.22H809.43a1.14,1.14,0,0,0,.69-.22l78.71-62.21h217.05l26.93,21.28a1.13,1.13,0,0,0,.7.23H1201a1.09,1.09,0,0,0,.7-.23L1234,276.44a10.15,10.15,0,0,0,5.24,1.43c4.79,0,8.68-3.08,8.68-6.86S1244,264.15,1239.21,264.15ZM665.56,318.81c0-2.92,3-5.3,6.71-5.3s6.71,2.38,6.71,5.3a4.73,4.73,0,0,1-1.7,3.49,1,1,0,0,0-.53.2.73.73,0,0,0-.25.39,7.79,7.79,0,0,1-4.23,1.22C668.57,324.11,665.56,321.73,665.56,318.81Zm573.65-42.5a7.84,7.84,0,0,1-4-1.1.66.66,0,0,0-.27-.62,1.12,1.12,0,0,0-.69-.22h-.13a4.65,4.65,0,0,1-1.58-3.37c0-2.93,3-5.31,6.71-5.31s6.71,2.38,6.71,5.31S1242.91,276.31,1239.21,276.31Z" transform="translate(179.31 268.14)"/><path class="cls-38" d="M1224.86,314.77c-4.45,0-8.08,2.67-8.58,6.08h-96.13l-34.12-27a1.13,1.13,0,0,0-.7-.23H950.8a1.08,1.08,0,0,0-.69.23L872.5,355.22H699.27a1.13,1.13,0,0,0-.7.23l-49.08,38.79a10.16,10.16,0,0,0-5.1-1.34c-4.78,0-8.68,3.08-8.68,6.86s3.9,6.86,8.68,6.86,8.69-3.07,8.69-6.86a6.08,6.08,0,0,0-2.14-4.46l48.74-38.52H872.9a1.09,1.09,0,0,0,.7-.23l77.61-61.34h133.71l34.13,27a1.08,1.08,0,0,0,.69.23h96.54c.5,3.41,4.13,6.08,8.58,6.08,4.79,0,8.68-3.08,8.68-6.86S1229.65,314.77,1224.86,314.77ZM644.39,405.06c-3.7,0-6.7-2.37-6.7-5.3s3-5.3,6.7-5.3a8.08,8.08,0,0,1,3.77.91.66.66,0,0,0,.2.86,1.16,1.16,0,0,0,1.14.14,4.63,4.63,0,0,1,1.6,3.39C651.1,402.69,648.09,405.06,644.39,405.06Zm580.47-78.13c-3.36,0-6.12-2-6.61-4.52h.36a.8.8,0,1,0,0-1.56h-.36c.49-2.55,3.25-4.52,6.61-4.52,3.7,0,6.71,2.38,6.71,5.3S1228.56,326.93,1224.86,326.93Z" transform="translate(179.31 268.14)"/><path class="cls-39" d="M1261.58,430.06H1216.5l-24.79-19.59a3.38,3.38,0,0,0-2.09-.68h-186L973.5,386a3.36,3.36,0,0,0-2.09-.68H762.31a3.41,3.41,0,0,0-2.1.68L690,441.5a2.25,2.25,0,0,0-.68.91,10,10,0,0,0-5.79-1.79c-4.79,0-8.69,3.08-8.69,6.86s3.9,6.86,8.69,6.86,8.68-3.07,8.68-6.86a5.4,5.4,0,0,0-.44-2,3.45,3.45,0,0,0,2.41-.64L763.53,390H970.19l30.1,23.79a3.4,3.4,0,0,0,2.09.68h186l24.79,19.59a3.41,3.41,0,0,0,2.09.69h46.31c1.63,0-1.9-1.05-1.9-2.34S1263.21,430.06,1261.58,430.06ZM683.51,452.79c-3.7,0-6.71-2.38-6.71-5.31s3-5.3,6.71-5.3,6.71,2.38,6.71,5.3S687.21,452.79,683.51,452.79Z" transform="translate(179.31 268.14)"/><path class="cls-40" d="M1331.66,483.89c-4.45,0-8.09,2.67-8.58,6.08h-266.3L954.45,409.1a1.2,1.2,0,0,0-.7-.23H768.54a1.14,1.14,0,0,0-.69.23l-33.61,26.56a10.37,10.37,0,0,0-4.93-1.22c-4.79,0-8.68,3.08-8.68,6.86s3.89,6.86,8.68,6.86,8.68-3.07,8.68-6.86a6.14,6.14,0,0,0-2.28-4.6L769,410.43H953.34l102.33,80.87a1.13,1.13,0,0,0,.7.23h266.71c.49,3.42,4.13,6.08,8.58,6.08,4.78,0,8.68-3.07,8.68-6.86S1336.44,483.89,1331.66,483.89ZM729.31,446.6c-3.7,0-6.71-2.37-6.71-5.3s3-5.3,6.71-5.3a8,8,0,0,1,3.87,1,.67.67,0,0,0,.25.42,1.11,1.11,0,0,0,.7.23A4.76,4.76,0,0,1,736,441.3C736,444.23,733,446.6,729.31,446.6Zm602.35,49.46c-3.36,0-6.13-2-6.61-4.53h.35a.8.8,0,1,0,0-1.56h-.35c.48-2.55,3.25-4.52,6.61-4.52,3.7,0,6.71,2.38,6.71,5.3S1335.36,496.06,1331.66,496.06Z" transform="translate(179.31 268.14)"/><path class="cls-41" d="M1306.73,463.54c-3.94,0-7.23,2.1-8.29,4.94H1108l-31.26-24.7a6.35,6.35,0,0,0,3.06-5.18c0-3.78-3.9-6.86-8.69-6.86s-8.68,3.08-8.68,6.86,3.9,6.86,8.68,6.86a10.41,10.41,0,0,0,4-.79l31.81,25.14a1.13,1.13,0,0,0,.7.23H1298.1c0,.12,0,.24,0,.36,0,3.78,3.9,6.86,8.68,6.86s8.69-3.08,8.69-6.86S1311.52,463.54,1306.73,463.54ZM1064.42,438.6c0-2.92,3-5.3,6.71-5.3s6.71,2.38,6.71,5.3a4.94,4.94,0,0,1-2.47,4.08s-2,.52-1.7.83a8.39,8.39,0,0,1-2.54.39C1067.43,443.9,1064.42,441.53,1064.42,438.6Zm242.31,37.1c-3.7,0-6.71-2.38-6.71-5.3a4.6,4.6,0,0,1,.11-.83.65.65,0,0,0,.08-.31v0c.68-2.36,3.34-4.13,6.53-4.13,3.7,0,6.71,2.38,6.71,5.3S1310.43,475.7,1306.73,475.7Z" transform="translate(179.31 268.14)"/><path class="cls-42" d="M1269.27,422.72c6.75,0,12.25,4.34,12.25,9.68s-5.5,9.68-12.25,9.68S1257,437.74,1257,432.4,1262.52,422.72,1269.27,422.72Zm2,14.68c3.49,0,4.36-2.24,4.36-5s-2.84-5-6.33-5-6.33,2.24-6.33,5S1267.75,437.4,1271.24,437.4Z" transform="translate(179.31 268.14)"/></g><path class="cls-43" d="M511,281.14a1.15,1.15,0,0,0,0,.19l-114.86-.05Z" transform="translate(179.31 268.14)"/><g class="cls-5"><path class="cls-44" d="M299.37,165.87a3.32,3.32,0,0,1,3.44,2.39H701.73l-.85.73H302.81a3.31,3.31,0,0,1-3.44,2.39c-1.92,0-3.48-1.24-3.48-2.75S297.45,165.87,299.37,165.87Z" transform="translate(179.31 268.14)"/><path class="cls-45" d="M80.22,154.21c0,7.1,7.31,12.87,16.28,12.87,8.76,0,15.9-5.49,16.25-12.34H241.24l28.33,24.08a3.35,3.35,0,0,0,.19,5.19,6,6,0,0,0,7.06.21,3.4,3.4,0,0,0,.26-5.59,6,6,0,0,0-6.53-.52l-28.73-24.43H112.75c-.35-6.85-7.49-12.34-16.25-12.34C87.53,141.34,80.22,147.11,80.22,154.21ZM96.5,142.39c8,0,14.57,5,14.92,11.29h-3.06c-.35-4.93-5.53-8.86-11.86-8.86-6.55,0-11.88,4.21-11.88,9.39S90,163.6,96.5,163.6c6.33,0,11.51-3.93,11.86-8.86h3.06C111.07,161,104.53,166,96.5,166c-8.24,0-15-5.3-15-11.82S88.26,142.39,96.5,142.39Z" transform="translate(179.31 268.14)"/><path class="cls-46" d="M147.22,336.38c-8,10.14,1.09,20.74,13.26,20.74,8.75,0,15.9-5.49,16.25-12.34h42l28.33,24.09a3.35,3.35,0,0,0,.19,5.19c2.68,2.28,8,1.49,8.84-2.56-.52-3.85-5.12-5-8.05-3.35l-28.73-24.42H176.73c-.48-9.34-13.58-16.15-26.18-10A9.61,9.61,0,0,0,147.22,336.38Zm13.26-3.94c8,0,14.57,5,14.92,11.29h-3.07c-.35-4.93-5.52-8.87-11.85-8.87-8.94,0-15.61,7.85-9.56,15.29a6.51,6.51,0,0,0,2.11,1.67c9.19,4.65,18.82-.25,19.3-7h3.07c-.48,8.58-12.55,14.81-24.12,9.07a8.58,8.58,0,0,1-2.93-2.31C140.92,342.22,149.28,332.44,160.48,332.44ZM171,344.78c-.35,4.36-4.93,7.82-10.52,7.82-8.06,0-14-7.17-8.25-13.86a4.38,4.38,0,0,1,1.29-1c8.24-4.42,17-.08,17.48,6h-7.64a2.9,2.9,0,0,0-2.88-1.82c-2.33,0-4,2.14-2.17,4.06,2.21,1.33,4.6.36,5.05-1.19Z" transform="translate(179.31 268.14)"/><g class="cls-9"><rect class="cls-47" x="447.96" y="762.1" width="4.31" height="12.87"/><rect class="cls-48" x="456.63" y="762.1" width="4.31" height="12.87"/><rect class="cls-49" x="465.29" y="762.1" width="4.31" height="12.87"/><rect class="cls-50" x="473.96" y="762.1" width="4.31" height="12.87"/><rect class="cls-51" x="482.62" y="762.1" width="4.31" height="12.87"/><rect class="cls-52" x="491.28" y="762.1" width="4.31" height="12.87"/><rect class="cls-53" x="499.95" y="762.1" width="4.31" height="12.87"/><polygon class="cls-54" points="425.93 781.43 425.93 736.58 426.89 735.82 426.89 780.66 515.31 780.66 515.31 729.46 434.93 729.46 435.9 728.7 516.27 728.7 516.27 781.43 425.93 781.43"/></g><g class="cls-9"><path class="cls-55" d="M15.74,449.34a1.77,1.77,0,1,1,0,3.44,1.77,1.77,0,1,1,0-3.44Z" transform="translate(179.31 268.14)"/><path class="cls-56" d="M29.51,449.34a1.77,1.77,0,1,1,0,3.44,1.77,1.77,0,1,1,0-3.44Z" transform="translate(179.31 268.14)"/><path class="cls-57" d="M43.29,449.34a1.77,1.77,0,1,1-2.17,1.72A2,2,0,0,1,43.29,449.34Z" transform="translate(179.31 268.14)"/><path class="cls-58" d="M57.07,449.34a1.77,1.77,0,1,1-2.17,1.72A2,2,0,0,1,57.07,449.34Z" transform="translate(179.31 268.14)"/><path class="cls-59" d="M7,444.37H110v13.5H7Zm101.65,1.05H8.3v11.4H108.62Z" transform="translate(179.31 268.14)"/></g><path class="cls-60" d="M552.79,245.72c-2.28,0-4.15-1.35-4.44-3.08h-30.6L377.2,131.56-101.17,128a2.56,2.56,0,0,1-.94,1.43,4.05,4.05,0,0,1-4.78,0,2.3,2.3,0,0,1,0-3.78,4,4,0,0,1,4.78,0,2.45,2.45,0,0,1,.94,1.44l478.4,3.52.33-.06L518.24,241.69h30.11c.29-1.73,2.16-3.08,4.44-3.08,2.48,0,4.49,1.59,4.49,3.56S555.27,245.72,552.79,245.72Z" transform="translate(179.31 268.14)"/><path class="cls-61" d="M-7.65,498a3.29,3.29,0,0,1,3.43,2.39h216.9c0,.23,0,.46,0,.69v0H-4.22a3.3,3.3,0,0,1-3.43,2.38c-1.92,0-3.48-1.23-3.48-2.75S-9.57,498-7.65,498Z" transform="translate(179.31 268.14)"/><path class="cls-62" d="M611.78,458.67c-2.28,0-4.14,1.35-4.44,3.09h-30.6l-86.88,65.37-386.17,3.6a2.49,2.49,0,0,0-.93-1.43,4.05,4.05,0,0,0-4.78,0,2.3,2.3,0,0,0,0,3.78,4.05,4.05,0,0,0,4.79,0,2.55,2.55,0,0,0,.94-1.44l386.19-3.52.33.06,87-65.48h30.1c.3,1.74,2.16,3.08,4.44,3.08,2.48,0,4.5-1.59,4.5-3.55S614.26,458.67,611.78,458.67Z" transform="translate(179.31 268.14)"/><path class="cls-63" d="M207.77,138.72a2.25,2.25,0,0,1-.55-3.17L179,113.27H-172.4a3.29,3.29,0,0,1-3.43,2.39c-1.92,0-3.48-1.23-3.48-2.75s1.56-2.75,3.48-2.75a3.3,3.3,0,0,1,3.43,2.38H179.41L207.77,135a4,4,0,0,1,4.77,0,2.29,2.29,0,0,1,0,3.77A4,4,0,0,1,207.77,138.72Z" transform="translate(179.31 268.14)"/><path class="cls-64" d="M152.11,538.49a2.27,2.27,0,0,1-.56-3.18L123.36,513H-135.85a3.3,3.3,0,0,1-3.44,2.38c-1.92,0-3.48-1.23-3.48-2.75s1.56-2.75,3.48-2.75a3.3,3.3,0,0,1,3.44,2.39H123.74l28.37,22.41a4,4,0,0,1,4.77,0,2.3,2.3,0,0,1,0,3.78A4,4,0,0,1,152.11,538.49Z" transform="translate(179.31 268.14)"/></g><g class="cls-5"><path class="cls-65" d="M-60.86,152.11c0,3.79,3.9,6.87,8.68,6.87a10.09,10.09,0,0,0,5.48-1.58l29.28,23.14a1.13,1.13,0,0,0,.7.23H199.37l75.42,59.61a1.15,1.15,0,0,0,.7.23h49c.59,3.33,4.19,5.91,8.56,5.91,4.79,0,8.68-3.08,8.68-6.86s-3.89-6.86-8.68-6.86c-4.52,0-8.2,2.75-8.6,6.25H275.89l-75.42-59.61a1.08,1.08,0,0,0-.69-.23H-16.31l-29-22.93a6,6,0,0,0,1.83-4.17c0-3.78-3.9-6.86-8.69-6.86S-60.86,148.33-60.86,152.11Zm387.34,88.45a.74.74,0,0,0,0-1.47c.36-2.65,3.18-4.73,6.63-4.73,3.7,0,6.71,2.38,6.71,5.3s-3,5.3-6.71,5.3C329.76,245,327,243.05,326.48,240.56ZM-58.88,152.11c0-2.92,3-5.3,6.7-5.3s6.71,2.38,6.71,5.3a4.66,4.66,0,0,1-1.61,3.41,1.27,1.27,0,0,0-.37.18.69.69,0,0,0-.23.32,7.69,7.69,0,0,1-4.5,1.4C-55.87,157.42-58.88,155-58.88,152.11Z" transform="translate(179.31 268.14)"/><path class="cls-66" d="M113.84,220.24H-1.29a.9.9,0,0,0-1,.78.9.9,0,0,0,1,.78H113.43l31,24.49a1.11,1.11,0,0,0,.7.23h32.65a.8.8,0,1,0,0-1.56H145.54l-31-24.49A1.13,1.13,0,0,0,113.84,220.24Z" transform="translate(179.31 268.14)"/><path class="cls-67" d="M98.63,238.76H-1.48a.9.9,0,0,0-1,.78.9.9,0,0,0,1,.78H98.23l28.49,22.52a1.19,1.19,0,0,0,1.39,0,.66.66,0,0,0,0-1.1L99.33,239A1.09,1.09,0,0,0,98.63,238.76Z" transform="translate(179.31 268.14)"/><path class="cls-68" d="M141.1,266.39c0,3.78-3.89,6.86-8.68,6.86s-8.68-3.08-8.68-6.86,3.89-6.86,8.68-6.86S141.1,262.61,141.1,266.39Zm-2,0c0-2.92-3-5.3-6.71-5.3s-6.71,2.38-6.71,5.3,3,5.3,6.71,5.3S139.13,269.31,139.13,266.39Z" transform="translate(179.31 268.14)"/><path class="cls-69" d="M194,246.46c0,3.79-3.89,6.86-8.68,6.86s-8.68-3.07-8.68-6.86,3.9-6.86,8.68-6.86S194,242.68,194,246.46Zm-2,0c0-2.92-3-5.3-6.71-5.3s-6.71,2.38-6.71,5.3,3,5.31,6.71,5.31S192,249.39,192,246.46Z" transform="translate(179.31 268.14)"/><path class="cls-70" d="M-.49,239.54c0,3.78-3.9,6.86-8.69,6.86s-8.68-3.08-8.68-6.86,3.9-6.86,8.68-6.86S-.49,235.76-.49,239.54Zm-2,0c0-2.92-3-5.3-6.71-5.3s-6.7,2.38-6.7,5.3,3,5.3,6.7,5.3S-2.47,242.46-2.47,239.54Z" transform="translate(179.31 268.14)"/><path class="cls-71" d="M-.3,221c0,3.78-3.9,6.86-8.68,6.86s-8.69-3.08-8.69-6.86,3.9-6.86,8.69-6.86S-.3,217.23-.3,221Zm-2,0c0-2.93-3-5.31-6.71-5.31s-6.71,2.38-6.71,5.31,3,5.3,6.71,5.3S-2.27,223.94-2.27,221Z" transform="translate(179.31 268.14)"/><path class="cls-72" d="M-39.85,198c0,3.78,3.9,6.86,8.69,6.86,4.51,0,8.19-2.75,8.6-6.23h185l81,64a1.09,1.09,0,0,0,.7.23h21.76c.85,3.08,4.32,5.4,8.48,5.4,4.78,0,8.68-3.07,8.68-6.86s-3.9-6.86-8.68-6.86-8.6,3-8.67,6.76H244.51l-81-64a1.08,1.08,0,0,0-.69-.23H-22.6c-.58-3.34-4.18-5.93-8.56-5.93C-35.95,191.17-39.85,194.24-39.85,198Zm307.71,64.66a.71.71,0,0,0,.38-.6.8.8,0,0,0-.6-.72c0-2.9,3-5.26,6.71-5.26s6.71,2.38,6.71,5.3-3,5.31-6.71,5.31C271.21,266.72,268.59,265,267.86,262.69ZM-37.87,198c0-2.93,3-5.3,6.71-5.3,3.48,0,6.31,2.11,6.64,4.79a.67.67,0,0,0-.12.36.66.66,0,0,0,.15.4c-.16,2.8-3.08,5.05-6.67,5.05S-37.87,201-37.87,198Z" transform="translate(179.31 268.14)"/><path class="cls-73" d="M-5.56,379.27c0,3.79,3.89,6.87,8.68,6.87s8.68-3.08,8.68-6.87c0-.12,0-.25-.05-.37l.13,0H78l21.78,17.21a1.08,1.08,0,0,0,.69.23H183.1c1.24,2.59,4.39,4.45,8.1,4.45,4.79,0,8.68-3.08,8.68-6.86s-3.89-6.86-8.68-6.86-8.68,3.08-8.68,6.86a4.82,4.82,0,0,0,.11.85H100.88L79.1,377.59a1.09,1.09,0,0,0-.7-.23H11.88a1.18,1.18,0,0,0-.43.08c-1-2.89-4.35-5-8.33-5C-1.67,372.41-5.56,375.49-5.56,379.27Zm190.79,17c.4-.09.26-1.51-.29-1.51h-.34a4,4,0,0,1-.11-.85c0-2.93,3-5.3,6.71-5.3s6.71,2.37,6.71,5.3-3,5.3-6.71,5.3A7,7,0,0,1,185.23,396.31Zm-188.82-17c0-2.92,3-5.3,6.71-5.3s6.71,2.38,6.71,5.3-3,5.31-6.71,5.31S-3.59,382.2-3.59,379.27Z" transform="translate(179.31 268.14)"/><path class="cls-74" d="M-8.73,271c0,3.78,3.9,6.86,8.69,6.86a10.15,10.15,0,0,0,5.24-1.43L37.43,301.9a1.08,1.08,0,0,0,.69.23h67.54a1.08,1.08,0,0,0,.69-.23l26.93-21.28H350.34L429,342.83a1.19,1.19,0,0,0,.7.22H537.39a1.15,1.15,0,0,0,.7-.22l23.54-18.61a10.05,10.05,0,0,0,5.27,1.45c4.79,0,8.68-3.08,8.68-6.86S571.69,312,566.9,312s-8.68,3.08-8.68,6.86a6,6,0,0,0,2,4.33L537,341.5H430.15l-78.71-62.21a1.14,1.14,0,0,0-.69-.23H132.88a1.15,1.15,0,0,0-.7.23l-26.93,21.28H38.53L6.62,275.35a6,6,0,0,0,2-4.34c0-3.79-3.9-6.86-8.68-6.86S-8.73,267.22-8.73,271Zm575.63,53.1a7.8,7.8,0,0,1-4.24-1.22.71.71,0,0,0-.24-.39,1,1,0,0,0-.53-.2,4.7,4.7,0,0,1-1.7-3.49c0-2.92,3-5.3,6.71-5.3s6.71,2.38,6.71,5.3S570.6,324.11,566.9,324.11ZM-6.75,271c0-2.93,3-5.31,6.71-5.31s6.7,2.38,6.7,5.31a4.64,4.64,0,0,1-1.57,3.37H5a1.16,1.16,0,0,0-.7.22.7.7,0,0,0-.27.62,7.77,7.77,0,0,1-4,1.1C-3.74,276.31-6.75,273.93-6.75,271Z" transform="translate(179.31 268.14)"/><path class="cls-75" d="M5.62,321.63c0,3.78,3.9,6.86,8.68,6.86,4.45,0,8.09-2.67,8.59-6.08h96.53a1.11,1.11,0,0,0,.7-.23l34.12-27H288l77.61,61.34a1.08,1.08,0,0,0,.69.23H539.49l48.74,38.52a6.08,6.08,0,0,0-2.14,4.46c0,3.79,3.9,6.86,8.68,6.86s8.69-3.07,8.69-6.86-3.9-6.86-8.69-6.86a10.21,10.21,0,0,0-5.1,1.34l-49.08-38.79a1.08,1.08,0,0,0-.69-.23H366.67l-77.61-61.34a1.09,1.09,0,0,0-.7-.23H153.84a1.09,1.09,0,0,0-.7.23l-34.13,27H22.89c-.5-3.41-4.14-6.08-8.59-6.08C9.52,314.77,5.62,317.85,5.62,321.63Zm582.44,78.13a4.66,4.66,0,0,1,1.6-3.39,1.18,1.18,0,0,0,1.15-.14.66.66,0,0,0,.2-.86,8.07,8.07,0,0,1,3.76-.91c3.7,0,6.71,2.38,6.71,5.3s-3,5.3-6.71,5.3S588.06,402.69,588.06,399.76ZM7.6,321.63c0-2.92,3-5.3,6.7-5.3,3.37,0,6.13,2,6.61,4.52h-.35a.8.8,0,1,0,0,1.56h.35c-.48,2.55-3.24,4.52-6.61,4.52C10.6,326.93,7.6,324.55,7.6,321.63Z" transform="translate(179.31 268.14)"/><path class="cls-76" d="M-20.52,432.4c0,1.29-3.52,2.34-1.89,2.34h46.3a3.41,3.41,0,0,0,2.1-.69l24.78-19.59h186a3.36,3.36,0,0,0,2.09-.68L269,390H475.64L545,444.81a3.42,3.42,0,0,0,2.4.64,5.59,5.59,0,0,0-.43,2c0,3.79,3.89,6.86,8.68,6.86s8.68-3.07,8.68-6.86-3.89-6.86-8.68-6.86a10,10,0,0,0-5.79,1.79,2.25,2.25,0,0,0-.68-.91L479,386a3.36,3.36,0,0,0-2.09-.68H267.75a3.4,3.4,0,0,0-2.09.68l-30.1,23.8h-186a3.36,3.36,0,0,0-2.09.68L22.67,430.06H-22.41C-24,430.06-20.52,431.11-20.52,432.4ZM549,447.48c0-2.92,3-5.3,6.71-5.3s6.71,2.38,6.71,5.3-3,5.31-6.71,5.31S549,450.41,549,447.48Z" transform="translate(179.31 268.14)"/><path class="cls-77" d="M-101.17,490.75c0,3.79,3.89,6.86,8.68,6.86,4.45,0,8.09-2.66,8.58-6.08H182.8a1.13,1.13,0,0,0,.7-.23l102.32-80.87h184.4l33.24,26.27a6.11,6.11,0,0,0-2.28,4.6c0,3.79,3.89,6.86,8.68,6.86s8.68-3.07,8.68-6.86-3.9-6.86-8.68-6.86a10.37,10.37,0,0,0-4.93,1.22L471.32,409.1a1.15,1.15,0,0,0-.7-.23H285.42a1.15,1.15,0,0,0-.7.23L182.39,490H-83.91c-.49-3.41-4.13-6.08-8.58-6.08C-97.28,483.89-101.17,487-101.17,490.75ZM503.15,441.3a4.76,4.76,0,0,1,1.89-3.67,1.11,1.11,0,0,0,.7-.23A.71.71,0,0,0,506,437a8,8,0,0,1,3.87-1c3.7,0,6.71,2.38,6.71,5.3s-3,5.3-6.71,5.3S503.15,444.23,503.15,441.3ZM-99.2,490.75c0-2.92,3-5.3,6.71-5.3,3.36,0,6.13,2,6.61,4.52h-.35a.9.9,0,0,0-1,.78.9.9,0,0,0,1,.78h.35c-.48,2.56-3.25,4.53-6.61,4.53C-96.19,496.06-99.2,493.68-99.2,490.75Z" transform="translate(179.31 268.14)"/><path class="cls-78" d="M-76.25,470.4c0,3.78,3.9,6.86,8.68,6.86s8.69-3.08,8.69-6.86c0-.12,0-.24,0-.36H131.56a1.08,1.08,0,0,0,.69-.23l31.82-25.14a10.4,10.4,0,0,0,4,.79c4.79,0,8.69-3.07,8.69-6.86s-3.9-6.86-8.69-6.86-8.68,3.08-8.68,6.86a6.36,6.36,0,0,0,3.05,5.18l-31.25,24.7H-59.27c-1.06-2.84-4.36-4.94-8.3-4.94C-72.35,463.54-76.25,466.62-76.25,470.4ZM168,443.9a8.32,8.32,0,0,1-2.53-.39c.28-.31-1.7-.83-1.7-.83a4.94,4.94,0,0,1-2.47-4.08c0-2.92,3-5.3,6.7-5.3s6.71,2.38,6.71,5.3S171.73,443.9,168,443.9Zm-242.3,26.5c0-2.92,3-5.3,6.7-5.3,3.19,0,5.86,1.77,6.54,4.13a0,0,0,0,0,0,0,.65.65,0,0,0,.08.31,4.59,4.59,0,0,1,.1.83c0,2.92-3,5.3-6.71,5.3S-74.27,473.32-74.27,470.4Z" transform="translate(179.31 268.14)"/><path class="cls-79" d="M-17.86,432.4c0,5.34-5.49,9.68-12.24,9.68s-12.25-4.34-12.25-9.68,5.49-9.68,12.25-9.68S-17.86,427.06-17.86,432.4Zm-5.92,0c0-2.76-2.83-5-6.32-5s-6.33,2.24-6.33,5,.86,5,4.35,5S-23.78,435.16-23.78,432.4Z" transform="translate(179.31 268.14)"/></g><g class="cls-80"><rect class="cls-81" x="1277.89" y="873.12" width="133.97" height="44.43"/><rect class="cls-82" x="1120.95" y="873.12" width="133.97" height="44.43"/><rect class="cls-83" x="964.01" y="873.12" width="133.97" height="44.43"/><rect class="cls-84" x="807.07" y="873.12" width="133.97" height="44.43"/><rect class="cls-85" x="650.13" y="873.12" width="133.97" height="44.43"/><rect class="cls-86" x="493.19" y="873.12" width="133.97" height="44.43"/><rect class="cls-87" x="336.25" y="873.12" width="133.97" height="44.43"/><rect class="cls-88" x="179.31" y="873.12" width="133.97" height="44.43"/><rect class="cls-89" x="1277.89" y="814.26" width="133.97" height="44.43"/><rect class="cls-90" x="1120.95" y="814.26" width="133.97" height="44.43"/><rect class="cls-91" x="964.01" y="814.26" width="133.97" height="44.43"/><rect class="cls-92" x="807.07" y="814.26" width="133.97" height="44.43"/><rect class="cls-93" x="650.13" y="814.26" width="133.97" height="44.43"/><rect class="cls-94" x="493.19" y="814.26" width="133.97" height="44.43"/><rect class="cls-95" x="336.25" y="814.26" width="133.97" height="44.43"/><rect class="cls-96" x="179.31" y="814.26" width="133.97" height="44.43"/><rect class="cls-97" x="1277.89" y="755.4" width="133.97" height="44.43"/><rect class="cls-98" x="1120.95" y="755.4" width="133.97" height="44.43"/><rect class="cls-99" x="964.01" y="755.4" width="133.97" height="44.43"/><rect class="cls-100" x="807.07" y="755.4" width="133.97" height="44.43"/><rect class="cls-101" x="650.13" y="755.4" width="133.97" height="44.43"/><rect class="cls-102" x="493.19" y="755.4" width="133.97" height="44.43"/><rect class="cls-103" x="336.25" y="755.4" width="133.97" height="44.43"/><rect class="cls-104" x="179.31" y="755.4" width="133.97" height="44.43"/><rect class="cls-105" x="1277.89" y="696.54" width="133.97" height="44.43"/><rect class="cls-106" x="1120.95" y="696.54" width="133.97" height="44.43"/><rect class="cls-107" x="964.01" y="696.54" width="133.97" height="44.43"/><polygon class="cls-108" points="941.04 696.54 807.07 695.6 807.07 740.03 941.04 740.97 941.04 696.54"/><rect class="cls-109" x="650.13" y="696.54" width="133.97" height="44.43"/><rect class="cls-110" x="493.19" y="696.54" width="133.97" height="44.43"/><rect class="cls-111" x="336.25" y="696.54" width="133.97" height="44.43"/><rect class="cls-112" x="179.31" y="696.54" width="133.97" height="44.43"/><rect class="cls-113" x="1277.89" y="637.68" width="133.97" height="44.43"/><rect class="cls-114" x="1120.95" y="637.68" width="133.97" height="44.43"/><rect class="cls-115" x="964.01" y="637.68" width="133.97" height="44.43"/><rect class="cls-116" x="807.07" y="637.68" width="133.97" height="44.43"/><rect class="cls-117" x="650.13" y="637.68" width="133.97" height="44.43"/><rect class="cls-118" x="493.19" y="637.68" width="133.97" height="44.43"/><rect class="cls-119" x="336.25" y="637.68" width="133.97" height="44.43"/><rect class="cls-120" x="179.31" y="637.68" width="133.97" height="44.43"/></g><g class="cls-80"><rect class="cls-121" x="1277.89" y="268.14" width="133.97" height="44.43"/><rect class="cls-122" x="1120.95" y="268.14" width="133.97" height="44.43"/><rect class="cls-123" x="964.01" y="268.14" width="133.97" height="44.43"/><rect class="cls-124" x="807.07" y="268.14" width="133.97" height="44.43"/><rect class="cls-125" x="650.13" y="268.14" width="133.97" height="44.43"/><rect class="cls-126" x="493.19" y="268.14" width="133.97" height="44.43"/><rect class="cls-127" x="336.25" y="268.14" width="133.97" height="44.43"/><rect class="cls-128" x="179.31" y="268.14" width="133.97" height="44.43"/><rect class="cls-129" x="1277.89" y="327" width="133.97" height="44.43"/><rect class="cls-130" x="1120.95" y="327" width="133.97" height="44.43"/><rect class="cls-131" x="964.01" y="327" width="133.97" height="44.43"/><rect class="cls-132" x="807.07" y="327" width="133.97" height="44.43"/><rect class="cls-133" x="650.13" y="327" width="133.97" height="44.43"/><rect class="cls-134" x="493.19" y="327" width="133.97" height="44.43"/><rect class="cls-135" x="336.25" y="327" width="133.97" height="44.43"/><rect class="cls-136" x="179.31" y="327" width="133.97" height="44.43"/><rect class="cls-137" x="1277.89" y="385.86" width="133.97" height="44.43"/><rect class="cls-138" x="1120.95" y="385.86" width="133.97" height="44.43"/><rect class="cls-139" x="964.01" y="385.86" width="133.97" height="44.43"/><rect class="cls-140" x="807.07" y="385.86" width="133.97" height="44.43"/><rect class="cls-141" x="650.13" y="385.86" width="133.97" height="44.43"/><rect class="cls-142" x="493.19" y="385.86" width="133.97" height="44.43"/><rect class="cls-143" x="336.25" y="385.86" width="133.97" height="44.43"/><rect class="cls-144" x="179.31" y="385.86" width="133.97" height="44.43"/><rect class="cls-145" x="1277.89" y="444.72" width="133.97" height="44.43"/><rect class="cls-146" x="1120.95" y="444.72" width="133.97" height="44.43"/><rect class="cls-147" x="964.01" y="444.72" width="133.97" height="44.43"/><rect class="cls-148" x="807.07" y="444.72" width="133.97" height="44.43"/><rect class="cls-149" x="650.13" y="444.72" width="133.97" height="44.43"/><rect class="cls-150" x="493.19" y="444.72" width="133.97" height="44.43"/><rect class="cls-151" x="336.25" y="444.72" width="133.97" height="44.43"/><rect class="cls-152" x="179.31" y="444.72" width="133.97" height="44.43"/><rect class="cls-153" x="1277.89" y="503.58" width="133.97" height="44.43"/><rect class="cls-154" x="1120.95" y="503.58" width="133.97" height="44.43"/><rect class="cls-155" x="964.01" y="503.58" width="133.97" height="44.43"/><rect class="cls-156" x="807.07" y="503.58" width="133.97" height="44.43"/><rect class="cls-157" x="650.13" y="503.58" width="133.97" height="44.43"/><rect class="cls-158" x="493.19" y="503.58" width="133.97" height="44.43"/><rect class="cls-159" x="336.25" y="503.58" width="133.97" height="44.43"/><rect class="cls-160" x="179.31" y="503.58" width="133.97" height="44.43"/></g><ellipse class="cls-161" cx="798.42" cy="592.84" rx="750.12" ry="592.84"/></g></g></g></g></svg>